<?xml version="1.0" encoding="UTF-8"?><svg version="1.1" xmlns="http://www.w3.org/2000/svg" xmlns:xlink="http://www.w3.org/1999/xlink" viewBox="0 0 792 792" width="792" height="792" x="0px" y="0px">
                <g transform="translate(516.342 67.548) scale(1.006 1.009) rotate(0 112.76341948310139 269.3062438057483)"><g clip-path="url(#clipPath_Ybd_T2sCwJ1fVZ8yrgeo_)"><defs>
          <clipPath id="clipPath_Ybd_T2sCwJ1fVZ8yrgeo_">
            <rect x="0" y="0" width="225.457" height="538.533"/>
          </clipPath>
       </defs><title>pine_tree_3</title><g id="Layer_2Ybd_T2sCwJ1fVZ8yrgeo_" data-name="Layer 2"><g id="pine_tree_3Ybd_T2sCwJ1fVZ8yrgeo_"><path d="M138.94,524.133l-3.9-62.8c-10.6-10-20.5-19.7-29.8-29.2a3.663,3.663,0,0,0-4.8-.4,176.854,176.854,0,0,1-22.3,12.9l-5,79.5a11.95,11.95,0,0,0,9.5,12.5,120.643,120.643,0,0,0,23.4,1.9c10.9,0,18.3-.8,23.4-1.9A11.95,11.95,0,0,0,138.94,524.133Z" fill="#fdb813"/><path d="M225.34,429.133c-10.3-76.8-26.7-125-36.6-149a3.749,3.749,0,0,1,2-4.9,3.973,3.973,0,0,1,2.4-.2c2.6.7,4.9,1.3,6.8,1.7a3.7,3.7,0,0,0,4.5-2.7,5.437,5.437,0,0,0,0-1.8c-21.4-80.4-39.3-129.5-48.8-153.3a3.651,3.651,0,0,1,2.1-4.8,3.417,3.417,0,0,1,2.8,0l.2.1a3.736,3.736,0,0,0,4.9-4.6c-17.4-56.1-45.8-96-55.3-108.2a3.775,3.775,0,0,0-5.2-.7,3.044,3.044,0,0,0-.8.8c-4.2,6.1-12.5,18.7-22.8,37h0l-.3.5c-.6,1-1.1,2-1.7,3.1h0c-.6,1.2-1.4,2.5-2.2,4h0l-2.1,3.9c-1.1,2-2.2,4.1-3.1,5.8h0a670.539,670.539,0,0,0-41.2,97.8,3.7,3.7,0,0,0,2.4,4.7,3.9,3.9,0,0,0,2.6-.1c1.6-.6,3.3-1.4,5.2-2.2a3.791,3.791,0,0,1,4.9,1.9,3.61,3.61,0,0,1,.1,2.7c-11.1,31.9-27,85-40.8,159.5a3.6,3.6,0,0,0,3,4.3,4.084,4.084,0,0,0,1.9-.1c1.9-.6,4.2-1.4,6.7-2.3a3.7,3.7,0,0,1,4.8,2.2,3.944,3.944,0,0,1,.1,2.4c-7.9,25.9-16,59.9-21.8,102.6a3.712,3.712,0,0,0,3.2,4.2,4.052,4.052,0,0,0,1.1,0c7.7-1.3,23.1-4.3,35.8-10a3.783,3.783,0,0,1,4.9,1.8,2.663,2.663,0,0,1,.3,1.2c.8,8.5,1.8,17.2,2.8,26.1a3.635,3.635,0,0,0,4.1,3.2,2.92,2.92,0,0,0,.9-.2,264.3,264.3,0,0,0,25.1-10.9,189.949,189.949,0,0,0,22.3-12.9,3.915,3.915,0,0,1,4.8.4c9.3,9.4,19.3,19.1,29.8,29.2,1.7,1.7,3.5,3.3,5.3,5a3.774,3.774,0,0,0,5.3-.1,1.756,1.756,0,0,0,.4-.5,204.673,204.673,0,0,0,17.9-34.1,3.642,3.642,0,0,1,4.4-2.2c18.8,5.3,43.9,4.6,53.6,4.1a3.765,3.765,0,0,0,3.4-4A1.577,1.577,0,0,1,225.34,429.133Z" fill="#f04e23"/><path d="M68.64,143.933a2.92,2.92,0,0,0,.2.9,2.367,2.367,0,0,0,3.2,1.1,77.617,77.617,0,0,0,11.7-7.1l2.7-2.1c.9-.7,1.7-1.5,2.6-2.3a23.66,23.66,0,0,0,4.4-5.5.975.975,0,0,0-.5-1.4,1.063,1.063,0,0,0-1.2.2h0a55.15,55.15,0,0,1-10.2,7.8c-1.9,1.1-3.8,2.2-5.7,3.2-.8.4-1.7.9-2.5,1.3v-3c0-2.2.1-4.4.2-6.6,0-1.1.1-2.2.2-3.3l.3-3.3c.2-2.2.5-4.4.8-6.6v-.2a1.244,1.244,0,0,0-1.1-1.4,1.209,1.209,0,0,0-1.3.7,40,40,0,0,0-2.1,6.7c-.5,2.3-1,4.5-1.3,6.8a73.891,73.891,0,0,0-.4,14.1Z" fill="#10294c"/><path d="M81.64,397.933c.9-.7,1.7-1.5,2.6-2.3a25.946,25.946,0,0,0,4.4-5.5,1.05,1.05,0,0,0-.5-1.4.913.913,0,0,0-1.1.2h0a55.15,55.15,0,0,1-10.2,7.8l-5.7,3.3c-.8.4-1.7.9-2.5,1.3v-3c0-2.2.1-4.4.2-6.6,0-1.1.1-2.2.2-3.3l.3-3.3c.2-2.2.5-4.4.8-6.6v-.1a1.322,1.322,0,0,0-1.2-1.4,1.213,1.213,0,0,0-1.2.7,40,40,0,0,0-2.1,6.7c-.5,2.3-1,4.5-1.3,6.8a64.636,64.636,0,0,0-.3,13.9v.1a1.884,1.884,0,0,0,.2.8,2.367,2.367,0,0,0,3.2,1.1,57.589,57.589,0,0,0,6-3.3,56.453,56.453,0,0,0,5.7-3.8A27.613,27.613,0,0,1,81.64,397.933Z" fill="#10294c"/><path d="M70.54,368.233c1.1-1,2.1-1.9,3.1-3a34.7,34.7,0,0,0,5.2-6.9,1.012,1.012,0,0,0-.4-1.4,1.227,1.227,0,0,0-1.3.2h0a50.247,50.247,0,0,1-5.7,5.6c-2.1,1.7-4.3,3.3-6.5,4.8s-4.6,2.9-6.9,4.4c-1.2.7-2.4,1.4-3.6,2l-.3.2c-.1-1.5-.2-3.1-.2-4.6-.1-2.8-.1-5.5,0-8.3v-2.1l.1-2.1c.1-1.4.1-2.8.3-4.1.2-2.8.5-5.5.8-8.2v-.1a1.194,1.194,0,0,0-1.1-1.4,1.3,1.3,0,0,0-1.4.9,49.471,49.471,0,0,0-2.2,8.4,80.815,80.815,0,0,0-1.1,8.6c-.2,2.9-.3,5.8-.3,8.6a80.951,80.951,0,0,0,.6,8.6v.1a1.135,1.135,0,0,0,.3.8,2.356,2.356,0,0,0,3.2,1c2.6-1.4,4.9-2.8,7.3-4.4s4.7-3.2,6.9-4.9C68.34,370.033,69.44,369.133,70.54,368.233Z" fill="#10294c"/><path d="M96.966,256.315c.728-1.3,1.393-2.466,2-3.825a34.733,34.733,0,0,0,2.757-8.189,1.013,1.013,0,0,0-.822-1.2,1.226,1.226,0,0,0-1.17.6h0a50.238,50.238,0,0,1-3.642,7.113c-1.456,2.276-3.038,4.488-4.653,6.606s-3.449,4.2-5.158,6.353c-.918,1.043-1.836,2.085-2.785,3.033l-.222.285c-.568-1.392-1.168-2.879-1.641-4.3-.979-2.625-1.831-5.187-2.62-7.876l-.662-1.992-.568-2.025c-.347-1.36-.789-2.688-1.01-3.985-.693-2.72-1.261-5.376-1.828-8.033l-.032-.095a1.194,1.194,0,0,0-1.486-.981,1.3,1.3,0,0,0-1.044,1.3,49.477,49.477,0,0,0,.563,8.665,80.905,80.905,0,0,0,1.671,8.507c.725,2.815,1.546,5.6,2.429,8.255a80.834,80.834,0,0,0,3.284,7.971l.031.095a1.141,1.141,0,0,0,.537.665,2.358,2.358,0,0,0,3.353-.061c2.025-2.149,3.765-4.2,5.538-6.479s3.45-4.52,5-6.827C95.447,258.717,96.206,257.516,96.966,256.315Z" fill="#10294c"/><path d="M127.44,172.033a51.36,51.36,0,0,0,4.2,3.8c1.5,1.2,3,2.2,4.6,3.3,1.6,1,3.3,1.9,5,2.8h.1a2.92,2.92,0,0,0,.9.2,2.506,2.506,0,0,0,2.6-2.2h0a62.852,62.852,0,0,0-.1-11.2,26.956,26.956,0,0,0-.4-2.8c-.1-.7-.3-1.3-.4-2,.5.2.9.4,1.4.6a28.277,28.277,0,0,0,4.1,1.4h.1a2.293,2.293,0,0,0,2.9-1.6,2.769,2.769,0,0,0,.1-.9c-.2-1.5-.4-2.8-.7-4.2a27.457,27.457,0,0,0-1.1-4.1,11.764,11.764,0,0,0-.7-2,17.6,17.6,0,0,0-.9-2,18.051,18.051,0,0,0-2.4-3.7,1.128,1.128,0,0,0-1.1-.3,1.114,1.114,0,0,0-.6,1.4h0a32.794,32.794,0,0,1,1.8,7.5c.2,1.3.3,2.6.5,3.9v.2c-1.3-.5-2.7-1-4-1.6-.6-.2-1.2-.5-1.7-.7v-.1a1.083,1.083,0,0,0-1.2-.5h0l-.7-.3-3.7-1.6h-.1a1.248,1.248,0,0,0-1.7.7,1.4,1.4,0,0,0,.2,1.4,18.068,18.068,0,0,0,3.3,2.9,23.263,23.263,0,0,0,2.6,1.7,53.223,53.223,0,0,1,.4,6.9c0,1.7-.1,3.5-.2,5.3,0,.5-.1,1-.1,1.5-2-1.2-4-2.4-6-3.7-.7-.5-1.5-1-2.2-1.5s-1.5-1-2.2-1.5c-1.5-1-2.9-2.1-4.3-3.2h-.1a1.28,1.28,0,0,0-1.8.3,1.36,1.36,0,0,0,0,1.5A18.779,18.779,0,0,0,127.44,172.033Z" fill="#10294c"/><path d="M177.34,374.233c-.4-3.8-1.1-7.5-1.8-11.3-.8-3.7-1.6-7.4-2.7-11.1q-.75-2.7-1.8-5.4a48.671,48.671,0,0,0-2.1-5.3,46.712,46.712,0,0,0-5.8-9.9,1.091,1.091,0,0,0-1.3-.3,1.012,1.012,0,0,0-.4,1.4h0a59.928,59.928,0,0,1,4.5,10,98.238,98.238,0,0,1,3,10.6c.8,3.6,1.5,7.2,2.2,10.8.3,1.8.6,3.6.8,5.5.1.7.2,1.3.3,2l-2.1-.5-2.7-.8-1.3-.4-1.3-.4c-3.6-1.1-7.1-2.4-10.6-3.8a93.309,93.309,0,0,1-10.1-4.8c-1.6-.9-3.3-1.8-4.9-2.8a52.7,52.7,0,0,1-4.6-3.1h-.1a1.214,1.214,0,0,0-1.6.1,1.268,1.268,0,0,0,0,1.8h0a50.241,50.241,0,0,0,9.3,7.2,78.819,78.819,0,0,0,10.3,5.6c1.8.8,3.6,1.6,5.4,2.3.9.3,1.8.7,2.7,1.1l2.8.9,1.4.5,1.4.4,2.8.8c1.9.5,3.8.9,5.7,1.4a2.2,2.2,0,0,0,.8.1,2.433,2.433,0,0,0,1.8-2.6Z" fill="#10294c"/><path d="M89.44,472.333a1.419,1.419,0,0,0-.8-.9,1.356,1.356,0,0,0-1.8.7h0a18.774,18.774,0,0,0-1.2,4.5,34.077,34.077,0,0,0-.5,4.6,35.3,35.3,0,0,0,0,4.6,23.3,23.3,0,0,0,.8,4.6,1.226,1.226,0,0,0,1.4.8,1.057,1.057,0,0,0,.7-.6,25.424,25.424,0,0,0,1.3-4.5,33.991,33.991,0,0,0,.6-4.6,35.329,35.329,0,0,0,.1-4.6A18.158,18.158,0,0,0,89.44,472.333Z" fill="#f04e23"/><path d="M122.54,519.533a9.333,9.333,0,0,0,1.2,3.3,1.205,1.205,0,0,0,.5.5,1.068,1.068,0,0,0,1.5-.6,13.307,13.307,0,0,0,1-3.4,12.716,12.716,0,0,0,.2-3.4,19.529,19.529,0,0,0-.3-3.4,11.543,11.543,0,0,0-1-3.3,2.336,2.336,0,0,0-.7-.7,1.506,1.506,0,0,0-1.9.7,18.873,18.873,0,0,0-.9,3.4,19.329,19.329,0,0,0-.1,3.4A32.711,32.711,0,0,0,122.54,519.533Z" fill="#f04e23"/><path d="M96.54,501.433a1.871,1.871,0,0,0-2.6-.1,3.316,3.316,0,0,0-1,1.4,3.9,3.9,0,0,0,0,3,3.956,3.956,0,0,0,1,1.5,1.547,1.547,0,0,0,2.1.1,3.6,3.6,0,0,0,1.1-1.4,3.708,3.708,0,0,0,.4-1.4,3.812,3.812,0,0,0-.1-1.5A5.071,5.071,0,0,0,96.54,501.433Z" fill="#f04e23"/><path d="M110.94,455.233a6.885,6.885,0,0,0,1.1,1.3,1.662,1.662,0,0,0,2.1-.1,3.587,3.587,0,0,0,1-1.4,3.079,3.079,0,0,0,.3-1.3,3.317,3.317,0,0,0-1.3-2.6,2.107,2.107,0,0,0-2.6.1,3.39,3.39,0,0,0-.9,1.4,2.879,2.879,0,0,0-.1,1.3A2.836,2.836,0,0,0,110.94,455.233Z" fill="#f04e23"/><path d="M171.74,419.233a.764.764,0,0,0-.2-.5,1.58,1.58,0,0,0-2.1-.6h0a9.5,9.5,0,0,0-1.9,1.6,8.175,8.175,0,0,0-1.2,2,8.78,8.78,0,0,0-.7,2.3,7.017,7.017,0,0,0-.1,2.5c0,.1.1.3.1.4a1.282,1.282,0,0,0,1.7.5h0a10.04,10.04,0,0,0,2-1.6,12.735,12.735,0,0,0,1.3-1.9,9.037,9.037,0,0,0,.8-2.1,5.82,5.82,0,0,0,.3-2.6Z" fill="#10294c"/><path d="M52.24,415.133a6.529,6.529,0,0,0-2.4.6,6.251,6.251,0,0,0-2,1.3,12.878,12.878,0,0,0-1.6,1.7,9.409,9.409,0,0,0-1.2,2.2c0,.1-.1.3-.1.4a1.24,1.24,0,0,0,1.3,1.2h0a6.436,6.436,0,0,0,2.4-.5,12.81,12.81,0,0,0,2-1.1,12.165,12.165,0,0,0,1.7-1.5,7.994,7.994,0,0,0,1.3-2.2v-.1a1.268,1.268,0,0,0,.1-.6A1.7,1.7,0,0,0,52.24,415.133Z" fill="#10294c"/><path d="M183.64,269.433a25.5,25.5,0,0,0-2.9-1.3,15.545,15.545,0,0,0-3.1-.7,12.173,12.173,0,0,0-3.3-.1,1.2,1.2,0,0,0-1,1.3.713.713,0,0,0,.3.6,17.086,17.086,0,0,0,2.6,2.1,25.909,25.909,0,0,0,2.9,1.4,15.831,15.831,0,0,0,3.1.9,12.223,12.223,0,0,0,3.3.2,1.234,1.234,0,0,0,.8-.4,1.335,1.335,0,0,0,0-2h0A10.518,10.518,0,0,0,183.64,269.433Z" fill="#10294c"/><path d="M38.74,313.533h0a11.476,11.476,0,0,0-3.7.6,19.571,19.571,0,0,0-3.4,1.2c-1.1.5-2.2,1-3.3,1.6a16.554,16.554,0,0,0-3,2.2h0a1.612,1.612,0,0,0-.4.7,1.055,1.055,0,0,0,1,1.2h0a12.862,12.862,0,0,0,3.9-.3,24.181,24.181,0,0,0,3.6-1,16.822,16.822,0,0,0,3.3-1.6,13.307,13.307,0,0,0,3-2.3,1.777,1.777,0,0,0,.4-1A1.347,1.347,0,0,0,38.74,313.533Z" fill="#10294c"/><path d="M142.44,110.433a25.909,25.909,0,0,0,2.9,1.4,17.1,17.1,0,0,0,3,.9,12.223,12.223,0,0,0,3.3.2,1.367,1.367,0,0,0,1.3-1.5,1.268,1.268,0,0,0-.4-.9,13.5,13.5,0,0,0-2.7-2,25.5,25.5,0,0,0-2.9-1.3,15.545,15.545,0,0,0-3.1-.7,12.173,12.173,0,0,0-3.3-.1.713.713,0,0,0-.6.3,1.041,1.041,0,0,0,0,1.6A6.41,6.41,0,0,0,142.44,110.433Z" fill="#10294c"/></g></g></g></g><g transform="translate(66.988 80) scale(1.103 1.103) rotate(0 85.5485040797824 204.04351767905712)"><g clip-path="url(#clipPath_bAWzxZ0rOsvb-kf8ZpLzs)"><defs>
          <clipPath id="clipPath_bAWzxZ0rOsvb-kf8ZpLzs">
            <rect x="0" y="0" width="171.023" height="408.097"/>
          </clipPath>
       </defs><title>pine_tree_1</title><g id="Layer_2bAWzxZ0rOsvb-kf8ZpLzs" data-name="Layer 2"><g id="pine_tree_1bAWzxZ0rOsvb-kf8ZpLzs"><path d="M78.224,331.582a2.879,2.879,0,0,0-3.9-.9.1.1,0,0,0-.1.1,99.522,99.522,0,0,1-15,8.2l-3.6,57.9a9.536,9.536,0,0,0,7.6,9.9,91.039,91.039,0,0,0,17.3,1.3,91.06,91.06,0,0,0,17.3-1.3,9.356,9.356,0,0,0,7.6-9.9l-2.4-37.8C94.824,352.382,85.424,343.282,78.224,331.582Z" fill="#00acdc"/><path d="M171.023,325.282c-7.8-58.2-20.2-94.7-27.7-112.9a2.87,2.87,0,0,1,1.5-3.7,2.787,2.787,0,0,1,1.8-.1c2,.5,3.7,1,5.2,1.3a2.835,2.835,0,0,0,3.4-2.1,3.272,3.272,0,0,0,0-1.4c-16.2-60.9-29.8-98.2-37-116.2a2.871,2.871,0,0,1,1.5-3.7,2.56,2.56,0,0,1,2.1,0l.2.1a2.871,2.871,0,0,0,3.7-1.5,3.1,3.1,0,0,0,.1-1.9,275.952,275.952,0,0,0-23.5-54.1,13.969,13.969,0,0,0,2.9-.9,2.731,2.731,0,0,0,1.5-3.5l-.3-.6a153.116,153.116,0,0,0-21.3-22.8,2.271,2.271,0,0,0-1.6-.6,2.842,2.842,0,0,0-4,.3l-.2.2h0a3.057,3.057,0,0,0-2,.7c-6.9,6.6-20.9,21.2-29.8,38.3a2.654,2.654,0,0,0,1.1,3.6,2.492,2.492,0,0,0,1.7.3c1.2-.2,2.6-.5,4.2-.8a508.974,508.974,0,0,0-30.7,73.1,2.834,2.834,0,0,0,1.8,3.6,2.51,2.51,0,0,0,1.9-.1c1.2-.5,2.5-1,3.9-1.6a2.849,2.849,0,0,1,3.8,3.5c-8.4,24.3-20.4,64.6-30.9,121a2.829,2.829,0,0,0,2.2,3.3,2.2,2.2,0,0,0,1.4-.1c1.4-.5,3.2-1.1,5-1.8a2.782,2.782,0,0,1,3.6,1.7,3.219,3.219,0,0,1,.1,1.7c-6,19.6-12.1,45.4-16.6,77.7a2.893,2.893,0,0,0,2.4,3.2h.8c5.9-1,17.5-3.3,27.1-7.6a2.826,2.826,0,0,1,3.7,1.4,2.92,2.92,0,0,1,.2.9c.6,6.5,1.4,13.2,2.2,20.1a2.951,2.951,0,0,0,3.1,2.5.6.6,0,0,0,.4-.1,144.636,144.636,0,0,0,19.1-6.8,99.425,99.425,0,0,0,15-8.2,2.76,2.76,0,0,1,3.9.7.1.1,0,0,0,.1.1c7.2,11.7,16.6,20.8,24.9,27.4l2.4,1.8a2.754,2.754,0,0,0,3.9-.6c.1-.1.2-.3.3-.4,3-6.1,10-20.4,14.7-32.6a2.771,2.771,0,0,1,3.4-1.7c14.3,4.1,33.3,3.5,40.6,3a2.742,2.742,0,0,0,2.6-3C171.023,325.382,171.023,325.382,171.023,325.282Z" fill="#10294c"/><path d="M47.224,128.282a2.92,2.92,0,0,0,.2.9,2.367,2.367,0,0,0,3.2,1.1,41.716,41.716,0,0,0,4.6-2.6,41.458,41.458,0,0,0,4.3-3,16.319,16.319,0,0,0,2-1.7c.7-.6,1.3-1.2,1.9-1.8a19.682,19.682,0,0,0,3.3-4.3,1.151,1.151,0,0,0-.5-1.4,1.073,1.073,0,0,0-1.1.1h0a38.474,38.474,0,0,1-7.8,5.6c-1.4.8-2.9,1.6-4.3,2.4l-1,.5c0-2.1,0-4.2.1-6.3a20.9,20.9,0,0,1,.1-2.5c.1-.8.1-1.7.2-2.5.1-1.6.3-3.4.4-5v-.1a1.4,1.4,0,0,0-1.2-1.4,1.213,1.213,0,0,0-1.2.7,38.248,38.248,0,0,0-1.8,5.1,31.78,31.78,0,0,0-1,5.2,47.254,47.254,0,0,0-.4,5.3c0,1.8,0,3.6.1,5.3Z" fill="#00acdc"/><path d="M62.424,311.282c1.2-1.3,2.2-2.7,3.3-4.1a16.443,16.443,0,0,0,1.4-2.2c.4-.8.9-1.5,1.3-2.3a22.053,22.053,0,0,0,1.8-5.1,1.024,1.024,0,0,0-1.9-.7h0a43.317,43.317,0,0,1-5.7,7.8c-1.1,1.2-2.2,2.4-3.4,3.6l-.8.8q-1.05-3-1.8-6l-.6-2.4-.6-2.4c-.4-1.6-.7-3.3-1.1-4.9v-.1a1.326,1.326,0,0,0-1.5-1,1.409,1.409,0,0,0-1,1.1,24.387,24.387,0,0,0-.1,5.4,47.756,47.756,0,0,0,.6,5.3,43.713,43.713,0,0,0,1.2,5.2,42.434,42.434,0,0,0,1.8,5v.1a3.508,3.508,0,0,0,.5.8,2.478,2.478,0,0,0,3.4.1h0C60.224,313.882,61.324,312.682,62.424,311.282Z" fill="#00acdc"/><path d="M71.739,173.181c1.2-.792,2.2-1.646,3.3-2.5a11,11,0,0,0,1.4-1.341c.4-.488.9-.914,1.3-1.4a10.65,10.65,0,0,0,1.8-3.109c.1-.244-.1-.549-.5-.671a1.4,1.4,0,0,0-1.4.244h0a32.13,32.13,0,0,1-5.691,4.755c-1.1.732-2.2,1.463-3.395,2.2l-.8.487a30.857,30.857,0,0,1-1.8-3.657l-.6-1.463-.6-1.463c-.4-.976-.7-2.012-1.1-2.987v-.061a1.463,1.463,0,0,0-1.5-.61,1.2,1.2,0,0,0-1,.671,9.118,9.118,0,0,0-.1,3.292,18.776,18.776,0,0,0,1.8,6.4,20.574,20.574,0,0,0,1.8,3.048v.061a2.3,2.3,0,0,0,.5.488,3.706,3.706,0,0,0,3.395.061h0C69.542,174.766,70.641,174.035,71.739,173.181Z" fill="#00acdc"/><path d="M115.068,206.457c.406-1.722.588-3.433.858-5.193a16.465,16.465,0,0,0,.137-2.6c-.045-.893.046-1.748,0-2.642a22.04,22.04,0,0,0-.94-5.326,1.023,1.023,0,0,0-2,.325h0A43.315,43.315,0,0,1,112,200.611c-.368,1.586-.736,3.172-1.191,4.807l-.3,1.09q-2.39-2.1-4.517-4.34l-1.7-1.8-1.7-1.795c-1.135-1.2-2.232-2.529-3.367-3.726l-.049-.087a1.326,1.326,0,0,0-1.8-.133,1.409,1.409,0,0,0-.33,1.449,24.346,24.346,0,0,0,2.568,4.752,47.828,47.828,0,0,0,3.128,4.32,43.625,43.625,0,0,0,3.6,3.938,42.476,42.476,0,0,0,4.026,3.469l.049.087a3.518,3.518,0,0,0,.829.451,2.478,2.478,0,0,0,3.01-1.585h0C114.43,209.8,114.8,208.217,115.068,206.457Z" fill="#00acdc"/><path d="M54.724,258.882a1.093,1.093,0,0,0-1.5.1h0a50.144,50.144,0,0,1-9.4,7.7c-1.7,1.1-3.5,2.2-5.2,3.3l-2.2,1.2a22.829,22.829,0,0,1-.1-2.6c-.1-2.1-.1-4.1-.1-6.2,0-1,0-2.1.1-3.1s.1-2.1.1-3.1c.1-2.1.3-4.2.5-6.2v-.1a1.323,1.323,0,0,0-1.3-1.3,1.39,1.39,0,0,0-1.2.7,35.823,35.823,0,0,0-1.8,6.4c-.4,2.1-.8,4.3-1,6.5a48.524,48.524,0,0,0-.2,6.6c0,2.2.2,4.4.4,6.6v.1a1.135,1.135,0,0,0,.3.8,2.356,2.356,0,0,0,3.2,1h0c2-1.1,3.8-2.2,5.6-3.4s3.6-2.5,5.2-3.8c.8-.7,1.7-1.4,2.4-2.1a24.964,24.964,0,0,0,2.3-2.3,24.971,24.971,0,0,0,3.9-5.3A1.183,1.183,0,0,0,54.724,258.882Z" fill="#00acdc"/><path d="M90.624,68.782a1.114,1.114,0,0,0-1.4-.6,1.272,1.272,0,0,0-.7.9h0a33.277,33.277,0,0,1-1.1,7.7c-.3,1.3-.6,2.6-1,3.8,0,.1,0,.1-.1.2-1.1-1-2.1-1.9-3.2-2.9-1-.9-1.9-1.9-2.9-2.8l-2.8-2.9-.1-.1a1.268,1.268,0,0,0-1.8,0,1.238,1.238,0,0,0-.3,1.4,17.9,17.9,0,0,0,2,3.9c.8,1.2,1.6,2.4,2.5,3.5s1.9,2.2,2.9,3.2,2.2,2,3.3,2.9l.1.1a2.373,2.373,0,0,0,3.3-.4,2.01,2.01,0,0,0,.4-.8c.4-1.4.7-2.8,1-4.2a30.064,30.064,0,0,0,.5-4.2,15.483,15.483,0,0,0,.1-2.2,16.2,16.2,0,0,0-.1-2.2A7.213,7.213,0,0,0,90.624,68.782Z" fill="#00acdc"/><path d="M138.023,280.982c-.2-1.4-.5-2.9-.8-4.3a34.1,34.1,0,0,0-2.9-8.3,1.15,1.15,0,0,0-1.4-.5.992.992,0,0,0-.5,1.3h0a43.607,43.607,0,0,1,1.6,8,75.5,75.5,0,0,1,.5,8.3c0,2.8,0,5.6-.1,8.3-.1,1.4-.1,2.8-.2,4.2v.5l-4.2-2.4c-2.4-1.5-4.8-3-7.1-4.6l-1.8-1.2-1.7-1.2c-1.1-.8-2.3-1.6-3.4-2.5-2.2-1.7-4.5-3.5-6.6-5.3h0a1.217,1.217,0,0,0-1.6,0,1.189,1.189,0,0,0-.2,1.8h0a52.531,52.531,0,0,0,6,6.5c2.1,2,4.4,3.9,6.7,5.7a72.452,72.452,0,0,0,7.3,5,83.507,83.507,0,0,0,7.7,4.3h.1a2.92,2.92,0,0,0,.9.2,2.443,2.443,0,0,0,2.6-2.2,108.309,108.309,0,0,0-.1-17.4A28.485,28.485,0,0,1,138.023,280.982Z" fill="#00acdc"/><path d="M105.524,65.782a19.164,19.164,0,0,0-.9-3.2,28.8,28.8,0,0,0-1.3-3.1,11.019,11.019,0,0,0-2-2.8,1.007,1.007,0,0,0-1.7,1h0v.1a22.912,22.912,0,0,1,.7,2.8,25.575,25.575,0,0,1,.4,2.9,14.917,14.917,0,0,1,.2,2.1c-.7-.3-1.4-.5-2.1-.8l-2.8-1.1c-.9-.4-1.9-.8-2.8-1.1h-.1a1.268,1.268,0,0,0-1.4,2,13.6,13.6,0,0,0,2.4,2.4,27.5,27.5,0,0,0,2.8,1.9,26.213,26.213,0,0,0,6.2,2.6h.1a2.769,2.769,0,0,0,.9.1,2.365,2.365,0,0,0,2.1-2.6C105.924,67.882,105.724,66.782,105.524,65.782Z" fill="#00acdc"/><path d="M93.324,384.282a18.349,18.349,0,0,0-1.2-4.6,1.575,1.575,0,0,0-.7-.7,1.081,1.081,0,0,0-1.4.7,23.553,23.553,0,0,0-1,4.6,34.4,34.4,0,0,0-.3,4.6,35.529,35.529,0,0,0,.3,4.6,25.25,25.25,0,0,0,1,4.6,1.262,1.262,0,0,0,1.7.8,1.222,1.222,0,0,0,.8-.9,23.409,23.409,0,0,0,.9-4.6,34.942,34.942,0,0,0,.1-4.6A17,17,0,0,0,93.324,384.282Z" fill="#10294c"/><path d="M70.424,362.482a9.333,9.333,0,0,0,1.2-3.3,18.568,18.568,0,0,0,.5-3.4,19.3,19.3,0,0,0,0-3.4,14.744,14.744,0,0,0-.8-3.5,2.678,2.678,0,0,0-.5-.6,1.281,1.281,0,0,0-1.6.4h0a12,12,0,0,0-1.3,3.3,19,19,0,0,0-.6,3.3,19.329,19.329,0,0,0-.1,3.4,14.535,14.535,0,0,0,.7,3.5,1.4,1.4,0,0,0,1.8.8c.3.1.5-.2.7-.5Z" fill="#10294c"/><path d="M91.324,363.082a4.23,4.23,0,0,0-1.2,3,4.013,4.013,0,0,0,.3,1.5,3.6,3.6,0,0,0,1.1,1.4,1.983,1.983,0,0,0,2.6-.2,3.147,3.147,0,0,0,.8-1.5,3.812,3.812,0,0,0,.1-1.5,3.36,3.36,0,0,0-.5-1.4,5.263,5.263,0,0,0-1.2-1.4A1.418,1.418,0,0,0,91.324,363.082Z" fill="#10294c"/><path d="M73.024,383.882a1.664,1.664,0,0,0-2.1-.2,3.447,3.447,0,0,0-1.2,1.2,5.023,5.023,0,0,0-.5,1.3,1.95,1.95,0,0,0,.1,1.3,2.851,2.851,0,0,0,.8,1.4,1.982,1.982,0,0,0,2.5.3,3.179,3.179,0,0,0,1.1-1.2,2.768,2.768,0,0,0,.3-1.3,6.753,6.753,0,0,0-.2-1.4A2.851,2.851,0,0,0,73.024,383.882Z" fill="#10294c"/></g></g></g></g><g transform="translate(217.538 186) scale(0.904 0.905) rotate(0 108.5287610619469 237.29281767955803)"><g clip-path="url(#clipPath_IqywVO1Fm5Odcw9vM23fi)"><defs>
          <clipPath id="clipPath_IqywVO1Fm5Odcw9vM23fi">
            <rect x="0" y="0" width="216.982" height="474.561"/>
          </clipPath>
       </defs><title>pine_tree_2</title><g id="Layer_2IqywVO1Fm5Odcw9vM23fi" data-name="Layer 2"><g id="pine_tree_2IqywVO1Fm5Odcw9vM23fi"><path d="M216.882,373.65c-5.7-36.1-12.6-63.7-19.3-84.5a3.146,3.146,0,0,1,2-3.9,3.083,3.083,0,0,1,1.9,0c2.3.8,4.4,1.4,6.1,1.9a3.121,3.121,0,0,0,3.9-2.1,3.812,3.812,0,0,0,.1-1.5c-11.4-56.3-24.3-98.9-34.6-127.6a3.158,3.158,0,0,1,1.9-4,3.75,3.75,0,0,1,2.1,0l6.3,2.1a3.146,3.146,0,0,0,3.9-2,3.083,3.083,0,0,0,0-1.9c-12.6-38.3-23.4-69.9-36.1-94.1a3.131,3.131,0,0,1,1.3-4.2,2.492,2.492,0,0,1,1.7-.3h.2a3.2,3.2,0,0,0,3.4-2.8,2.635,2.635,0,0,0-.6-2.1c-20.9-28.3-35.6-41.7-40.7-45.9a3.041,3.041,0,0,0-4,0c-8.1,6.8-39.1,36-65,102.5a3.129,3.129,0,0,0,4.3,3.9l3.5-1.7a3.112,3.112,0,0,1,4.1,1.4,3.417,3.417,0,0,1,0,2.8c-12.6,24.4-33.9,72.6-51,145.8a3.025,3.025,0,0,0,2.3,3.7,3.3,3.3,0,0,0,1.4,0c1.3-.3,2.8-.6,4.5-1a3.1,3.1,0,0,1,3.7,2.3,3.219,3.219,0,0,1-.1,1.7,605.069,605.069,0,0,0-24,85.4,3.088,3.088,0,0,0,2.4,3.7,2.854,2.854,0,0,0,1.3,0c3-.7,7.3-1.7,12.3-3a3.111,3.111,0,0,1,3.8,2.2,3.4,3.4,0,0,1,.1,1c-1,10.4-1.8,21.4-2.5,33.1a3.123,3.123,0,0,0,2.9,3.3h.4a164.844,164.844,0,0,0,25.2-3.8,3.126,3.126,0,0,1,3.8,2.3v.2a167.224,167.224,0,0,0,4.3,18.6,3.158,3.158,0,0,0,3.9,2.1.758.758,0,0,0,.4-.2c9.9-4.6,19.3-9.2,28.4-13.7a3.178,3.178,0,0,1,1.4-.2s.1-.6,1.5.3h-.3c.2.1.3.2.5.3l1.3,1,.1.1h0a248.22,248.22,0,0,0,29.8,18.7,3.131,3.131,0,0,0,4.2-1.3c.1-.1.1-.3.2-.4,2.4-6.6,4.8-13,6.9-19.4a3.05,3.05,0,0,1,3.9-1.9h.1c.7.3,1.4.5,2.1.8,17.1,6.3,35.3,9.9,43.2,11.3a3.081,3.081,0,0,0,3.6-2.5c0-.3.1-.6,0-.8-.7-7.2-1.4-14.3-2.2-21.2a3.05,3.05,0,0,1,2.7-3.4h.9a155.067,155.067,0,0,0,27.2,2.1,3.116,3.116,0,0,0,3.1-3.1C216.982,373.95,216.882,373.85,216.882,373.65Z" fill="#fdb813"/><path d="M132.382,392.75c-2.2,6.3-4.5,12.8-6.9,19.4a3.107,3.107,0,0,1-4,1.8.758.758,0,0,1-.4-.2,232.545,232.545,0,0,1-31.1-19.6,2.186,2.186,0,0,0-.5-.3,12.213,12.213,0,0,0,2.6-.6,15.059,15.059,0,0,0,5-3.1,13.655,13.655,0,0,0,1.9-2.3h0a1.884,1.884,0,0,0,.2-.8,1.316,1.316,0,0,0-1.5-1.3h0a10.239,10.239,0,0,0-3,.8,12.75,12.75,0,0,0-2.5,1.5c-.8.6-1.5,1.2-2.2,1.8a13.655,13.655,0,0,0-1.9,2.3h0a1.421,1.421,0,0,0-.2.6,1.216,1.216,0,0,0,1.2,1.2h.4l-4.3,68.8a9.608,9.608,0,0,0,7.6,9.9,117.164,117.164,0,0,0,21.3,1.9,101.109,101.109,0,0,0,21.3-1.9,9.466,9.466,0,0,0,7.6-9.9l-4.4-71c-.7-.3-1.4-.5-2.1-.8a3.107,3.107,0,0,0-4,1.8Z" fill="#f04e23"/><path d="M131.882,178.05c.7.7,1.5,1.4,2.3,2.1s1.6,1.3,2.4,1.9c1.6,1.2,3.3,2.3,5,3.4a54.49,54.49,0,0,0,5.3,2.9,2.353,2.353,0,0,0,.8.2,2.506,2.506,0,0,0,2.6-2.2h0a63.244,63.244,0,0,0-.3-12.3c-.3-2-.7-4-1.1-6a31.558,31.558,0,0,0-2-5.9,1.32,1.32,0,0,0-1.7-.6,1.213,1.213,0,0,0-.7,1.2v.1c.2,1.9.5,3.9.6,5.8a28.252,28.252,0,0,1,.2,2.9c.1,1,.1,1.9.2,2.9.1,1.9.1,3.9.2,5.8v2.1l-1.8-.9c-1.7-.9-3.4-1.8-5-2.8a42.151,42.151,0,0,1-9-6.7h0a1.087,1.087,0,0,0-1.5,0,1.063,1.063,0,0,0-.2,1.2A21.782,21.782,0,0,0,131.882,178.05Z" fill="#f04e23"/><path d="M170.182,310.15q-.6-3.75-1.5-7.5a61.816,61.816,0,0,0-2.3-7.3,62.862,62.862,0,0,0-3.2-7,1.26,1.26,0,0,0-2.3,1v.1c.7,2.3,1.3,4.7,1.9,7,.3,1.2.5,2.4.8,3.6s.5,2.4.7,3.6c.5,2.4.8,4.8,1.2,7.2.2,1.2.3,2.4.4,3.6l-3.3-1.2c-2-.8-3.9-1.6-5.8-2.4l-.6-.3-.2-.1c-4.3-2-8.6-4.1-12.2-7.1h0a1.093,1.093,0,0,0-1.5.1,1.051,1.051,0,0,0,0,1.3,27,27,0,0,0,5.5,5.2,28.24,28.24,0,0,0,3.1,2.1c1,.6,2.1,1.3,3.3,1.9l.4.2c0,1.1-.1,2.2-.1,3.3a28.252,28.252,0,0,1-.2,2.9c-.1,1-.1,1.9-.2,2.9-.2,1.9-.4,3.8-.7,5.8l-.3,2.1-1.6-1.2c-1.5-1.1-3.1-2.3-4.6-3.5a46.033,46.033,0,0,1-8-7.9h0a1.084,1.084,0,0,0-1.5-.2.954.954,0,0,0-.3,1.2,24.335,24.335,0,0,0,3.1,5.4c.6.8,1.3,1.6,1.9,2.4.7.7,1.4,1.5,2.1,2.2a59.248,59.248,0,0,0,4.5,4.1c1.6,1.3,3.2,2.5,4.9,3.7a1.135,1.135,0,0,0,.8.3,2.311,2.311,0,0,0,2.8-1.8v-.1a62.619,62.619,0,0,0,1.5-12.2,60.779,60.779,0,0,0-.3-6.1,5.9,5.9,0,0,0-.2-1.4c.9.4,1.8.9,2.8,1.3,2.3,1,4.6,1.9,7,2.7a2.769,2.769,0,0,0,.9.1,2.351,2.351,0,0,0,2.2-2.5h0v-.1C170.782,315.15,170.582,312.65,170.182,310.15Z" fill="#f04e23"/><path d="M93.482,341.15a30.9,30.9,0,0,0,1.8-5.1,1.411,1.411,0,0,0-.8-1.5,1.329,1.329,0,0,0-1.7.7v.1a19.987,19.987,0,0,1-1,2.1l-1.2,2.1c-.8,1.4-1.8,2.8-2.7,4.1a56.5,56.5,0,0,1-6.5,7.3c-1.2,1.1-2.4,2.2-3.7,3.3-1.2,1-2.6,2-3.9,3-1.9,1.3-3.8,2.5-5.8,3.7-.1-.6-.3-1.2-.4-1.7-.4-1.6-.8-3.2-1.1-4.7q-1.05-4.8-1.8-9.6a78.127,78.127,0,0,1-1-9.6,51.387,51.387,0,0,1,.3-9.6h0a1.033,1.033,0,0,0-.9-1.2.921.921,0,0,0-1.1.7,42.586,42.586,0,0,0-1.6,10.1,43.388,43.388,0,0,0,0,5.1c.1,1.7.1,3.4.3,5,.3,3.3.8,6.7,1.3,10,.6,3.3,1.3,6.5,2.2,9.8a.52.52,0,0,0,.2.4,2.455,2.455,0,0,0,3.2,1.1h.1a63.709,63.709,0,0,0,9-5.5,59.217,59.217,0,0,0,8-6.9c1.2-1.3,2.4-2.6,3.5-4a42.7,42.7,0,0,0,3-4.4C91.982,344.35,92.782,342.75,93.482,341.15Z" fill="#f04e23"/><path d="M87.082,92.15h.1a32.934,32.934,0,0,0,4.4-1.6,5.019,5.019,0,0,0-.2,1.2,20.024,20.024,0,0,0-.4,2.4,40.279,40.279,0,0,0-.3,4.9c0,1.7,0,3.3.1,5a2.92,2.92,0,0,0,.2.9,2.455,2.455,0,0,0,3.2,1.1h.1a37.512,37.512,0,0,0,4.4-2.4c1.4-.9,2.8-1.9,4.1-2.9a39.2,39.2,0,0,0,3.7-3.4,30.918,30.918,0,0,0,3.3-3.9,1.378,1.378,0,0,0-.3-1.8,1.362,1.362,0,0,0-1.5,0h-.1c-1.2.9-2.5,1.8-3.8,2.7s-2.6,1.8-3.9,2.6c-1.6,1-3.2,2-4.9,3a2.769,2.769,0,0,0-.1-.9c-.1-1.5-.1-3.1-.2-4.6a58.154,58.154,0,0,1,.2-5.9c.8-.5,1.5-1,2.3-1.5a35.836,35.836,0,0,0,2.9-2.6,1.248,1.248,0,0,0-1.4-2h-.1c-1.1.4-2.2.9-3.3,1.4l-.9.4a.713.713,0,0,0-.6.3c-.6.2-1.2.5-1.8.7-1,.4-2.1.8-3.1,1.2.1-1,.2-2.1.4-3.1s.3-2.3.6-3.4a20.246,20.246,0,0,1,.9-3.3v-.1a.948.948,0,0,0-.7-1.3,1.128,1.128,0,0,0-1.1.3,14.61,14.61,0,0,0-2.2,3.3,14.167,14.167,0,0,0-.8,1.8,13.355,13.355,0,0,0-.7,1.8c-.4,1.2-.7,2.4-1,3.6a21.587,21.587,0,0,0-.6,3.8,2.365,2.365,0,0,0,2.1,2.6,2.935,2.935,0,0,1,1-.3Z" fill="#f04e23"/><path d="M62.082,233.55a1.248,1.248,0,0,0-1.4-2h-.1c-1.1.4-2.2.9-3.3,1.4-1.1.4-2.2.9-3.3,1.3s-2.1.8-3.1,1.2c.1-1,.2-2.1.4-3.1s.3-2.3.6-3.4a20.246,20.246,0,0,1,.9-3.3v-.1a.948.948,0,0,0-.7-1.3,1.128,1.128,0,0,0-1.1.3,14.61,14.61,0,0,0-2.2,3.3,14.167,14.167,0,0,0-.8,1.8c-.2.6-.5,1.2-.7,1.8-.4,1.2-.7,2.4-1,3.6a21.587,21.587,0,0,0-.6,3.8,2.365,2.365,0,0,0,2.1,2.6,2.769,2.769,0,0,0,.9-.1h.1a34.126,34.126,0,0,0,7.1-2.9,30.244,30.244,0,0,0,3.3-2.1C60.182,235.35,61.182,234.45,62.082,233.55Z" fill="#f04e23"/><path d="M143.282,51.75a11.947,11.947,0,0,0,2.6,1.1,12.816,12.816,0,0,0,2.7.5,7.774,7.774,0,0,0,3-.4,2.092,2.092,0,0,0,.6-.4,1.418,1.418,0,0,0-.1-2l-.2-.2a7.9,7.9,0,0,0-2.3-1.4,18.285,18.285,0,0,0-2.5-.8,23.356,23.356,0,0,0-2.6-.4,9.467,9.467,0,0,0-2.9.2h0a.55.55,0,0,0-.5.3,1.238,1.238,0,0,0-.1,1.7h0A13.015,13.015,0,0,0,143.282,51.75Z" fill="#f04e23"/><path d="M31.482,343.95h0a11.451,11.451,0,0,0-3.2.1,24.6,24.6,0,0,0-2.9.7,13.9,13.9,0,0,0-2.8,1.2,10.267,10.267,0,0,0-2.6,1.9.864.864,0,0,0-.3.6,1.3,1.3,0,0,0,.9,1.4h0a12.173,12.173,0,0,0,3.3.1,16.96,16.96,0,0,0,3.1-.6,14.763,14.763,0,0,0,2.9-1.2,10.267,10.267,0,0,0,2.6-1.9,2.01,2.01,0,0,0,.4-.8,1.6,1.6,0,0,0-1.4-1.5Z" fill="#f04e23"/><path d="M191.882,279.65a24.062,24.062,0,0,0-6.8-2.9,15.684,15.684,0,0,0-3.7-.5h0a1.284,1.284,0,0,0-1,.4,1.519,1.519,0,0,0,0,2,11.911,11.911,0,0,0,3.1,2.3c1.1.6,2.2,1.1,3.3,1.6a35.8,35.8,0,0,0,3.5,1.1,15.684,15.684,0,0,0,3.7.5h0a1.278,1.278,0,0,0,1.2-1.1.908.908,0,0,0-.3-.7A12.67,12.67,0,0,0,191.882,279.65Z" fill="#f04e23"/><path d="M110.382,441.95a1.085,1.085,0,0,0-.8-.8,1.262,1.262,0,0,0-1.7.8,21.624,21.624,0,0,0-1,4.4,31.678,31.678,0,0,0-.2,4.4,32.529,32.529,0,0,0,.3,4.4,23.61,23.61,0,0,0,1.1,4.4,1.081,1.081,0,0,0,1.4.7,1.575,1.575,0,0,0,.7-.7,21.806,21.806,0,0,0,1.1-4.4,31.453,31.453,0,0,0,.3-4.4,32.4,32.4,0,0,0-.2-4.4A28.382,28.382,0,0,0,110.382,441.95Z" fill="#10294c"/><path d="M102.682,413.95a1.552,1.552,0,0,0-2.1-.5,1.205,1.205,0,0,0-.5.5,7.2,7.2,0,0,0-1,2.4,10.567,10.567,0,0,0,0,5,7.714,7.714,0,0,0,1,2.5,1.188,1.188,0,0,0,1.7.4c.1-.1.3-.2.4-.4a7.956,7.956,0,0,0,1.1-2.5,21.656,21.656,0,0,0,.4-2.5,10.554,10.554,0,0,0-.2-2.5A7.543,7.543,0,0,0,102.682,413.95Z" fill="#10294c"/><path d="M132.682,435.25a2.107,2.107,0,0,0-2.6.1,3.045,3.045,0,0,0-.9,1.3,2.462,2.462,0,0,0-.1,1.2,5.638,5.638,0,0,0,.4,1.2,4.263,4.263,0,0,0,1.1,1.2,1.807,1.807,0,0,0,2.1-.1,3.249,3.249,0,0,0,1-1.3,2.55,2.55,0,0,0,0-2.4A2.94,2.94,0,0,0,132.682,435.25Z" fill="#10294c"/><path d="M97.682,446.95a1.982,1.982,0,0,0-2.5-.3,5.731,5.731,0,0,0-1.1,1.1,2.663,2.663,0,0,0-.3,1.2,5.019,5.019,0,0,0,.2,1.2,3.045,3.045,0,0,0,.9,1.3,1.808,1.808,0,0,0,2.1.2,4.263,4.263,0,0,0,1.2-1.1,6.117,6.117,0,0,0,.5-1.2,2.462,2.462,0,0,0-.1-1.2A9.382,9.382,0,0,0,97.682,446.95Z" fill="#10294c"/></g></g></g></g><g transform="translate(385 115.996) scale(1.29 1.279) rotate(0 24.372093023255815 16.559812353401096)"><g clip-path="url(#clipPath_T7_Mumw_xqlzeWZg_iUDz)"><defs>
          <clipPath id="clipPath_T7_Mumw_xqlzeWZg_iUDz">
            <rect x="0" y="0" width="48.744" height="33.123"/>
          </clipPath>
       </defs><title>bird</title><g id="Layer_2T7_Mumw_xqlzeWZg_iUDz" data-name="Layer 2"><g id="birdT7_Mumw_xqlzeWZg_iUDz"><path d="M46.1,21.223l-.3-.1-1.2-.3-1.4-.3a15.426,15.426,0,0,1-1.7-.5l-1-.3-.2-.1,1.5-2.1c.5-.8.9-1.6,1.3-2.4a5.023,5.023,0,0,0,.5-1.3,4.951,4.951,0,0,0,.4-1.3c.2-.8.4-1.6.6-2.5a17.852,17.852,0,0,0,.2-2.3,13.4,13.4,0,0,0-.1-2c-.1-.6-.2-1.1-.3-1.6-.1-.3-.1-.7-.2-1a1,1,0,0,1-.1-.4l-.4-1.2a2.268,2.268,0,0,0-2.9-1.4,2,2,0,0,0-1,.8l-.6.8-.7.9c-.3.4-.6.7-.9,1.1a12.667,12.667,0,0,1-1.1,1.3,17.878,17.878,0,0,0-1.3,1.4c-.5.5-1,.9-1.5,1.4a18.258,18.258,0,0,1-1.6,1.3c-.6.4-1.1.8-1.6,1.2l-.8.5-.8.5c-.5.3-1.1.6-1.6.9l-1,.5a10.475,10.475,0,0,1-1.1-.8,18.57,18.57,0,0,1-2.3-1.8l-.3-.3-.2-.2v-.1l-.1-.1-.3.1h0a12.036,12.036,0,0,0-2.4-1.5c-4.6-1.9-8.9.6-10.8,5.2-.1.2-.1.3-.2.5l.9-.3.1.2-1,.1a21.371,21.371,0,0,0-.3,6.2c0,.2.1.3.2.5a7.147,7.147,0,0,0,4.2,4.3h.2l.2.1.5.2.6.3.2.1-.5.3c-.5.3-1.1.6-1.5.8-.5.2-.9.5-1.3.7l-1.1.5-.9.4a2.189,2.189,0,0,0-1,.9,1.951,1.951,0,0,0,.9,2.5l.9.4.3.1.9.3c.4.1.9.3,1.4.4.6.1,1.2.2,1.9.3a16.2,16.2,0,0,0,2.2.1,19.419,19.419,0,0,0,2.4-.2c.4-.1.8-.1,1.3-.2.4-.1.9-.2,1.3-.3a12.537,12.537,0,0,0,2.5-.9,13.442,13.442,0,0,0,2.4-1.2,23.924,23.924,0,0,0,2.1-1.3l.4.1c1,.2,2.1.3,3.1.4s2,.2,3,.2a27.15,27.15,0,0,0,2.8.1h2.5c.8,0,1.5-.1,2.1-.1l1.7-.2,1.4-.1c1.7-.2,2.6-1.3,3-3.1C49.1,24.123,48.3,21.723,46.1,21.223Z" fill="#00acdc"/><path d="M9.4,13.523l-.9.3a69.806,69.806,0,0,0-8.5,3.6s2.4,1.9,8.1,2.6a14.919,14.919,0,0,0,2.1.2A5.819,5.819,0,0,0,9.4,13.523Z" fill="#fdb813"/><path d="M16.7,13.723a2.3,2.3,0,1,0,2.3,2.3h0A2.4,2.4,0,0,0,16.7,13.723Z" fill="#10294c"/></g></g></g></g><g transform="translate(375.25 402.08) scale(1.639 1.643) rotate(0 68.15131177547285 99.89653073645769)"><g clip-path="url(#clipPath_62Wwd7SUJmdmEPl-pGWwm)"><defs>
          <clipPath id="clipPath_62Wwd7SUJmdmEPl-pGWwm">
            <rect x="0" y="0" width="136.3" height="199.755"/>
          </clipPath>
       </defs><title>pine_tree_5</title><g id="Layer_262Wwd7SUJmdmEPl-pGWwm" data-name="Layer 2"><g id="pine_tree_562Wwd7SUJmdmEPl-pGWwm"><path d="M80,181.08c-15.4-3.5-27-12-32.2-15.4a1.655,1.655,0,0,0-2,.1l-1,.7c-.1,1.4-.1,2.8-.2,4.1-.1,3.8-.3,7.2-.4,10.3s-.1,5.7-.2,7.9v.1a9.987,9.987,0,0,0,8.2,9.9,95.339,95.339,0,0,0,27.2,0,9.987,9.987,0,0,0,8.2-9.9v-.2c0-2.2-.1-4.9-.2-7.9q-.15-3.3-.3-7.2a54.36,54.36,0,0,1-5.6,6.9A1.361,1.361,0,0,1,80,181.08Z" fill="#fdb813"/><path d="M136.3,109.98c-6.7-25.7-15.6-45.9-24.7-61.6a1.726,1.726,0,0,1,.7-2.4,1.445,1.445,0,0,1,.7-.2h.1a1.67,1.67,0,0,0,1.5-2,.908.908,0,0,0-.3-.7C94.8,12.68,76.9,3.18,69.7.48a7.019,7.019,0,0,0-6.3.6c-9.7,5.6-41.1,27.2-59.8,78.2a1.857,1.857,0,0,0,1,2.3,2.769,2.769,0,0,0,.9.1c1.9-.3,4.6-.8,7.5-1.5h0a11.518,11.518,0,0,0,2.1-.6,4.349,4.349,0,0,1-.6.7h0a1.051,1.051,0,0,1-1.3,0c0,.1,0,.1-.1.2h0S.3,108.28,0,155.28a1.774,1.774,0,0,0,1.7,1.8h.2q6.45-.6,12.9-1.8a1.764,1.764,0,0,1,2,1.1c2.4,6.5,5.1,13.3,8.2,20.3a1.721,1.721,0,0,0,2.3.9.1.1,0,0,0,.1-.1,175.528,175.528,0,0,0,17.4-11l1-.7a1.822,1.822,0,0,1,2-.1c5.2,3.3,16.8,11.9,32.2,15.4a1.845,1.845,0,0,0,1.6-.5,60.367,60.367,0,0,0,5.6-6.9,102.045,102.045,0,0,0,6.3-10.6,1.709,1.709,0,0,1,2.3-.8c11.2,5.6,29.1,7.4,34.9,7.9a1.781,1.781,0,0,0,1.9-1.6v-.1a254.492,254.492,0,0,0-6-53.6h0c-.8-3.3.8-4.1,3-3.6h0q2.7.6,4.5.9a1.743,1.743,0,0,0,2.1-1.4A2.485,2.485,0,0,0,136.3,109.98Z" fill="#00acdc"/><path d="M43.8,52.58c-.1.4-.1.8-.2,1.1a31.083,31.083,0,0,0,0,6.1v.1a.764.764,0,0,0,.2.5,1.443,1.443,0,0,0,2.1.6h0a22.606,22.606,0,0,0,2.6-1.6c.8-.6,1.7-1.2,2.4-1.8a21.835,21.835,0,0,0,2.2-2.1,12.029,12.029,0,0,0,1.8-2.6.8.8,0,0,0-.2-1,.744.744,0,0,0-.9.1h0c-.7.6-1.4,1.2-2.1,1.7a18.186,18.186,0,0,1-2.3,1.5c-.8.5-1.6,1-2.4,1.4l-.3.1v-.4a26.152,26.152,0,0,1,0-2.8v-2.9l.1-2.9v-.1a.9.9,0,0,0-.9-.9,1.02,1.02,0,0,0-.8.5c-.4.9-.7,1.9-1,2.8a33.851,33.851,0,0,1-7.6,1.9c-1.4.2-2.8.4-4.2.5l-1.7.2a12.2,12.2,0,0,1,.7-1.7c.6-1.3,1.1-2.6,1.8-3.9.6-1.3,1.3-2.5,1.9-3.8.7-1.3,1.4-2.5,2.1-3.7h0a.954.954,0,0,0-.3-1.2.92.92,0,0,0-1,.1,22.754,22.754,0,0,0-2.9,3.4,30.3,30.3,0,0,0-2.4,3.8,50.242,50.242,0,0,0-3.7,8.2h0a1.268,1.268,0,0,0-.1.6,1.649,1.649,0,0,0,1.7,1.5,31.159,31.159,0,0,0,4.4-.5c1.5-.2,2.9-.5,4.3-.8a29.245,29.245,0,0,0,4.2-1.3A3.334,3.334,0,0,0,43.8,52.58Z" fill="#10294c"/><path d="M114.3,138.78a29.915,29.915,0,0,0-1-4.3,15.047,15.047,0,0,0-1.8-4.1.67.67,0,0,0-.8-.3.608.608,0,0,0-.4.9h0a28.665,28.665,0,0,1,1.3,8.2c.1,1.4.1,2.8.1,4.2v1.7c-.6-.3-1.1-.5-1.6-.8-1.3-.7-2.5-1.4-3.7-2.1s-2.4-1.5-3.6-2.3-2.4-1.6-3.5-2.4h0a.83.83,0,0,0-1.2.2,1.083,1.083,0,0,0,0,1.1,24.958,24.958,0,0,0,3.2,3.3c1.1,1,2.3,1.9,3.5,2.8a30.3,30.3,0,0,0,3.8,2.4c1.3.7,2.7,1.4,4.1,2h0a1.268,1.268,0,0,0,.6.1,1.561,1.561,0,0,0,1.6-1.5h0c0-1.5,0-3-.1-4.4A21.852,21.852,0,0,0,114.3,138.78Z" fill="#10294c"/><path d="M78.4,37.38c.9.4,1.9.8,2.9,1.2,1,.3,2,.6,3,.8s2,.4,3,.5h.1a1.268,1.268,0,0,0,.6-.1,1.6,1.6,0,0,0,1.1-1.9h0c-.3-1-.6-1.9-1-2.9a22.447,22.447,0,0,0-1.3-2.7,22.606,22.606,0,0,0-1.6-2.6,11.5,11.5,0,0,0-2.1-2.3.608.608,0,0,0-.8,0,.751.751,0,0,0-.2,1h0c.5.8.9,1.6,1.3,2.4a20.035,20.035,0,0,1,1,2.6l.9,2.7c0,.1.1.2.1.3l-.4-.1a27.971,27.971,0,0,1-2.8-.6c-.9-.2-1.9-.4-2.8-.6l-2.8-.7h-.1a.832.832,0,0,0-1,.6.806.806,0,0,0,.3.9A9.34,9.34,0,0,0,78.4,37.38Z" fill="#10294c"/><path d="M87.987,79.826c.661.729,1.414,1.5,2.167,2.269.793.679,1.587,1.358,2.421,1.945s1.667,1.174,2.541,1.67l.092.041a1.287,1.287,0,0,0,.589.151,1.6,1.6,0,0,0,1.774-1.293h0c.13-1.036.22-1.981.258-3.057a29.291,29.291,0,0,0-.51-6.02,11.492,11.492,0,0,0-.991-2.953.607.607,0,0,0-.731-.323.752.752,0,0,0-.588.834h0c.134.933.177,1.827.219,2.72a20.026,20.026,0,0,1-.136,2.783q-.135,1.416-.269,2.833c-.04.092.011.223-.029.315l-.326-.253a28.149,28.149,0,0,1-2.318-1.681c-.743-.547-1.576-1.134-2.319-1.681l-2.278-1.772-.091-.041a.833.833,0,0,0-1.157.145.806.806,0,0,0-.09.944A9.362,9.362,0,0,0,87.987,79.826Z" fill="#10294c"/><path d="M26.4,136.88h0a17.969,17.969,0,0,1-2,1.9c-.7.6-1.5,1.1-2.2,1.7a18.824,18.824,0,0,1-2.3,1.6l-.3.2v-.4a26.352,26.352,0,0,1-.2-2.8c-.1-.9-.1-1.9-.2-2.9l-.1-2.9v-.1a.76.76,0,0,0-.6-.8.891.891,0,0,0-1.1.5h0c-.3,1-.6,2-.8,3a25.873,25.873,0,0,0,.2,9.2v.1a.764.764,0,0,0,.2.5,1.6,1.6,0,0,0,2.2.5h0a14.371,14.371,0,0,0,2.5-1.8,21.9,21.9,0,0,0,4.3-4.3,13.989,13.989,0,0,0,1.6-2.6.751.751,0,0,0-.4-.9,1.135,1.135,0,0,0-.8.3Z" fill="#10294c"/><path d="M65.284,102.371h0a17.914,17.914,0,0,1-.717,2.664c-.285.877-.708,1.72-.993,2.6a18.9,18.9,0,0,1-1.13,2.564l-.152.327-.208-.342a26.077,26.077,0,0,1-1.629-2.286c-.554-.716-1.075-1.57-1.682-2.371l-1.6-2.424-.052-.085a.761.761,0,0,0-.929-.37.89.89,0,0,0-.679,1h0c.265,1.01.53,2.02.88,2.978a25.849,25.849,0,0,0,4.962,7.749l.052.086a.761.761,0,0,0,.431.322,1.6,1.6,0,0,0,2.139-.719h0a14.389,14.389,0,0,0,1.2-2.838,21.954,21.954,0,0,0,1.431-5.911,13.969,13.969,0,0,0,.011-3.052.751.751,0,0,0-.81-.56,1.136,1.136,0,0,0-.527.672Z" fill="#10294c"/><path d="M57.62,95.286h0a18.062,18.062,0,0,1-.686,2.672c-.275.88-.687,1.728-.962,2.609a18.834,18.834,0,0,1-1.1,2.577l-.148.328-.212-.338a26.328,26.328,0,0,1-1.657-2.267c-.562-.709-1.093-1.557-1.709-2.351l-1.625-2.4-.053-.085a.759.759,0,0,0-.933-.359.891.891,0,0,0-.667,1.008h0c.277,1.006.554,2.013.916,2.966a25.876,25.876,0,0,0,5.054,7.69l.053.085a.767.767,0,0,0,.435.317,1.6,1.6,0,0,0,2.13-.744h0a14.38,14.38,0,0,0,1.163-2.853,21.871,21.871,0,0,0,1.36-5.927,13.964,13.964,0,0,0-.025-3.053.75.75,0,0,0-.817-.55,1.132,1.132,0,0,0-.518.679Z" fill="#10294c"/><path d="M74.92,150.073h0a17.817,17.817,0,0,1-.686,2.672c-.274.88-.686,1.729-.961,2.609a18.959,18.959,0,0,1-1.1,2.577l-.148.329-.213-.339a26.531,26.531,0,0,1-1.656-2.267c-.563-.709-1.094-1.557-1.709-2.351l-1.625-2.4-.053-.085a.76.76,0,0,0-.933-.359.89.89,0,0,0-.667,1.008h0c.277,1.006.554,2.013.915,2.967a25.855,25.855,0,0,0,5.055,7.689l.053.085a.761.761,0,0,0,.435.317,1.6,1.6,0,0,0,2.13-.744h0a14.377,14.377,0,0,0,1.162-2.853A21.922,21.922,0,0,0,76.281,153a14.027,14.027,0,0,0-.025-3.053.751.751,0,0,0-.817-.55,1.138,1.138,0,0,0-.519.679Z" fill="#10294c"/><path d="M45.7,164.38a8.467,8.467,0,0,0-1.4-1.9,11.37,11.37,0,0,0-1.6-1.5,20.278,20.278,0,0,0-1.8-1.3,12.81,12.81,0,0,0-2-1.1h0a.731.731,0,0,0-1,.4.454.454,0,0,0,0,.5,9.061,9.061,0,0,0,1.1,2.2c.5.6,1,1.2,1.6,1.8a13.3,13.3,0,0,0,1.9,1.4,9.172,9.172,0,0,0,2.3.9.921.921,0,0,0,1.1-.7,6.373,6.373,0,0,1-.2-.7Z" fill="#10294c"/><path d="M14.4,80.28h0a10.991,10.991,0,0,0,1.4-1.8,11.4,11.4,0,0,0,1-1.9,11.919,11.919,0,0,0,.8-2,14.191,14.191,0,0,0,.5-2.2h0a.773.773,0,0,0-.7-.8.9.9,0,0,0-.5.1,5.48,5.48,0,0,0-1.8,1.6,12.735,12.735,0,0,0-1.3,1.9,18.028,18.028,0,0,0-.8,2.1,6.522,6.522,0,0,0-.2,2.4c0,.1.1.3.1.4s.1.1.1.2h0A1.2,1.2,0,0,0,14.4,80.28Z" fill="#10294c"/><path d="M126.459,108.025h0a11.067,11.067,0,0,0-.4-2.246,11.5,11.5,0,0,0-.738-2.016,12.021,12.021,0,0,0-.946-1.935,14.221,14.221,0,0,0-1.3-1.847h0a.772.772,0,0,0-1.063-.018.9.9,0,0,0-.261.438,5.488,5.488,0,0,0-.022,2.408,12.783,12.783,0,0,0,.537,2.239,17.883,17.883,0,0,0,1.02,2,6.534,6.534,0,0,0,1.645,1.759c.074.067.29.127.364.194s.141-.007.215.06h0A1.2,1.2,0,0,0,126.459,108.025Z" fill="#10294c"/><path d="M54.5,176.18a1.387,1.387,0,0,0-1.9-.7,1.344,1.344,0,0,0-.7.6,14.763,14.763,0,0,0-1.2,2.9,15.438,15.438,0,0,0-.4,3c0,1,0,2,.1,3a8.507,8.507,0,0,0,.9,3.1,1,1,0,0,0,.4.5,1.156,1.156,0,0,0,1.6-.4h0a10.758,10.758,0,0,0,1.3-2.9,10.474,10.474,0,0,0,.5-3,15.038,15.038,0,0,0,0-3A7.79,7.79,0,0,0,54.5,176.18Z" fill="#f04e23"/><path d="M74.2,187.98a1.749,1.749,0,0,0-2.5.2h0a3.465,3.465,0,0,0-.8,1.6,4.193,4.193,0,0,0-.1,1.6,4.987,4.987,0,0,0,1.7,3,1.559,1.559,0,0,0,2.1-.2,5.071,5.071,0,0,0,.9-1.6,4.145,4.145,0,0,0,.2-1.6,4.013,4.013,0,0,0-.3-1.5C75,188.98,74.6,188.38,74.2,187.98Z" fill="#f04e23"/></g></g></g></g><g transform="translate(116.25 479.803) scale(1.204 1.207) rotate(0 68.16445182724252 99.91714995857497)"><g clip-path="url(#clipPath_0JnHPtv2Bw5RaT1TjdmW0)"><defs>
          <clipPath id="clipPath_0JnHPtv2Bw5RaT1TjdmW0">
            <rect x="0" y="0" width="136.3" height="199.755"/>
          </clipPath>
       </defs><title>pine_tree_5</title><g id="Layer_20JnHPtv2Bw5RaT1TjdmW0" data-name="Layer 2"><g id="pine_tree_50JnHPtv2Bw5RaT1TjdmW0"><path d="M80,181.08c-15.4-3.5-27-12-32.2-15.4a1.655,1.655,0,0,0-2,.1l-1,.7c-.1,1.4-.1,2.8-.2,4.1-.1,3.8-.3,7.2-.4,10.3s-.1,5.7-.2,7.9v.1a9.987,9.987,0,0,0,8.2,9.9,95.339,95.339,0,0,0,27.2,0,9.987,9.987,0,0,0,8.2-9.9v-.2c0-2.2-.1-4.9-.2-7.9q-.15-3.3-.3-7.2a54.36,54.36,0,0,1-5.6,6.9A1.361,1.361,0,0,1,80,181.08Z" fill="#fdb813"/><path d="M136.3,109.98c-6.7-25.7-15.6-45.9-24.7-61.6a1.726,1.726,0,0,1,.7-2.4,1.445,1.445,0,0,1,.7-.2h.1a1.67,1.67,0,0,0,1.5-2,.908.908,0,0,0-.3-.7C94.8,12.68,76.9,3.18,69.7.48a7.019,7.019,0,0,0-6.3.6c-9.7,5.6-41.1,27.2-59.8,78.2a1.857,1.857,0,0,0,1,2.3,2.769,2.769,0,0,0,.9.1c1.9-.3,4.6-.8,7.5-1.5h0a11.518,11.518,0,0,0,2.1-.6,4.349,4.349,0,0,1-.6.7h0a1.051,1.051,0,0,1-1.3,0c0,.1,0,.1-.1.2h0S.3,108.28,0,155.28a1.774,1.774,0,0,0,1.7,1.8h.2q6.45-.6,12.9-1.8a1.764,1.764,0,0,1,2,1.1c2.4,6.5,5.1,13.3,8.2,20.3a1.721,1.721,0,0,0,2.3.9.1.1,0,0,0,.1-.1,175.528,175.528,0,0,0,17.4-11l1-.7a1.822,1.822,0,0,1,2-.1c5.2,3.3,16.8,11.9,32.2,15.4a1.845,1.845,0,0,0,1.6-.5,60.367,60.367,0,0,0,5.6-6.9,102.045,102.045,0,0,0,6.3-10.6,1.709,1.709,0,0,1,2.3-.8c11.2,5.6,29.1,7.4,34.9,7.9a1.781,1.781,0,0,0,1.9-1.6v-.1a254.492,254.492,0,0,0-6-53.6h0c-.8-3.3.8-4.1,3-3.6h0q2.7.6,4.5.9a1.743,1.743,0,0,0,2.1-1.4A2.485,2.485,0,0,0,136.3,109.98Z" fill="rgb(240,78,35)"/><path d="M43.8,52.58c-.1.4-.1.8-.2,1.1a31.083,31.083,0,0,0,0,6.1v.1a.764.764,0,0,0,.2.5,1.443,1.443,0,0,0,2.1.6h0a22.606,22.606,0,0,0,2.6-1.6c.8-.6,1.7-1.2,2.4-1.8a21.835,21.835,0,0,0,2.2-2.1,12.029,12.029,0,0,0,1.8-2.6.8.8,0,0,0-.2-1,.744.744,0,0,0-.9.1h0c-.7.6-1.4,1.2-2.1,1.7a18.186,18.186,0,0,1-2.3,1.5c-.8.5-1.6,1-2.4,1.4l-.3.1v-.4a26.152,26.152,0,0,1,0-2.8v-2.9l.1-2.9v-.1a.9.9,0,0,0-.9-.9,1.02,1.02,0,0,0-.8.5c-.4.9-.7,1.9-1,2.8a33.851,33.851,0,0,1-7.6,1.9c-1.4.2-2.8.4-4.2.5l-1.7.2a12.2,12.2,0,0,1,.7-1.7c.6-1.3,1.1-2.6,1.8-3.9.6-1.3,1.3-2.5,1.9-3.8.7-1.3,1.4-2.5,2.1-3.7h0a.954.954,0,0,0-.3-1.2.92.92,0,0,0-1,.1,22.754,22.754,0,0,0-2.9,3.4,30.3,30.3,0,0,0-2.4,3.8,50.242,50.242,0,0,0-3.7,8.2h0a1.268,1.268,0,0,0-.1.6,1.649,1.649,0,0,0,1.7,1.5,31.159,31.159,0,0,0,4.4-.5c1.5-.2,2.9-.5,4.3-.8a29.245,29.245,0,0,0,4.2-1.3A3.334,3.334,0,0,0,43.8,52.58Z" fill="#10294c"/><path d="M114.3,138.78a29.915,29.915,0,0,0-1-4.3,15.047,15.047,0,0,0-1.8-4.1.67.67,0,0,0-.8-.3.608.608,0,0,0-.4.9h0a28.665,28.665,0,0,1,1.3,8.2c.1,1.4.1,2.8.1,4.2v1.7c-.6-.3-1.1-.5-1.6-.8-1.3-.7-2.5-1.4-3.7-2.1s-2.4-1.5-3.6-2.3-2.4-1.6-3.5-2.4h0a.83.83,0,0,0-1.2.2,1.083,1.083,0,0,0,0,1.1,24.958,24.958,0,0,0,3.2,3.3c1.1,1,2.3,1.9,3.5,2.8a30.3,30.3,0,0,0,3.8,2.4c1.3.7,2.7,1.4,4.1,2h0a1.268,1.268,0,0,0,.6.1,1.561,1.561,0,0,0,1.6-1.5h0c0-1.5,0-3-.1-4.4A21.852,21.852,0,0,0,114.3,138.78Z" fill="#10294c"/><path d="M78.4,37.38c.9.4,1.9.8,2.9,1.2,1,.3,2,.6,3,.8s2,.4,3,.5h.1a1.268,1.268,0,0,0,.6-.1,1.6,1.6,0,0,0,1.1-1.9h0c-.3-1-.6-1.9-1-2.9a22.447,22.447,0,0,0-1.3-2.7,22.606,22.606,0,0,0-1.6-2.6,11.5,11.5,0,0,0-2.1-2.3.608.608,0,0,0-.8,0,.751.751,0,0,0-.2,1h0c.5.8.9,1.6,1.3,2.4a20.035,20.035,0,0,1,1,2.6l.9,2.7c0,.1.1.2.1.3l-.4-.1a27.971,27.971,0,0,1-2.8-.6c-.9-.2-1.9-.4-2.8-.6l-2.8-.7h-.1a.832.832,0,0,0-1,.6.806.806,0,0,0,.3.9A9.34,9.34,0,0,0,78.4,37.38Z" fill="#10294c"/><path d="M87.987,79.826c.661.729,1.414,1.5,2.167,2.269.793.679,1.587,1.358,2.421,1.945s1.667,1.174,2.541,1.67l.092.041a1.287,1.287,0,0,0,.589.151,1.6,1.6,0,0,0,1.774-1.293h0c.13-1.036.22-1.981.258-3.057a29.291,29.291,0,0,0-.51-6.02,11.492,11.492,0,0,0-.991-2.953.607.607,0,0,0-.731-.323.752.752,0,0,0-.588.834h0c.134.933.177,1.827.219,2.72a20.026,20.026,0,0,1-.136,2.783q-.135,1.416-.269,2.833c-.04.092.011.223-.029.315l-.326-.253a28.149,28.149,0,0,1-2.318-1.681c-.743-.547-1.576-1.134-2.319-1.681l-2.278-1.772-.091-.041a.833.833,0,0,0-1.157.145.806.806,0,0,0-.09.944A9.362,9.362,0,0,0,87.987,79.826Z" fill="#10294c"/><path d="M26.4,136.88h0a17.969,17.969,0,0,1-2,1.9c-.7.6-1.5,1.1-2.2,1.7a18.824,18.824,0,0,1-2.3,1.6l-.3.2v-.4a26.352,26.352,0,0,1-.2-2.8c-.1-.9-.1-1.9-.2-2.9l-.1-2.9v-.1a.76.76,0,0,0-.6-.8.891.891,0,0,0-1.1.5h0c-.3,1-.6,2-.8,3a25.873,25.873,0,0,0,.2,9.2v.1a.764.764,0,0,0,.2.5,1.6,1.6,0,0,0,2.2.5h0a14.371,14.371,0,0,0,2.5-1.8,21.9,21.9,0,0,0,4.3-4.3,13.989,13.989,0,0,0,1.6-2.6.751.751,0,0,0-.4-.9,1.135,1.135,0,0,0-.8.3Z" fill="#10294c"/><path d="M65.284,102.371h0a17.914,17.914,0,0,1-.717,2.664c-.285.877-.708,1.72-.993,2.6a18.9,18.9,0,0,1-1.13,2.564l-.152.327-.208-.342a26.077,26.077,0,0,1-1.629-2.286c-.554-.716-1.075-1.57-1.682-2.371l-1.6-2.424-.052-.085a.761.761,0,0,0-.929-.37.89.89,0,0,0-.679,1h0c.265,1.01.53,2.02.88,2.978a25.849,25.849,0,0,0,4.962,7.749l.052.086a.761.761,0,0,0,.431.322,1.6,1.6,0,0,0,2.139-.719h0a14.389,14.389,0,0,0,1.2-2.838,21.954,21.954,0,0,0,1.431-5.911,13.969,13.969,0,0,0,.011-3.052.751.751,0,0,0-.81-.56,1.136,1.136,0,0,0-.527.672Z" fill="#10294c"/><path d="M57.62,95.286h0a18.062,18.062,0,0,1-.686,2.672c-.275.88-.687,1.728-.962,2.609a18.834,18.834,0,0,1-1.1,2.577l-.148.328-.212-.338a26.328,26.328,0,0,1-1.657-2.267c-.562-.709-1.093-1.557-1.709-2.351l-1.625-2.4-.053-.085a.759.759,0,0,0-.933-.359.891.891,0,0,0-.667,1.008h0c.277,1.006.554,2.013.916,2.966a25.876,25.876,0,0,0,5.054,7.69l.053.085a.767.767,0,0,0,.435.317,1.6,1.6,0,0,0,2.13-.744h0a14.38,14.38,0,0,0,1.163-2.853,21.871,21.871,0,0,0,1.36-5.927,13.964,13.964,0,0,0-.025-3.053.75.75,0,0,0-.817-.55,1.132,1.132,0,0,0-.518.679Z" fill="#10294c"/><path d="M74.92,150.073h0a17.817,17.817,0,0,1-.686,2.672c-.274.88-.686,1.729-.961,2.609a18.959,18.959,0,0,1-1.1,2.577l-.148.329-.213-.339a26.531,26.531,0,0,1-1.656-2.267c-.563-.709-1.094-1.557-1.709-2.351l-1.625-2.4-.053-.085a.76.76,0,0,0-.933-.359.89.89,0,0,0-.667,1.008h0c.277,1.006.554,2.013.915,2.967a25.855,25.855,0,0,0,5.055,7.689l.053.085a.761.761,0,0,0,.435.317,1.6,1.6,0,0,0,2.13-.744h0a14.377,14.377,0,0,0,1.162-2.853A21.922,21.922,0,0,0,76.281,153a14.027,14.027,0,0,0-.025-3.053.751.751,0,0,0-.817-.55,1.138,1.138,0,0,0-.519.679Z" fill="#10294c"/><path d="M45.7,164.38a8.467,8.467,0,0,0-1.4-1.9,11.37,11.37,0,0,0-1.6-1.5,20.278,20.278,0,0,0-1.8-1.3,12.81,12.81,0,0,0-2-1.1h0a.731.731,0,0,0-1,.4.454.454,0,0,0,0,.5,9.061,9.061,0,0,0,1.1,2.2c.5.6,1,1.2,1.6,1.8a13.3,13.3,0,0,0,1.9,1.4,9.172,9.172,0,0,0,2.3.9.921.921,0,0,0,1.1-.7,6.373,6.373,0,0,1-.2-.7Z" fill="#10294c"/><path d="M14.4,80.28h0a10.991,10.991,0,0,0,1.4-1.8,11.4,11.4,0,0,0,1-1.9,11.919,11.919,0,0,0,.8-2,14.191,14.191,0,0,0,.5-2.2h0a.773.773,0,0,0-.7-.8.9.9,0,0,0-.5.1,5.48,5.48,0,0,0-1.8,1.6,12.735,12.735,0,0,0-1.3,1.9,18.028,18.028,0,0,0-.8,2.1,6.522,6.522,0,0,0-.2,2.4c0,.1.1.3.1.4s.1.1.1.2h0A1.2,1.2,0,0,0,14.4,80.28Z" fill="#10294c"/><path d="M126.459,108.025h0a11.067,11.067,0,0,0-.4-2.246,11.5,11.5,0,0,0-.738-2.016,12.021,12.021,0,0,0-.946-1.935,14.221,14.221,0,0,0-1.3-1.847h0a.772.772,0,0,0-1.063-.018.9.9,0,0,0-.261.438,5.488,5.488,0,0,0-.022,2.408,12.783,12.783,0,0,0,.537,2.239,17.883,17.883,0,0,0,1.02,2,6.534,6.534,0,0,0,1.645,1.759c.074.067.29.127.364.194s.141-.007.215.06h0A1.2,1.2,0,0,0,126.459,108.025Z" fill="#10294c"/><path d="M54.5,176.18a1.387,1.387,0,0,0-1.9-.7,1.344,1.344,0,0,0-.7.6,14.763,14.763,0,0,0-1.2,2.9,15.438,15.438,0,0,0-.4,3c0,1,0,2,.1,3a8.507,8.507,0,0,0,.9,3.1,1,1,0,0,0,.4.5,1.156,1.156,0,0,0,1.6-.4h0a10.758,10.758,0,0,0,1.3-2.9,10.474,10.474,0,0,0,.5-3,15.038,15.038,0,0,0,0-3A7.79,7.79,0,0,0,54.5,176.18Z" fill="#f04e23"/><path d="M74.2,187.98a1.749,1.749,0,0,0-2.5.2h0a3.465,3.465,0,0,0-.8,1.6,4.193,4.193,0,0,0-.1,1.6,4.987,4.987,0,0,0,1.7,3,1.559,1.559,0,0,0,2.1-.2,5.071,5.071,0,0,0,.9-1.6,4.145,4.145,0,0,0,.2-1.6,4.013,4.013,0,0,0-.3-1.5C75,188.98,74.6,188.38,74.2,187.98Z" fill="#f04e23"/></g></g></g></g>
              </svg>