<?xml version="1.0" encoding="UTF-8"?><svg version="1.1" xmlns="http://www.w3.org/2000/svg" xmlns:xlink="http://www.w3.org/1999/xlink" viewBox="0 0 792 792" width="792" height="792" x="0px" y="0px">
                <g transform="translate(-12.967 177.775) scale(1.024 1.024) rotate(0 399.8828125 299.912109375)"><g clip-path="url(#clipPath_IT2nJKiX0v_2NHq8UXO2m)"><defs>
          <clipPath id="clipPath_IT2nJKiX0v_2NHq8UXO2m">
            <rect x="0" y="0" width="800" height="600"/>
          </clipPath>
       </defs> <path d="M797.707,600l2.128-80.876v-39.235c-2.099-1.563-7.028-5.118-10.339-6.568  c-33.672-14.747-75.668-10.778-111.338,0.526c-35.67,11.303-67.472,29.215-102.005,42.611c-3.287,1.276-7.065,2.53-10.47,1.472  c-5.792-1.799-5.703-8.811-2.038-12.843c3.665-4.032,9.483-6.491,13.359-10.394c8.818-8.88,4.57-22.875-5.693-30.685  s-24.698-10.818-38.602-12.834c-44.911-6.513-91.004-5.655-136.454-2.345c-131.098,9.551-261.7,36.724-377.009,87.807  C8.543,541.378,1.615,544.65,0,545.419V600H797.707z" fill="#E0EBFE"/> <path d="M799.835,600v-45.939c-46.528,12.225-106.192,26.678-155.839,34.346  c-50.022,7.726-102.349,9.253-150.12-7.475c-62.626-21.93-113.336-73.685-178.529-86.053c-33.575-6.369-68.206-1.617-101.808,4.605  C137.798,513.509,71.42,533.542,0,562v38C0,600,799.835,600,799.835,600z" fill="#D9E021"/> <path d="M800,392.369l-26.45,40.993c-0.19,0.233-0.403,0.478-0.575,0.737l-52.592,79.151  c-2.865,4.323-2.06,10.855,2.265,13.141h0.002c3.414,3.048,9.779,1.619,11.875-1.348l4.244-6.207  c2.865-4.322,8.518-5.399,12.843-2.351h0.002c4.326,2.286,5.87,8.532,3.005,12.855l-10.239,14.95  c-1.933,3.228-0.29,8.771,3.053,11.057h0.002c3.478,2.286,9.742,1.422,11.932-1.9l9.858-14.138c2.865-4.323,8.61-5.298,12.937-2.25  h0.001c4.326,2.286,5.77,8.303,2.905,12.625l-21.021,31.653l-0.426,0.579c-2.28,3.578-0.525,9.245,2.953,11.531h0.002  c4.326,3.048,10.206,1.685,13.07-2.637L800,560.257V392.369z" fill="#AFCCFC"/> <g>  <path d="M62.81,598.538c-0.112,0-0.225-0.006-0.339-0.019c-1.011-0.107-1.676-0.821-1.694-1.82   c-0.019-1.097,0.795-2.489,1.873-2.642c0.541-0.073,1.265,0.162,1.586,1.057c0.314-0.626,0.497-1.29,0.556-1.522   c19.706-77.738,83.817-189.062,106.005-220.259l1.74,1.237C150.415,405.672,86.498,516.65,66.862,594.115   C66.151,596.914,64.652,598.538,62.81,598.538z M63.174,596.089c-0.062,0.051-0.135,0.169-0.188,0.289   c0.464-0.099,0.837-0.528,1.122-1.026l-1.87,0.504c0.048,0.085,0.189,0.238,0.421,0.297   C62.909,596.219,63.113,596.138,63.174,596.089z" fill="#D9E021"/> </g> <g>  <path d="M96.105,598.878l-2.103-0.363c14.622-84.796,14.671-170.792,0.144-255.599l2.104-0.36   C110.818,427.603,110.769,513.843,96.105,598.878z" fill="#D9E021"/> </g> <g>  <path d="M670.327,599.23c-22.992-41.132-46.863-82.533-70.951-123.052   c-5.691-9.573-13.125-18.075-22.726-25.991l2.036-2.47c9.891,8.154,17.559,16.928,23.441,26.824   c22.783,38.322,45.372,77.431,67.205,116.358l0.428-0.206l3.407,7.061L670.327,599.23z" fill="#D9E021"/> </g> <g>  <path d="M694.538,590.954c-0.459,0-0.925-0.138-1.35-0.416c-0.881-0.573-1.629-1.808-1.282-2.966   c0.213-0.709,0.785-1.211,1.516-1.363c-13.375-29.873-34.104-56.285-54.152-81.827c-2.135-2.72-4.269-5.439-6.392-8.159l2.524-1.97   c2.121,2.718,4.253,5.434,6.386,8.152c20.219,25.761,41.127,52.399,54.66,82.728c1.309,2.934,0.488,4.485-0.431,5.27   C695.588,590.768,695.068,590.954,694.538,590.954z M693.903,587.57l-0.008,1.791c0.329,0.027,0.737-0.196,0.976-0.632   c0.223-0.405,0.144-0.774,0.091-0.856c-0.119-0.123-0.649-0.228-1.023,0.091c-0.001,0.002-0.002,0.003-0.002,0.003   C693.929,587.969,693.953,587.85,693.903,587.57z" fill="#D9E021"/> </g> <g>  <path d="M759.381,587.349c-16.736-23.948-42.005-43.366-64.298-60.498   c-4.923-3.783-9.572-7.356-14.135-10.968l1.987-2.509c4.546,3.597,9.187,7.163,14.1,10.939   c22.477,17.273,47.952,36.851,64.971,61.202L759.381,587.349z" fill="#D9E021"/> </g> <g style="opacity:0.27;">  <polygon points="485.556,500.86 477.525,492.829 477.525,597.444 485.556,597.444  " fill="none"/>  <polygon points="574.293,597.444 574.293,589.596 564.72,580.023 564.72,597.444  " fill="none"/>  <polygon points="538.798,597.444 538.798,554.101 529.225,544.529 529.225,597.444  " fill="none"/>  <polygon points="556.546,597.444 556.546,571.849 546.972,562.275 546.972,597.444  " fill="none"/>  <polygon points="503.303,597.444 503.303,518.607 493.73,509.033 493.73,597.444  " fill="none"/>  <polygon points="521.051,597.444 521.051,536.355 511.477,526.781 511.477,597.444  " fill="none"/>  <polygon points="582.14,597.444 574.293,589.596 574.293,597.444  " fill="#D9E021"/>  <polygon points="564.72,597.444 564.72,580.023 556.546,571.849 556.546,597.444  " fill="#D9E021"/>  <polygon points="546.972,597.444 546.972,562.275 538.798,554.101 538.798,597.444  " fill="#D9E021"/>  <polygon points="529.225,597.444 529.225,544.529 521.051,536.355 521.051,597.444  " fill="#D9E021"/>  <polygon points="511.477,597.444 511.477,526.781 503.303,518.607 503.303,597.444  " fill="#D9E021"/>  <polygon points="493.73,597.444 493.73,509.033 485.556,500.86 485.556,597.444  " fill="#D9E021"/> </g> <path id="texture-2_12_IT2nJKiX0v_2NHq8UXO2m" d="M285.141,440.51c-0.151-0.628-0.792-1.009-1.418-0.857  c-0.628,0.151-1.009,0.792-0.856,1.42c0.151,0.628,0.792,1.009,1.418,0.857l0,0C284.913,441.777,285.3,441.144,285.141,440.51  L285.141,440.51z M212.497,344.798c0.346-0.566,0.166-1.305-0.4-1.649l0,0c-0.507-0.331-1.187-0.188-1.517,0.318  c-0.029,0.039-0.056,0.088-0.073,0.136c-0.344,0.536-0.192,1.244,0.341,1.595C211.412,345.53,212.152,345.361,212.497,344.798  L212.497,344.798L212.497,344.798z M246.171,395.638c0.496-0.431,0.594-1.164,0.229-1.71c-0.402-0.535-1.171-0.64-1.71-0.229  c-0.535,0.402-0.64,1.171-0.229,1.71C244.897,395.9,245.624,396.003,246.171,395.638z M395.392,348.6  c1.026-0.696,1.308-2.086,0.632-3.129c-0.616-1.027-1.945-1.362-2.968-0.753c-0.037,0.023-0.07,0.039-0.1,0.065  c-1.026,0.696-1.308,2.086-0.632,3.129C392.977,348.947,394.354,349.259,395.392,348.6L395.392,348.6z M349.841,378.238  c1.033-0.704,1.293-2.107,0.586-3.135c-0.689-1.011-2.061-1.29-3.086-0.622c-1.039,0.658-1.346,2.029-0.687,3.068l0,0  C347.384,378.576,348.77,378.872,349.841,378.238z M304.186,407.881c1.033-0.663,1.333-2.026,0.671-3.059  c-0.014-0.02-0.029-0.041-0.043-0.062c-0.616-1.027-1.945-1.362-2.968-0.753c-0.037,0.023-0.07,0.039-0.1,0.065  c-1.025,0.719-1.324,2.106-0.688,3.188C301.755,408.276,303.146,408.557,304.186,407.881z M415.224,463.142  c-0.263-1.205-1.45-1.968-2.659-1.699c-1.204,0.261-1.967,1.451-1.699,2.659c0.259,1.18,1.411,1.939,2.598,1.713  C414.673,465.547,415.454,464.362,415.224,463.142L415.224,463.142z M361.737,473.087c-0.263-1.205-1.45-1.968-2.659-1.699  c-1.204,0.261-1.967,1.451-1.699,2.659c0.259,1.18,1.411,1.939,2.598,1.713C361.182,475.498,361.967,474.306,361.737,473.087  L361.737,473.087z M302.904,289.376c0.68-1.039,0.409-2.432-0.626-3.129c-0.994-0.698-2.361-0.448-3.059,0.546  c-0.005,0.006-0.009,0.012-0.014,0.018c-0.735,0.938-0.567,2.291,0.37,3.027c0.045,0.034,0.089,0.067,0.142,0.107  C300.769,290.608,302.148,290.367,302.904,289.376z M272.073,334.229c0.668-1.048,0.421-2.432-0.564-3.184  c-1.039-0.68-2.435-0.402-3.129,0.626c-0.696,1.018-0.436,2.412,0.582,3.105c0.012,0.009,0.026,0.02,0.033,0.024  c0.994,0.698,2.361,0.448,3.054-0.54C272.064,334.241,272.068,334.235,272.073,334.229z M241.301,379.017  c0.697-0.965,0.49-2.311-0.475-3.005c-0.026-0.02-0.057-0.043-0.088-0.056c-0.989-0.735-2.388-0.519-3.122,0.47  c-0.024,0.033-0.044,0.059-0.067,0.089c-0.699,1.035-0.424,2.439,0.602,3.133c1.035,0.699,2.439,0.424,3.133-0.602  C241.292,379.03,241.296,379.023,241.301,379.017z M423.578,515.827c-0.102-1.094-1.063-1.906-2.16-1.826  c-1.096,0.091-1.914,1.058-1.826,2.16c0.087,1.102,1.058,1.914,2.16,1.826l0,0C422.846,517.882,423.659,516.924,423.578,515.827z   M328.566,336.171c0.69-0.892,0.568-2.16-0.283-2.902c-0.816-0.694-2.038-0.596-2.733,0.219c-0.02,0.026-0.034,0.045-0.053,0.071  c-0.728,0.832-0.64,2.096,0.197,2.815c0.012,0.009,0.018,0.014,0.033,0.024C326.579,337.072,327.819,336.979,328.566,336.171  L328.566,336.171z M297.399,373.282c0.69-0.85,0.56-2.096-0.28-2.788c-0.816-0.694-2.038-0.596-2.733,0.219  c-0.02,0.026-0.034,0.045-0.053,0.071c-0.728,0.832-0.64,2.096,0.19,2.822c0.012,0.009,0.018,0.014,0.033,0.024  C295.439,374.293,296.699,374.145,297.399,373.282L297.399,373.282z M266.181,410.565c0.728-0.832,0.64-2.096-0.19-2.822  c-0.012-0.009-0.018-0.014-0.033-0.024c-0.772-0.702-1.969-0.636-2.67,0.136c-0.044,0.046-0.084,0.098-0.122,0.149  c-0.728,0.832-0.64,2.096,0.19,2.822c0.012,0.009,0.018,0.014,0.033,0.024C264.246,411.506,265.475,411.385,266.181,410.565  L266.181,410.565z M373.618,432.6c0.962-0.544,1.321-1.756,0.797-2.732c-0.506-0.975-1.697-1.356-2.671-0.853  c-0.972,0.527-1.376,1.723-0.914,2.726C371.368,432.738,372.604,433.115,373.618,432.6L373.618,432.6z M330.522,455.014  c0.959-0.458,1.371-1.606,0.913-2.565c-0.017-0.032-0.037-0.069-0.05-0.107c-0.506-0.975-1.697-1.356-2.671-0.853  c-0.972,0.527-1.376,1.723-0.914,2.726C328.332,455.179,329.544,455.537,330.522,455.014L330.522,455.014z M233.134,310.909  c0.336-0.996-0.194-2.07-1.186-2.412c-0.042-0.012-0.078-0.03-0.114-0.035c-1.039-0.359-2.18,0.194-2.542,1.237  c-0.008,0.023-0.017,0.048-0.02,0.065c-0.286,1.063,0.312,2.167,1.365,2.508c1.035,0.336,2.144-0.239,2.48-1.275  C233.121,310.97,233.122,310.939,233.134,310.909L233.134,310.909z M218.567,357.257c0.327-1.064-0.248-2.201-1.305-2.562  c-1.077-0.309-2.208,0.312-2.515,1.391c-0.298,1.025,0.258,2.107,1.263,2.47c1.023,0.367,2.16-0.167,2.527-1.191  C218.548,357.335,218.561,357.293,218.567,357.257L218.567,357.257z M465.312,485.56c1.103-0.651,1.51-2.045,0.917-3.187  c-0.602-1.127-1.996-1.563-3.125-0.972c-1.117,0.64-1.526,2.053-0.917,3.187C462.789,485.715,464.183,486.151,465.312,485.56  L465.312,485.56z M415.843,511.948c1.133-0.597,1.563-1.996,0.972-3.125c-0.591-1.129-1.996-1.563-3.125-0.972  c-1.133,0.597-1.563,1.996-0.972,3.125C413.316,512.11,414.715,512.539,415.843,511.948L415.843,511.948z M284.023,334.471  c0.34-1.254-0.355-2.553-1.591-2.958c-1.248-0.335-2.534,0.41-2.863,1.663c-0.323,1.206,0.363,2.448,1.548,2.827  C282.339,336.346,283.619,335.676,284.023,334.471L284.023,334.471z M267.743,388.099c0.344-1.221-0.325-2.5-1.531-2.903  c-1.225-0.379-2.525,0.306-2.903,1.531c-0.379,1.225,0.306,2.525,1.531,2.903C266.061,389.986,267.349,389.303,267.743,388.099  L267.743,388.099z M376.028,414.85c0.757-1.02,0.607-2.453-0.334-3.302c-1.012-0.771-2.451-0.595-3.247,0.395  c-0.819,0.954-0.714,2.393,0.248,3.216c0.012,0.009,0.026,0.02,0.039,0.029C373.728,416.009,375.2,415.858,376.028,414.85  C376.023,414.856,376.028,414.85,376.028,414.85L376.028,414.85z M340.42,458.212c0.818-1.006,0.668-2.479-0.328-3.298  c0,0,0,0-0.006-0.005c-0.968-0.789-2.4-0.639-3.181,0.334l0,0c-0.809,0.981-0.674,2.433,0.303,3.238  C338.164,459.296,339.6,459.166,340.42,458.212L340.42,458.212z M410.877,431.105c0.816-0.966,0.692-2.419-0.28-3.24  c-0.972-0.824-2.419-0.692-3.242,0.279c-0.792,0.946-0.702,2.352,0.213,3.181C408.553,432.175,410.026,432.076,410.877,431.105  L410.877,431.105z M373.682,472.762c0.845-0.975,0.746-2.449-0.225-3.3c-0.952-0.808-2.38-0.732-3.245,0.165  c-0.836,0.992-0.761,2.457,0.164,3.356C371.364,473.807,372.815,473.699,373.682,472.762L373.682,472.762z M299.02,397.579  c0.395-1.222-0.261-2.542-1.476-2.963c-1.195-0.406-2.496,0.226-2.902,1.42c-0.457,1.157,0.107,2.467,1.263,2.925  c0.031,0.014,0.06,0.026,0.097,0.032c1.196,0.458,2.537-0.145,2.987-1.347C299.005,397.628,299.012,397.605,299.02,397.579  L299.02,397.579z" fill="#A1C3FC"/> <path id="texture-2_11_IT2nJKiX0v_2NHq8UXO2m" d="M23.763,351.41c-0.151-0.628-0.792-1.009-1.418-0.857  c-0.628,0.151-1.009,0.792-0.856,1.42c0.151,0.628,0.792,1.009,1.418,0.857l0,0C23.533,352.678,23.92,352.044,23.763,351.41  L23.763,351.41z M134.013,259.5c1.026-0.696,1.308-2.086,0.632-3.129c-0.616-1.027-1.945-1.362-2.968-0.753  c-0.037,0.023-0.07,0.039-0.1,0.065c-1.026,0.696-1.308,2.086-0.632,3.129C131.598,259.848,132.976,260.16,134.013,259.5  L134.013,259.5z M88.462,289.139c1.033-0.704,1.293-2.107,0.586-3.135c-0.689-1.011-2.061-1.29-3.086-0.622  c-1.039,0.658-1.346,2.029-0.687,3.068l0,0C86.005,289.476,87.391,289.773,88.462,289.139z M42.807,318.781  c1.032-0.663,1.333-2.026,0.671-3.059c-0.014-0.02-0.029-0.041-0.043-0.062c-0.616-1.027-1.945-1.362-2.968-0.753  c-0.037,0.023-0.07,0.039-0.1,0.065c-1.025,0.719-1.324,2.106-0.688,3.188C40.376,319.177,41.767,319.457,42.807,318.781z   M153.845,374.044c-0.263-1.205-1.45-1.968-2.659-1.699c-1.204,0.261-1.967,1.451-1.699,2.659c0.259,1.18,1.411,1.939,2.598,1.713  C153.294,376.448,154.075,375.263,153.845,374.044L153.845,374.044z M100.358,383.988c-0.263-1.205-1.45-1.968-2.659-1.699  c-1.204,0.261-1.966,1.451-1.699,2.659c0.259,1.18,1.411,1.939,2.598,1.713C99.803,386.398,100.588,385.207,100.358,383.988  L100.358,383.988z M41.526,200.276c0.68-1.039,0.409-2.432-0.626-3.129c-0.994-0.698-2.361-0.448-3.059,0.546  c-0.005,0.006-0.009,0.012-0.014,0.018c-0.735,0.938-0.567,2.291,0.37,3.027c0.045,0.034,0.089,0.067,0.142,0.107  C39.39,201.508,40.769,201.268,41.526,200.276z M10.695,245.13c0.668-1.048,0.421-2.432-0.564-3.184  c-1.039-0.68-2.435-0.402-3.129,0.626c-0.696,1.018-0.436,2.412,0.582,3.105c0.012,0.009,0.026,0.02,0.033,0.024  c0.994,0.698,2.361,0.448,3.054-0.54C10.685,245.142,10.69,245.136,10.695,245.13z M162.2,426.728  c-0.102-1.094-1.063-1.906-2.16-1.826c-1.096,0.091-1.914,1.058-1.827,2.16c0.087,1.102,1.058,1.914,2.16,1.826l0,0  C161.467,428.783,162.28,427.824,162.2,426.728z M67.187,247.072c0.69-0.892,0.568-2.16-0.283-2.902  c-0.816-0.694-2.038-0.596-2.733,0.219c-0.02,0.026-0.034,0.045-0.053,0.071c-0.728,0.832-0.64,2.096,0.197,2.815  c0.012,0.009,0.018,0.014,0.033,0.024C65.2,247.973,66.44,247.879,67.187,247.072L67.187,247.072z M36.019,284.183  c0.69-0.85,0.56-2.096-0.28-2.788c-0.816-0.694-2.038-0.596-2.733,0.219c-0.02,0.026-0.034,0.045-0.053,0.071  c-0.728,0.832-0.64,2.096,0.19,2.822c0.012,0.009,0.018,0.014,0.033,0.024C34.06,285.195,35.32,285.045,36.019,284.183  L36.019,284.183z M4.802,321.466c0.728-0.832,0.64-2.096-0.19-2.822c-0.012-0.009-0.018-0.014-0.033-0.024  c-0.772-0.702-1.969-0.636-2.67,0.136c-0.044,0.047-0.084,0.098-0.122,0.149c-0.728,0.832-0.64,2.096,0.19,2.822  c0.012,0.009,0.018,0.014,0.033,0.024C2.867,322.406,4.096,322.285,4.802,321.466L4.802,321.466z M112.238,343.501  c0.962-0.544,1.321-1.756,0.797-2.732c-0.506-0.975-1.697-1.356-2.671-0.853c-0.972,0.527-1.376,1.723-0.914,2.726  C109.989,343.639,111.225,344.016,112.238,343.501L112.238,343.501z M69.143,365.915c0.959-0.458,1.371-1.606,0.913-2.565  c-0.017-0.032-0.037-0.069-0.05-0.107c-0.506-0.975-1.697-1.356-2.671-0.853c-0.972,0.527-1.376,1.723-0.914,2.726  C66.954,366.079,68.165,366.438,69.143,365.915L69.143,365.915z M203.933,396.461c1.103-0.651,1.51-2.045,0.917-3.187  c-0.602-1.127-1.996-1.563-3.125-0.972c-1.117,0.64-1.526,2.053-0.917,3.187C201.41,396.615,202.804,397.051,203.933,396.461  L203.933,396.461z M154.464,422.848c1.133-0.597,1.563-1.996,0.972-3.125c-0.591-1.129-1.996-1.563-3.125-0.972  c-1.133,0.597-1.563,1.996-0.972,3.125C151.937,423.01,153.336,423.44,154.464,422.848L154.464,422.848z M22.645,245.371  c0.34-1.254-0.355-2.553-1.591-2.958c-1.248-0.335-2.534,0.41-2.863,1.663c-0.323,1.206,0.363,2.448,1.548,2.827  C20.96,247.247,22.24,246.577,22.645,245.371L22.645,245.371z M6.364,299c0.344-1.221-0.325-2.5-1.531-2.903  c-1.225-0.379-2.525,0.306-2.903,1.531c-0.379,1.225,0.306,2.525,1.531,2.903C4.682,300.886,5.97,300.203,6.364,299L6.364,299z   M114.649,325.751c0.757-1.02,0.607-2.453-0.334-3.302c-1.012-0.771-2.451-0.595-3.247,0.396c-0.819,0.954-0.714,2.393,0.248,3.216  c0.012,0.009,0.026,0.02,0.039,0.029C112.35,326.91,113.821,326.758,114.649,325.751  C114.645,325.757,114.649,325.751,114.649,325.751L114.649,325.751z M79.041,369.113c0.818-1.006,0.668-2.48-0.328-3.298  c0,0,0,0-0.006-0.005c-0.968-0.789-2.4-0.639-3.181,0.334l0,0c-0.808,0.981-0.674,2.433,0.303,3.238  C76.785,370.197,78.222,370.067,79.041,369.113L79.041,369.113z M149.498,342.006c0.816-0.966,0.692-2.419-0.28-3.24  c-0.972-0.824-2.419-0.692-3.242,0.279c-0.792,0.946-0.702,2.352,0.213,3.181C147.173,343.076,148.646,342.977,149.498,342.006  L149.498,342.006z M112.303,383.663c0.845-0.975,0.746-2.449-0.225-3.3c-0.952-0.808-2.38-0.732-3.245,0.165  c-0.836,0.992-0.761,2.457,0.164,3.356C109.986,384.707,111.436,384.6,112.303,383.663L112.303,383.663z M37.641,308.479  c0.395-1.222-0.261-2.543-1.476-2.963c-1.195-0.406-2.496,0.226-2.902,1.42c-0.457,1.157,0.107,2.467,1.263,2.925  c0.031,0.014,0.06,0.026,0.097,0.032c1.196,0.458,2.537-0.145,2.987-1.347C37.626,308.529,37.634,308.505,37.641,308.479  L37.641,308.479z" fill="#A1C3FC"/> <g style="opacity:0.26;">  <polygon points="211.716,598.511 211.716,464.99 195.502,448.775 195.502,598.511  " fill="none"/>  <polygon points="241.774,598.511 241.774,495.047 225.559,478.833 225.559,598.511  " fill="none"/>  <polygon points="301.889,598.511 301.889,555.163 285.675,538.948 285.675,598.511  " fill="none"/>  <polygon points="181.658,434.932 168.057,421.331 168.057,598.511 181.658,598.511  " fill="none"/>  <polygon points="331.947,598.511 331.947,585.22 315.733,569.007 315.733,598.511  " fill="none"/>  <polygon points="271.831,598.511 271.831,525.105 255.617,508.891 255.617,598.511  " fill="none"/>  <polygon points="345.238,598.511 331.947,585.22 331.947,598.511  " fill="#FFFFFF"/>  <polygon points="315.733,598.511 315.733,569.007 301.889,555.163 301.889,598.511  " fill="#FFFFFF"/>  <polygon points="285.675,598.511 285.675,538.948 271.831,525.105 271.831,598.511  " fill="#FFFFFF"/>  <polygon points="255.617,598.511 255.617,508.891 241.774,495.047 241.774,598.511  " fill="#FFFFFF"/>  <polygon points="225.559,598.511 225.559,478.833 211.716,464.99 211.716,598.511  " fill="#FFFFFF"/>  <polygon points="195.502,598.511 195.502,448.775 181.658,434.932 181.658,598.511  " fill="#FFFFFF"/> </g> <g style="opacity:0.26;">  <polygon points="321.211,526.942 381.241,586.972 387.742,580.472 334.212,526.942  " fill="none"/>  <polygon points="393.513,526.942 417.392,550.821 423.893,544.32 406.514,526.942  " fill="none"/>  <polygon points="369.413,526.942 405.342,562.871 411.843,556.371 382.413,526.942  " fill="none"/>  <polygon points="299.206,526.942 370.239,597.975 375.692,592.523 310.111,526.942  " fill="none"/>  <polygon points="417.614,526.942 429.443,538.771 435.943,532.27 430.615,526.942  " fill="none"/>  <polygon points="345.312,526.942 393.291,574.922 399.792,568.422 358.313,526.942  " fill="none"/>  <polygon points="435.943,532.27 441.272,526.942 430.615,526.942  " fill="#FFFFFF"/>  <polygon points="406.514,526.942 423.893,544.32 429.443,538.771 417.614,526.942  " fill="#FFFFFF"/>  <polygon points="382.413,526.942 411.843,556.371 417.392,550.821 393.513,526.942  " fill="#FFFFFF"/>  <polygon points="358.313,526.942 399.792,568.422 405.342,562.871 369.413,526.942  " fill="#FFFFFF"/>  <polygon points="334.212,526.942 387.742,580.472 393.291,574.922 345.312,526.942  " fill="#FFFFFF"/>  <polygon points="310.111,526.942 375.692,592.523 381.241,586.972 321.211,526.942  " fill="#FFFFFF"/> </g> <g>  <path d="M66.916,375.481l-14.734-10.134   C55.113,369.315,60.254,372.801,66.916,375.481z" fill="#D9E021"/>  <path d="M49.648,359.818l27.36,18.82   c1.293,0.306,2.618,0.586,3.972,0.84l-31.54-21.696C49.447,358.468,49.518,359.147,49.648,359.818z" fill="#D9E021"/>  <path d="M49.942,354.341l38.052,26.175   c1.052,0.117,2.115,0.217,3.191,0.302l-40.68-27.983C50.283,353.332,50.096,353.834,49.942,354.341z" fill="#D9E021"/>  <path d="M52.08,350.133l45.048,30.987   c0.817,0.018,1.638,0.028,2.465,0.028c0.109,0,0.216-0.002,0.325-0.002l-46.866-32.238   C52.705,349.312,52.379,349.719,52.08,350.133z" fill="#D9E021"/>  <path d="M55.289,346.661l49.922,34.34   c0.846-0.044,1.685-0.098,2.517-0.162l-51.191-35.213C56.102,345.966,55.686,346.311,55.289,346.661z" fill="#D9E021"/>  <path d="M59.261,343.715l53.27,36.643   c0.773-0.096,1.538-0.201,2.296-0.314l-54.098-37.213C60.226,343.121,59.736,343.415,59.261,343.715z" fill="#D9E021"/>  <path d="M63.859,341.199l55.363,38.082   c0.709-0.142,1.411-0.29,2.104-0.446l-55.808-38.389C64.953,340.692,64.4,340.943,63.859,341.199z" fill="#D9E021"/>  <path d="M69.011,339.064l56.339,38.754   c0.652-0.183,1.293-0.373,1.925-0.569l-56.43-38.817C70.223,338.638,69.612,338.848,69.011,339.064z" fill="#D9E021"/>  <path d="M74.687,337.29l56.265,38.703   c0.595-0.223,1.179-0.453,1.751-0.688l-56.006-38.526C76.017,336.942,75.347,337.113,74.687,337.29z" fill="#D9E021"/>  <path d="M80.895,335.882l55.131,37.923   c0.536-0.265,1.06-0.536,1.57-0.813l-54.508-37.495C82.349,335.618,81.618,335.746,80.895,335.882z" fill="#D9E021"/>  <path d="M87.671,334.864l52.869,36.368   c0.472-0.312,0.928-0.629,1.368-0.952l-51.841-35.66C89.262,334.692,88.463,334.774,87.671,334.864z" fill="#D9E021"/>  <path d="M95.092,334.29l49.321,33.926   c0.395-0.367,0.77-0.741,1.125-1.119l-47.807-32.885C96.845,334.228,95.966,334.254,95.092,334.29z" fill="#D9E021"/>  <path d="M103.302,334.259l44.189,30.397   c0.294-0.443,0.558-0.892,0.796-1.345l-42.026-28.908C105.284,334.341,104.298,334.293,103.302,334.259z" fill="#D9E021"/>  <path d="M112.632,334.998l36.798,25.313   c0.134-0.562,0.226-1.131,0.274-1.705L116.114,335.5C114.972,335.314,113.81,335.146,112.632,334.998z" fill="#D9E021"/>  <path d="M128.908,338.622c-1.555-0.526-3.178-1.01-4.861-1.45   l25.255,17.373c-0.255-0.896-0.616-1.775-1.081-2.637L128.908,338.622z" fill="#D9E021"/> </g> <g>  <path d="M512.03,498.682l-22.935-15.776   C493.659,489.082,501.66,494.508,512.03,498.682z" fill="#FFFFFF"/>  <path d="M485.151,474.299l42.591,29.297   c2.013,0.476,4.076,0.913,6.184,1.307l-49.098-33.773C484.839,472.197,484.949,473.254,485.151,474.299z" fill="#FFFFFF"/>  <path d="M485.609,465.774l59.234,40.746   c1.636,0.181,3.293,0.338,4.967,0.47l-63.325-43.56C486.139,464.202,485.848,464.984,485.609,465.774z" fill="#FFFFFF"/>  <path d="M488.936,459.223l70.124,48.236   c1.272,0.029,2.55,0.044,3.837,0.044c0.169,0,0.338-0.002,0.507-0.003l-72.955-50.184   C489.91,457.943,489.402,458.579,488.936,459.223z" fill="#FFFFFF"/>  <path d="M493.931,453.818l77.712,53.456   c1.316-0.069,2.622-0.152,3.918-0.251l-79.687-54.815C495.197,452.736,494.55,453.273,493.931,453.818z" fill="#FFFFFF"/>  <path d="M500.115,449.232l82.923,57.041   c1.203-0.15,2.394-0.312,3.574-0.488L502.4,447.858C501.616,448.307,500.854,448.765,500.115,449.232z" fill="#FFFFFF"/>  <path d="M507.273,445.316l86.181,59.281   c1.105-0.22,2.197-0.451,3.274-0.694l-86.874-59.758C508.975,444.526,508.114,444.917,507.273,445.316z" fill="#FFFFFF"/>  <path d="M515.292,441.993l87.701,60.327   c1.014-0.285,2.012-0.58,2.996-0.885l-87.842-60.424C517.179,441.327,516.227,441.656,515.292,441.993z" fill="#FFFFFF"/>  <path d="M524.127,439.23l87.585,60.248   c0.926-0.347,1.835-0.705,2.726-1.071l-87.183-59.971C526.198,438.689,525.156,438.955,524.127,439.23z" fill="#FFFFFF"/>  <path d="M533.792,437.039l85.82,59.033   c0.835-0.413,1.651-0.834,2.444-1.266l-84.851-58.366C536.055,436.627,534.918,436.827,533.792,437.039z" fill="#FFFFFF"/>  <path d="M544.34,435.454l82.299,56.611   c0.735-0.485,1.445-0.98,2.129-1.482l-80.697-55.51C546.815,435.187,545.572,435.313,544.34,435.454z" fill="#FFFFFF"/>  <path d="M555.891,434.56l76.775,52.812   c0.616-0.572,1.199-1.153,1.751-1.742l-74.418-51.191C558.622,434.463,557.252,434.504,555.891,434.56z" fill="#FFFFFF"/>  <path d="M568.672,434.512l68.787,47.317   c0.458-0.689,0.868-1.388,1.24-2.094l-65.42-45.001C571.757,434.64,570.221,434.565,568.672,434.512z" fill="#FFFFFF"/>  <path d="M583.196,435.663l57.283,39.403   c0.21-0.876,0.352-1.76,0.427-2.653l-52.289-35.968C586.837,436.154,585.03,435.893,583.196,435.663z" fill="#FFFFFF"/>  <path d="M608.533,441.305c-2.422-0.818-4.948-1.572-7.566-2.258   l39.314,27.043c-0.396-1.394-0.96-2.764-1.682-4.104L608.533,441.305z" fill="#FFFFFF"/> </g> <g>  <path d="M112.829,444.819l27.624,19.002c0.764-0.114,1.513-0.244,2.244-0.389l-28.27-19.446   C113.867,444.251,113.333,444.529,112.829,444.819z" fill="none"/>  <path d="M107.063,452.397c0,0.019,0.002,0.037,0.002,0.056l16.105,11.079c1.154,0.216,2.351,0.394,3.581,0.53   l-19.431-13.366C107.152,451.252,107.063,451.819,107.063,452.397z" fill="none"/>  <path d="M115.273,443.601l28.498,19.603c0.704-0.159,1.389-0.332,2.055-0.52l-28.769-19.79   C116.44,443.118,115.845,443.354,115.273,443.601z" fill="none"/>  <path d="M108.464,456.316l7.523,5.175c1.565,0.629,3.294,1.172,5.154,1.612l-13.971-9.61   C107.36,454.473,107.801,455.418,108.464,456.316z" fill="none"/>  <path d="M107.608,449.927l20.773,14.289c0.994,0.078,2.006,0.131,3.034,0.154l-23.003-15.824   C108.087,448.995,107.819,449.456,107.608,449.927z" fill="none"/>  <path d="M110.688,446.246l26.14,17.981c0.832-0.063,1.65-0.146,2.453-0.246l-27.202-18.711   C111.582,445.584,111.118,445.909,110.688,446.246z" fill="none"/>  <path d="M108.908,447.922l23.932,16.462c0.913-0.003,1.814-0.028,2.702-0.074l-25.492-17.536   C109.629,447.146,109.247,447.528,108.908,447.922z" fill="none"/>  <path d="M120.981,441.728l28.599,19.672c0.591-0.243,1.157-0.498,1.697-0.766l-28.152-19.365   C122.394,441.407,121.679,441.561,120.981,441.728z" fill="none"/>  <path d="M124.246,441.074l27.834,19.146c0.53-0.288,1.033-0.588,1.503-0.899l-26.997-18.57   C125.791,440.841,125.01,440.949,124.246,441.074z" fill="none"/>  <path d="M141.11,441.075l17.152,11.799c0.013-0.159,0.022-0.317,0.022-0.477c0-0.542-0.078-1.074-0.227-1.597   l-12.897-8.871C143.875,441.592,142.521,441.305,141.11,441.075z" fill="none"/>  <path d="M127.81,440.626l26.472,18.209c0.463-0.34,0.89-0.691,1.279-1.053l-25.185-17.324   C129.507,440.493,128.651,440.549,127.81,440.626z" fill="none"/>  <path d="M132.673,440.408c-0.319,0-0.635,0.004-0.95,0.009l24.412,16.792c0.379-0.405,0.714-0.821,0.997-1.247   l-22.565-15.522C133.943,440.42,133.311,440.408,132.673,440.408z" fill="none"/>  <path d="M147.644,442.669l9.862,6.784C156.012,446.682,152.455,444.295,147.644,442.669z" fill="none"/>  <path d="M117.994,442.573l28.815,19.822c0.647-0.201,1.273-0.415,1.878-0.642l-28.731-19.763   C119.282,442.169,118.628,442.365,117.994,442.573z" fill="none"/>  <path d="M136.08,440.514l21.46,14.762c0.263-0.499,0.459-1.01,0.584-1.532l-18.791-12.926   C138.273,440.686,137.188,440.583,136.08,440.514z" fill="none"/>  <path d="M115.987,461.491l-7.523-5.175   C109.961,458.342,112.586,460.122,115.987,461.491z" fill="#A1C3FC"/>  <path d="M107.17,453.493l13.971,9.61   c0.661,0.156,1.337,0.299,2.028,0.429l-16.105-11.079C107.067,452.803,107.104,453.15,107.17,453.493z" fill="#A1C3FC"/>  <path d="M107.32,450.696l19.431,13.366   c0.536,0.059,1.081,0.111,1.629,0.154l-20.773-14.289C107.494,450.18,107.399,450.437,107.32,450.696z" fill="#A1C3FC"/>  <path d="M108.412,448.547l23.003,15.965   c0.417,0.009,0.837,0.156,1.259,0.156c0.056,0,0.11,0,0.166,0l-23.932-16.605C108.731,448.27,108.565,448.335,108.412,448.547z" fill="#A1C3FC"/>  <path d="M110.05,446.774l25.492,17.536   c0.432-0.023,0.86-0.05,1.285-0.082l-26.14-17.981C110.466,446.419,110.253,446.595,110.05,446.774z" fill="#A1C3FC"/>  <path d="M112.079,445.27l27.202,18.712   c0.395-0.05,0.786-0.103,1.172-0.16l-27.624-19.002C112.571,444.967,112.321,445.117,112.079,445.27z" fill="#A1C3FC"/>  <path d="M114.427,443.985l28.27,19.446   c0.362-0.072,0.721-0.148,1.074-0.228L115.273,443.6C114.985,443.726,114.703,443.854,114.427,443.985z" fill="#A1C3FC"/>  <path d="M117.058,442.895l28.769,19.79   c0.333-0.094,0.66-0.19,0.983-0.29l-28.815-19.822C117.677,442.677,117.364,442.784,117.058,442.895z" fill="#A1C3FC"/>  <path d="M119.956,441.989l28.731,19.763   c0.304-0.114,0.602-0.231,0.895-0.351l-28.599-19.672C120.636,441.811,120.293,441.898,119.956,441.989z" fill="#A1C3FC"/>  <path d="M123.126,441.27l28.152,19.365   c0.274-0.136,0.541-0.274,0.802-0.415l-27.834-19.146C123.869,441.135,123.495,441.2,123.126,441.27z" fill="#A1C3FC"/>  <path d="M126.586,440.75l26.997,18.57   c0.241-0.159,0.474-0.322,0.699-0.486l-26.472-18.209C127.398,440.662,126.991,440.704,126.586,440.75z" fill="#A1C3FC"/>  <path d="M130.375,440.457l25.185,17.324   c0.202-0.187,0.393-0.378,0.575-0.572l-24.412-16.792C131.271,440.425,130.822,440.438,130.375,440.457z" fill="#A1C3FC"/>  <path d="M134.568,440.441l22.565,15.522   c0.15-0.226,0.285-0.455,0.407-0.687l-21.46-14.762C135.58,440.483,135.076,440.459,134.568,440.441z" fill="#A1C3FC"/>  <path d="M139.333,440.818l18.791,12.926   c0.069-0.287,0.116-0.578,0.14-0.87l-17.152-11.799C140.527,440.98,139.934,440.894,139.333,440.818z" fill="#A1C3FC"/>  <path d="M147.644,442.669c-0.794-0.268-1.623-0.516-2.482-0.741   l12.897,8.871c-0.13-0.457-0.315-0.907-0.552-1.346L147.644,442.669z" fill="#A1C3FC"/> </g> <g>  <g>   <path d="M635.42,536.669c-4.276,0-7.755-3.478-7.755-7.755c0-4.277,3.479-7.756,7.755-7.756    c4.277,0,7.756,3.479,7.756,7.756C643.174,533.191,639.696,536.669,635.42,536.669z M635.42,522.227c-3.687,0-6.687,3-6.687,6.688    c0,3.687,3,6.687,6.687,6.687c3.688,0,6.688-3,6.688-6.687S639.108,522.227,635.42,522.227z" fill="#FFFFFF"/>  </g>  <g>   <path d="M635.42,541.21c-6.779,0-12.295-5.516-12.295-12.295c0-6.78,5.516-12.296,12.295-12.296    c6.78,0,12.296,5.516,12.296,12.296C647.715,535.694,642.199,541.21,635.42,541.21z M635.42,517.686    c-6.191,0-11.228,5.038-11.228,11.229c0,6.191,5.037,11.228,11.228,11.228c6.191,0,11.229-5.037,11.229-11.228    C646.648,522.723,641.611,517.686,635.42,517.686z" fill="#FFFFFF"/>  </g>  <g>   <path d="M635.42,546.318c-9.596,0-17.403-7.807-17.403-17.403c0-9.597,7.807-17.405,17.403-17.405    c9.596,0,17.405,7.807,17.405,17.405C652.824,538.511,645.016,546.318,635.42,546.318z M635.42,512.577    c-9.008,0-16.336,7.329-16.336,16.337s7.328,16.336,16.336,16.336s16.337-7.328,16.337-16.336S644.427,512.577,635.42,512.577z" fill="#FFFFFF"/>  </g>  <g>   <path d="M635.42,551.994c-12.726,0-23.08-10.353-23.08-23.078c0-12.726,10.353-23.08,23.08-23.08    s23.08,10.353,23.08,23.08C658.499,541.641,648.146,551.994,635.42,551.994z M635.42,506.902    c-12.138,0-22.012,9.875-22.012,22.012c0,12.138,9.875,22.012,22.012,22.012c12.137,0,22.012-9.874,22.012-22.012    C657.432,516.778,647.557,506.902,635.42,506.902z" fill="#FFFFFF"/>  </g>  <g>   <path d="M635.42,557.102c-15.542,0-28.188-12.645-28.188-28.188c0-15.543,12.645-28.188,28.188-28.188    c15.543,0,28.188,12.645,28.188,28.188C663.607,544.457,650.963,557.102,635.42,557.102z M635.42,501.794    c-14.954,0-27.12,12.167-27.12,27.121s12.166,27.12,27.12,27.12s27.121-12.166,27.121-27.12S650.374,501.794,635.42,501.794z" fill="#FFFFFF"/>  </g> </g> <g style="opacity:0.31;">  <polygon points="764.666,440.493 799.835,440.493 799.835,430.919 774.24,430.919  " fill="none"/>  <polygon points="729.172,475.987 799.835,475.987 799.835,466.414 738.745,466.414  " fill="none"/>  <polygon points="782.414,422.745 799.835,422.745 799.835,413.172 791.988,413.172  " fill="none"/>  <polygon points="695.22,509.939 799.835,509.939 799.835,501.909 703.251,501.909  " fill="none"/>  <polygon points="711.425,493.735 799.835,493.735 799.835,484.161 720.998,484.161  " fill="none"/>  <polygon points="746.919,458.24 799.835,458.24 799.835,448.667 756.493,448.667  " fill="none"/>  <polygon points="799.835,413.172 799.835,405.324 791.988,413.172  " fill="#428DFC"/>  <polygon points="774.24,430.919 799.835,430.919 799.835,422.745 782.414,422.745  " fill="#428DFC"/>  <polygon points="756.493,448.667 799.835,448.667 799.835,440.493 764.666,440.493  " fill="#428DFC"/>  <polygon points="738.745,466.414 799.835,466.414 799.835,458.24 746.919,458.24  " fill="#428DFC"/>  <polygon points="720.998,484.161 799.835,484.161 799.835,475.987 729.172,475.987  " fill="#428DFC"/>  <polygon points="703.251,501.909 799.835,501.909 799.835,493.735 711.425,493.735  " fill="#428DFC"/> </g> <path id="texture-2_15_IT2nJKiX0v_2NHq8UXO2m" d="M117.632,574.156c-0.168-0.093-0.379-0.029-0.472,0.138  c-0.093,0.168-0.029,0.38,0.139,0.472c0.168,0.093,0.379,0.029,0.472-0.138l0,0C117.864,574.46,117.803,574.248,117.632,574.156  L117.632,574.156z M82.134,570.843c-0.054-0.189-0.252-0.298-0.44-0.243l0,0c-0.174,0.044-0.279,0.222-0.235,0.395  c0.002,0.014,0.008,0.03,0.015,0.043c0.049,0.183,0.233,0.292,0.417,0.245C82.076,571.227,82.188,571.032,82.134,570.843  L82.134,570.843L82.134,570.843z M100.005,573.678c0.005-0.195-0.136-0.363-0.328-0.393c-0.197-0.019-0.375,0.128-0.393,0.328  c-0.019,0.197,0.128,0.375,0.328,0.393C99.806,574.008,99.975,573.87,100.005,573.678z M119.649,531.614  c0.053-0.364-0.194-0.705-0.558-0.766c-0.348-0.071-0.688,0.152-0.76,0.498c-0.002,0.013-0.005,0.023-0.006,0.035  c-0.053,0.364,0.194,0.705,0.558,0.766C119.241,532.212,119.585,531.973,119.649,531.614L119.649,531.614z M116.993,547.519  c0.053-0.367-0.201-0.706-0.568-0.757c-0.359-0.052-0.696,0.192-0.755,0.55c-0.065,0.359,0.174,0.701,0.533,0.766l0,0  C116.574,548.124,116.917,547.881,116.993,547.519z M114.318,563.447c0.062-0.359-0.175-0.698-0.534-0.76  c-0.007-0.001-0.015-0.002-0.022-0.003c-0.348-0.071-0.688,0.152-0.76,0.498c-0.002,0.013-0.005,0.023-0.006,0.035  c-0.048,0.368,0.195,0.712,0.559,0.79C113.917,564.058,114.257,563.811,114.318,563.447z M148.672,550.252  c-0.316-0.184-0.721-0.078-0.905,0.241c-0.184,0.315-0.077,0.721,0.241,0.905c0.31,0.18,0.707,0.08,0.895-0.225  C149.088,550.855,148.985,550.446,148.672,550.252L148.672,550.252z M140.119,563.942c-0.316-0.184-0.721-0.078-0.905,0.241  c-0.184,0.315-0.077,0.721,0.241,0.905c0.31,0.18,0.707,0.08,0.895-0.224C140.535,564.547,140.432,564.136,140.119,563.942  L140.119,563.942z M88.149,539.959c-0.091-0.357-0.45-0.577-0.81-0.491c-0.352,0.078-0.571,0.427-0.494,0.779  c0.001,0.002,0.001,0.005,0.002,0.007c0.058,0.349,0.387,0.584,0.736,0.527c0.016-0.003,0.033-0.006,0.052-0.01  C87.989,540.673,88.214,540.323,88.149,539.959z M91.772,555.697c-0.095-0.357-0.447-0.58-0.809-0.515  c-0.357,0.091-0.576,0.452-0.491,0.81c0.083,0.357,0.44,0.579,0.796,0.495c0.005-0.001,0.01-0.002,0.012-0.002  c0.352-0.078,0.571-0.427,0.495-0.776C91.773,555.701,91.773,555.699,91.772,555.697z M95.394,571.409  c-0.071-0.346-0.407-0.571-0.753-0.499c-0.01,0.002-0.021,0.004-0.03,0.008c-0.359,0.069-0.592,0.418-0.523,0.777  c0.002,0.012,0.004,0.021,0.006,0.033c0.086,0.36,0.448,0.582,0.805,0.497c0.36-0.086,0.582-0.448,0.497-0.805  C95.395,571.413,95.394,571.411,95.394,571.409z M161.868,558.992c-0.26-0.197-0.63-0.15-0.833,0.106  c-0.2,0.258-0.152,0.631,0.106,0.833c0.258,0.202,0.631,0.152,0.833-0.106l0,0C162.171,559.564,162.124,559.195,161.868,558.992z   M103.528,543.734c-0.056-0.33-0.359-0.558-0.691-0.52c-0.315,0.04-0.539,0.326-0.5,0.642c0.002,0.01,0.003,0.016,0.005,0.026  c0.036,0.326,0.33,0.56,0.655,0.522c0.005-0.001,0.007-0.002,0.012-0.002C103.326,544.349,103.555,544.059,103.528,543.734  L103.528,543.734z M105.391,557.992c-0.047-0.322-0.346-0.543-0.666-0.498c-0.315,0.04-0.539,0.326-0.5,0.642  c0.002,0.01,0.003,0.016,0.005,0.026c0.036,0.326,0.33,0.56,0.655,0.524c0.005-0.001,0.007-0.002,0.012-0.002  C105.22,558.623,105.439,558.318,105.391,557.992L105.391,557.992z M107.282,572.296c-0.036-0.326-0.33-0.56-0.655-0.524  c-0.005,0.001-0.007,0.002-0.012,0.002c-0.309,0.028-0.534,0.303-0.506,0.611c0.002,0.019,0.005,0.038,0.008,0.056  c0.036,0.326,0.33,0.56,0.655,0.524c0.005-0.001,0.007-0.002,0.012-0.002C107.099,572.908,107.32,572.615,107.282,572.296  L107.282,572.296z M133.649,553.224c0.074-0.319-0.119-0.641-0.437-0.722c-0.315-0.085-0.637,0.099-0.722,0.413  c-0.079,0.319,0.101,0.647,0.413,0.747C133.228,553.743,133.558,553.548,133.649,553.224L133.649,553.224z M129.907,567.143  c0.092-0.302-0.076-0.622-0.378-0.714c-0.011-0.003-0.023-0.005-0.034-0.011c-0.315-0.085-0.637,0.099-0.722,0.413  c-0.079,0.319,0.101,0.647,0.413,0.747C129.504,567.654,129.824,567.461,129.907,567.143L129.907,567.143z M78.863,559.534  c-0.15-0.274-0.491-0.373-0.765-0.225c-0.011,0.007-0.022,0.011-0.03,0.018c-0.287,0.155-0.395,0.515-0.239,0.804  c0.004,0.006,0.007,0.013,0.01,0.018c0.175,0.276,0.536,0.367,0.822,0.205c0.281-0.159,0.378-0.517,0.219-0.798  C78.874,559.549,78.867,559.543,78.863,559.534L78.863,559.534z M86.075,572.015c-0.167-0.285-0.531-0.387-0.822-0.229  c-0.283,0.174-0.375,0.546-0.2,0.829c0.165,0.271,0.513,0.367,0.793,0.219c0.286-0.15,0.397-0.506,0.246-0.792  C86.089,572.035,86.082,572.024,86.075,572.015L86.075,572.015z M163.62,543.796c0.079-0.372-0.144-0.741-0.513-0.84  c-0.367-0.094-0.742,0.123-0.839,0.488c-0.084,0.373,0.143,0.745,0.513,0.84C163.149,544.378,163.523,544.161,163.62,543.796  L163.62,543.796z M159.469,559.906c0.097-0.367-0.123-0.742-0.488-0.839c-0.365-0.097-0.742,0.123-0.839,0.488  c-0.097,0.367,0.123,0.742,0.488,0.839C158.996,560.491,159.371,560.271,159.469,559.906L159.469,559.906z M94.222,553.132  c-0.206-0.326-0.629-0.434-0.966-0.245c-0.324,0.206-0.418,0.636-0.21,0.959c0.199,0.312,0.608,0.411,0.928,0.229  C94.294,553.877,94.405,553.462,94.222,553.132L94.222,553.132z M102.683,567.448c-0.198-0.32-0.612-0.431-0.942-0.248  c-0.328,0.192-0.44,0.613-0.248,0.942c0.192,0.328,0.613,0.44,0.942,0.248C102.758,568.194,102.867,567.776,102.683,567.448  L102.683,567.448z M130.251,549.136c-0.071-0.37-0.415-0.625-0.789-0.589c-0.372,0.066-0.622,0.417-0.565,0.789  c0.044,0.37,0.38,0.636,0.753,0.591c0.005-0.001,0.01-0.002,0.014-0.002C130.043,549.872,130.305,549.52,130.251,549.136  C130.252,549.139,130.251,549.136,130.251,549.136L130.251,549.136z M132.591,565.62c-0.056-0.38-0.408-0.643-0.787-0.59  c0,0,0,0-0.002,0.001c-0.367,0.053-0.621,0.396-0.565,0.763l0,0c0.053,0.373,0.397,0.635,0.769,0.583  C132.376,566.331,132.635,565.99,132.591,565.62L132.591,565.62z M140.796,544.777c-0.047-0.372-0.39-0.636-0.764-0.589  c-0.375,0.047-0.636,0.39-0.589,0.765c0.048,0.363,0.373,0.625,0.738,0.591C140.563,545.499,140.837,545.157,140.796,544.777  L140.796,544.777z M142.444,561.265c-0.043-0.38-0.386-0.655-0.767-0.613c-0.368,0.046-0.637,0.373-0.615,0.743  c0.05,0.382,0.385,0.659,0.767,0.637C142.207,561.981,142.475,561.642,142.444,561.265L142.444,561.265z M111.029,562.511  c-0.188-0.331-0.608-0.453-0.944-0.272c-0.328,0.18-0.451,0.591-0.271,0.92c0.162,0.332,0.561,0.472,0.893,0.31  c0.009-0.004,0.018-0.008,0.027-0.014c0.34-0.17,0.477-0.584,0.305-0.924C111.037,562.524,111.034,562.518,111.029,562.511  L111.029,562.511z" fill="#FFFFFF"/> <path id="texture-2_16_IT2nJKiX0v_2NHq8UXO2m" d="M749.891,593.519c0.168-0.093,0.379-0.029,0.472,0.138  c0.093,0.168,0.029,0.379-0.139,0.472c-0.168,0.093-0.379,0.029-0.472-0.138l0,0C749.661,593.823,749.721,593.612,749.891,593.519  L749.891,593.519z M785.39,590.206c0.054-0.189,0.252-0.298,0.44-0.243l0,0c0.174,0.044,0.279,0.222,0.235,0.396  c-0.002,0.014-0.008,0.03-0.015,0.043c-0.049,0.183-0.234,0.292-0.417,0.245C785.447,590.59,785.336,590.395,785.39,590.206  L785.39,590.206L785.39,590.206z M767.519,593.041c-0.005-0.195,0.136-0.363,0.328-0.393c0.197-0.019,0.375,0.128,0.393,0.328  c0.019,0.197-0.128,0.375-0.328,0.393C767.717,593.371,767.55,593.234,767.519,593.041z M747.875,550.977  c-0.053-0.364,0.194-0.705,0.558-0.766c0.348-0.071,0.688,0.152,0.76,0.498c0.002,0.013,0.005,0.023,0.006,0.035  c0.053,0.364-0.194,0.705-0.558,0.766C748.284,551.575,747.939,551.336,747.875,550.977L747.875,550.977z M750.531,566.882  c-0.053-0.367,0.201-0.706,0.568-0.757c0.359-0.053,0.696,0.192,0.755,0.55c0.065,0.359-0.174,0.701-0.533,0.766l0,0  C750.95,567.487,750.607,567.244,750.531,566.882z M753.206,582.81c-0.063-0.359,0.175-0.698,0.534-0.76  c0.007-0.001,0.015-0.002,0.022-0.003c0.348-0.071,0.688,0.152,0.76,0.498c0.002,0.013,0.005,0.023,0.006,0.035  c0.048,0.368-0.195,0.712-0.559,0.79C753.608,583.421,753.267,583.174,753.206,582.81z M718.852,569.615  c0.316-0.184,0.721-0.078,0.905,0.241c0.184,0.315,0.077,0.721-0.241,0.905c-0.31,0.18-0.707,0.08-0.895-0.225  C718.436,570.218,718.539,569.809,718.852,569.615L718.852,569.615z M727.405,583.305c0.316-0.184,0.721-0.078,0.905,0.241  c0.184,0.315,0.077,0.721-0.241,0.905c-0.31,0.18-0.707,0.08-0.895-0.224C726.99,583.91,727.093,583.499,727.405,583.305  L727.405,583.305z M779.376,559.322c0.091-0.357,0.45-0.578,0.81-0.491c0.352,0.078,0.572,0.427,0.494,0.779  c0,0.002-0.001,0.005-0.001,0.007c-0.058,0.349-0.387,0.584-0.736,0.527c-0.016-0.003-0.033-0.006-0.052-0.01  C779.534,560.036,779.31,559.686,779.376,559.322z M775.752,575.06c0.095-0.357,0.447-0.58,0.809-0.515  c0.357,0.091,0.576,0.452,0.491,0.81c-0.083,0.357-0.44,0.579-0.796,0.495c-0.005-0.001-0.01-0.002-0.012-0.002  c-0.352-0.078-0.572-0.427-0.495-0.776C775.751,575.065,775.751,575.062,775.752,575.06z M772.131,590.772  c0.071-0.346,0.407-0.571,0.753-0.499c0.01,0.002,0.021,0.004,0.03,0.008c0.359,0.069,0.592,0.418,0.523,0.777  c-0.002,0.012-0.004,0.021-0.006,0.033c-0.086,0.36-0.448,0.582-0.805,0.497c-0.36-0.086-0.582-0.448-0.497-0.805  C772.129,590.776,772.13,590.774,772.131,590.772z M705.656,578.355c0.26-0.197,0.63-0.15,0.833,0.106  c0.2,0.258,0.152,0.631-0.106,0.833c-0.258,0.202-0.631,0.152-0.833-0.106l0,0C705.354,578.928,705.4,578.558,705.656,578.355z   M763.996,563.097c0.056-0.33,0.359-0.558,0.691-0.52c0.315,0.04,0.539,0.326,0.5,0.642c-0.002,0.01-0.003,0.016-0.005,0.026  c-0.036,0.326-0.33,0.56-0.655,0.522c-0.005-0.001-0.007-0.002-0.012-0.002C764.198,563.712,763.97,563.422,763.996,563.097  L763.996,563.097z M762.133,577.355c0.047-0.322,0.346-0.542,0.666-0.498c0.315,0.04,0.539,0.326,0.5,0.642  c-0.002,0.01-0.003,0.016-0.005,0.026c-0.036,0.326-0.33,0.56-0.655,0.524c-0.005-0.001-0.007-0.002-0.012-0.002  C762.305,577.987,762.085,577.681,762.133,577.355L762.133,577.355z M760.242,591.659c0.036-0.326,0.33-0.56,0.655-0.524  c0.005,0.001,0.007,0.002,0.012,0.002c0.308,0.028,0.534,0.303,0.506,0.611c-0.002,0.019-0.005,0.038-0.008,0.056  c-0.036,0.326-0.33,0.56-0.655,0.524c-0.005-0.001-0.007-0.002-0.012-0.002C760.424,592.271,760.204,591.978,760.242,591.659  L760.242,591.659z M733.875,572.587c-0.074-0.319,0.119-0.641,0.437-0.722c0.315-0.085,0.637,0.099,0.722,0.413  c0.079,0.318-0.101,0.647-0.413,0.747C734.296,573.106,733.966,572.912,733.875,572.587L733.875,572.587z M737.618,586.506  c-0.092-0.302,0.076-0.622,0.378-0.714c0.011-0.003,0.023-0.006,0.034-0.011c0.315-0.085,0.637,0.099,0.722,0.413  c0.079,0.318-0.101,0.647-0.413,0.747C738.021,587.017,737.7,586.824,737.618,586.506L737.618,586.506z M788.661,578.897  c0.15-0.274,0.491-0.373,0.765-0.225c0.011,0.007,0.022,0.011,0.03,0.018c0.287,0.155,0.395,0.515,0.239,0.804  c-0.004,0.006-0.007,0.013-0.01,0.018c-0.175,0.276-0.536,0.367-0.822,0.204c-0.281-0.159-0.378-0.517-0.219-0.798  C788.65,578.912,788.657,578.906,788.661,578.897L788.661,578.897z M781.449,591.378c0.167-0.285,0.531-0.387,0.821-0.229  c0.283,0.174,0.375,0.546,0.2,0.829c-0.165,0.271-0.512,0.367-0.793,0.219c-0.286-0.15-0.397-0.506-0.246-0.792  C781.435,591.398,781.442,591.387,781.449,591.378L781.449,591.378z M703.904,563.159c-0.079-0.372,0.144-0.741,0.513-0.84  c0.367-0.094,0.742,0.123,0.839,0.488c0.084,0.373-0.143,0.745-0.513,0.84C704.376,563.742,704.001,563.524,703.904,563.159  L703.904,563.159z M708.056,579.268c-0.097-0.367,0.123-0.742,0.488-0.839c0.366-0.097,0.742,0.123,0.839,0.488  c0.097,0.367-0.123,0.742-0.488,0.839C708.527,579.854,708.153,579.634,708.056,579.268L708.056,579.268z M773.302,572.495  c0.206-0.326,0.629-0.434,0.966-0.245c0.324,0.206,0.418,0.636,0.21,0.959c-0.199,0.312-0.608,0.411-0.929,0.229  C773.23,573.24,773.12,572.826,773.302,572.495L773.302,572.495z M764.841,586.811c0.198-0.32,0.612-0.431,0.942-0.248  c0.328,0.192,0.44,0.613,0.248,0.942c-0.192,0.328-0.613,0.44-0.942,0.248C764.766,587.557,764.657,587.139,764.841,586.811  L764.841,586.811z M737.273,568.499c0.071-0.37,0.415-0.625,0.789-0.589c0.372,0.066,0.622,0.417,0.565,0.789  c-0.044,0.37-0.38,0.636-0.753,0.591c-0.005-0.001-0.01-0.002-0.014-0.002C737.481,569.235,737.219,568.883,737.273,568.499  C737.273,568.502,737.273,568.499,737.273,568.499L737.273,568.499z M734.934,584.983c0.056-0.38,0.408-0.643,0.787-0.59  c0,0,0,0,0.002,0.001c0.367,0.053,0.621,0.396,0.565,0.763l0,0c-0.053,0.373-0.397,0.635-0.769,0.583  C735.148,585.694,734.889,585.353,734.934,584.983L734.934,584.983z M726.728,564.14c0.047-0.372,0.39-0.636,0.764-0.589  c0.375,0.047,0.636,0.39,0.589,0.765c-0.048,0.363-0.373,0.625-0.738,0.591C726.961,564.863,726.687,564.521,726.728,564.14  L726.728,564.14z M725.08,580.628c0.043-0.38,0.386-0.655,0.767-0.613c0.368,0.046,0.637,0.373,0.615,0.743  c-0.049,0.382-0.385,0.659-0.767,0.637C725.317,581.344,725.05,581.006,725.08,580.628L725.08,580.628z M756.495,581.874  c0.188-0.331,0.608-0.453,0.944-0.272c0.328,0.18,0.451,0.591,0.271,0.92c-0.162,0.331-0.561,0.472-0.893,0.31  c-0.009-0.004-0.018-0.008-0.027-0.014c-0.34-0.17-0.477-0.584-0.305-0.924C756.487,581.887,756.491,581.881,756.495,581.874  L756.495,581.874z" fill="#FFFFFF"/> </g></g><g transform="translate(159.692 304.159) scale(1.419 1.418) rotate(0 156.2720225510923 154.38645980253878)"><g clip-path="url(#clipPath_4IdwjwW-wjF7ESAeBhXzT)"><defs>
          <clipPath id="clipPath_4IdwjwW-wjF7ESAeBhXzT">
            <rect x="0" y="0" width="312.641" height="308.847"/>
          </clipPath>
       </defs> <path fill="#FFA29D" d="M147.374,44.65c0.196,2.369,0.393,4.738,0.589,7.107c-0.683,0.401-1.604,0.047-2.106-0.566  s-0.693-1.414-0.895-2.179c-0.364-1.374-0.809-2.726-1.334-4.046c-0.239-0.602-0.499-1.22-0.479-1.867  c0.015-0.479,0.184-0.939,0.357-1.386c0.659-1.7,1.41-3.364,2.251-4.982c3.792,1.434,7.583,2.869,11.374,4.303  c-0.031,0.384-0.062,0.769-0.092,1.153c-1.138-0.041-2.275-0.082-3.413-0.123c-0.937-0.034-1.932-0.053-2.738,0.425  c-0.011,2.676-0.023,5.352-0.034,8.028c-0.001,0.29-0.022,0.622-0.252,0.798c-0.381,0.293-0.91-0.106-1.176-0.507  c-0.7-1.052-1.033-2.299-1.355-3.521C147.838,46.41,147.606,45.53,147.374,44.65z"/> <g id="shoes_10_4IdwjwW-wjF7ESAeBhXzT">  <path id="R_shoe_10_4IdwjwW-wjF7ESAeBhXzT" fill="#F7931E" d="M190.001,269.762l-14.01,39.082l98.908,0.003c0,0-5.071-9.782-21.978-17.028   s-30.639-22.061-30.639-22.061L190.001,269.762"/> </g> <path fill="#0A134F" d="M132.67,158.396c3.286,11.124,5.432,22.585,6.393,34.145c0.911,10.951,1.288,23.229,9.232,30.822  c5.2,4.97,12.921,7.029,17.252,12.772c4.333,5.746,4.157,13.659,6.895,20.315c4.894,11.899,15.747,18.809,15.747,18.809  s26.68,0.824,52.756-0.393c-10.489-6.23-7.831-16.093-15.079-25.906c-18.156-24.582-34.746-50.32-49.638-77.006  c-6.889-12.346-13.486-24.999-22.614-35.795c-2.077-2.456-4.63-4.979-7.843-5.111c-2.296-0.094-4.436,1.073-6.405,2.256  c-41.327,24.834-78.945,43.45-108.62,61.997c-12.777,9.892,12.22,49.48,23.45,58.992c13.318-13.755,26.636-27.51,39.954-41.266  c8.616-8.899,17.257-17.826,24.733-27.703C125.015,177.221,130.423,168.306,132.67,158.396z"/> <g id="shoes_9_4IdwjwW-wjF7ESAeBhXzT">  <path id="R_shoe_9_4IdwjwW-wjF7ESAeBhXzT" fill="#FBB03B" d="M222.492,269.762l-8.759,39.082l98.908,0.003c0,0-5.071-9.782-21.978-17.028   s-30.639-22.061-30.639-22.061l-32.28,0.003"/> </g> <linearGradient id="SVGID_1_4IdwjwW-wjF7ESAeBhXzT" gradientUnits="userSpaceOnUse" x1="211.2498" y1="112.3638" x2="-7.0442" y2="85.6431" gradientTransform="matrix(1 0 0 -1 0 310)">  <stop offset="0" stop-color="#1B236D"/>  <stop offset="1" stop-color="#0A134F"/> </linearGradient> <path fill="url(#SVGID_1_4IdwjwW-wjF7ESAeBhXzT)" d="M59.522,253.402c21.783-11.414,38.708-30.238,53.637-49.78  c10.578-13.846,20.629-28.739,24.387-45.754c1.203,14.658,3.472,31.267,15.518,39.705c3.964,2.776,9.008,4.709,11.024,9.108  c1.165,2.543,1.065,5.453,1.287,8.242c0.724,9.073,5.271,17.778,12.304,23.556c7.883,6.477,17.755,16.39,26.244,22.049  c8.759,5.839,10.178,5.932,16.304,14.493c12.183-0.318,29.729-0.495,41.604-3.238c-3.327-4.508-6.654-9.016-9.873-13.602  c-30.688-43.712-52.201-95.103-92.716-129.904c-2.424-2.082-5.247-4.211-8.434-3.992c-2.014,0.138-3.829,1.208-5.558,2.25  c-20.888,12.585-36.735,21.509-57.623,34.094c-5.941,3.579-16.716,11.138-22.096,15.515c-10.881,8.851-23.245,19.155-23.245,19.155  s0.738,22.128-2.319,21.551c1.907-15.781-1.391-31.03-1.391-31.03s-17.789-7.65-25.476-13.333  c-9.286,10.777-14.011,27.605-12.954,41.792s7.95,27.851,18.732,37.133c3.737,3.217,7.994,5.958,12.752,7.254  C40.981,261.214,50.937,257.901,59.522,253.402z"/> <path fill="#FFA29D" d="M138.738,30.917c-8.423,13.452-16.532,27.1-24.32,40.929c-3.657-4.034-8.727-6.761-14.109-7.59  c6.567-11.669,12.235-23.844,16.938-36.381C124.411,28.89,131.575,29.903,138.738,30.917z"/> <path fill="#FFBFB7" d="M97.234,44.605c-4.496-1.998-4.389-12.826-3.856-17.717c1.012-9.29,5.731-18.125,12.89-24.132  c2.148-1.802,2.563-1,5.351-1.293c4.938-0.519,13.946,1.909,16.297,6.283c1.055,1.964,3.05,5.084,4.701,6.582  s3.19,0.614,5.382,3.628c0.912,1.254,4.961,10.789,4.961,17.058c0,6.373-0.09,9.316-5.856,11.312  c-2.448,0.847-16.596,1.29-21.256,0.958C108.226,46.742,103.214,47.262,97.234,44.605z"/> <linearGradient id="SVGID_2_4IdwjwW-wjF7ESAeBhXzT" gradientUnits="userSpaceOnUse" x1="119.3677" y1="203.0878" x2="63.1134" y2="183.0758" gradientTransform="matrix(1 0 0 -1 0 310)">  <stop offset="0" stop-color="#92C4FE"/>  <stop offset="1" stop-color="#74B4F7"/> </linearGradient> <path fill="url(#SVGID_2_4IdwjwW-wjF7ESAeBhXzT)" d="M41.314,191.364c-10.076-5.356-19.789-11.395-29.05-18.061  c16.945-20.003,34.019-40.192,46.466-63.264c6.742-12.496,12.2-25.94,21.625-36.56c7.948-8.955,12.927-14.802,24.482-17.938  c-0.182,1.653-0.717,2.732,14.993,6.953c1.373,0.369,4.628,17.931,4.917,19.322c0.258,1.243-1.86,17.519-2.346,18.691  c-4.401,10.607-17.21,28.985-27.173,38.949C71.848,162.838,54.771,176.292,41.314,191.364z"/> <path fill="#FFBFB7" d="M154.43,117.016c-0.705,0.116-1.363,0.422-2.01,0.725c-4.18,1.955-5.64,2.315-9.82,4.27  c-1.482,0.693-2.31,2.079-6.469,5.159c-1.315,0.974-0.57,2.951,0.997,3.421c1.002,0.301,2.849-0.397,3.777-0.88  c2.221-1.157,3.645-2.114,5.866-3.271c2.928-1.526,6.524-3.048,9.359-1.354c-1.357,2.74-2.179,5.743-2.406,8.792  c-0.209,2.81-0.757,5.821-1.113,8.616c-0.482,3.78-1.084,5.235-2.002,8.933s-2.463,10.473,1.316,10.965  c1.928,0.251,2.038-3.255,2.451-5.155c1.443-6.63,2.839-11.329,4.584-17.887c0.28-1.054,1.034-3.189,1.583-2.247  c0.508,0.873-1.617,5.005-3.542,11.089c-0.984,3.109-5.601,13.35-3.112,15.457c1.71,1.447,2.827-1.47,3.728-3.521  c0.267-0.608,0.158-1.086,0.616-1.925c-1.155,1.771,0.792,3.074,1.52,2.383c1.695-1.608,3.452-7.658,3.954-9.025  c3.228-8.787,6.498-17.802,6.493-27.163c0-0.821-0.044-1.697-0.525-2.362c-0.503-0.697-1.371-1.008-2.186-1.281  c-3.115-1.044-6.229-2.089-9.344-3.133C156.943,117.218,155.682,116.81,154.43,117.016z"/> <path fill="#FFBFB7" d="M144.566,34.272c0.725-0.328,1.549-0.335,2.345-0.336c5.078-0.007,7.822,1.264,12.9,1.257  c0.696-0.001,1.419,0.004,2.046,0.306c1.27,0.613,2.262,3.056,2.93,4.298c4.048,7.519,6.909,11.271,11.527,18.137  c1.01,1.502,2.874,9.257,3.016,11.061c0.142,1.804-0.801-0.384-2.53,0.15c-0.36-0.751-1.472-0.718-2.207-0.326  s-1.371,1.029-2.194,1.157c-1.594,0.248-4.735-7.952-5.63-9.294c-3.019-4.528-7.354-3.329-11.095-6.793  c-2.038-1.887-3.849-3.472-6.51-6.011c-1.919-1.831-4.933-4.987-2.84-6.616c2.685-2.091,5.064,1.5,7.765,3.57  c2.234,1.712,4.101,3.218,7.321,5.283c-2.411-2.358-3.472-3.849-4.849-6.423c-0.357-0.668-0.478-1.494-1.071-1.966  c-0.396-0.315-0.9-0.45-1.39-0.578c-2.958-0.772-7.191-2.231-7.191-2.231l-2.344,6.154c0,0,0.035,0.557,0.618,1.497  c1.039,1.674,0.755,2.717,0.749,3.112c-0.005,0.779-0.845,1.348-1.623,1.326s-3.751-5.699-3.805-6.476  c-0.151-2.189,0.566-2.743,1.811-6.113C142.718,37.331,143.51,34.75,144.566,34.272z"/> <linearGradient id="SVGID_3_4IdwjwW-wjF7ESAeBhXzT" gradientUnits="userSpaceOnUse" x1="169.3357" y1="205.4298" x2="194.0403" y2="222.0058" gradientTransform="matrix(1 0 0 -1 0 310)">  <stop offset="0" stop-color="#92C4FE"/>  <stop offset="1" stop-color="#74B4F7"/> </linearGradient> <path fill="url(#SVGID_3_4IdwjwW-wjF7ESAeBhXzT)" d="M149.233,70.996c3.86-1.896,26.449-14.106,26.449-14.106s31.848,65.558,23.35,74.771  c-3.136,3.399-21.806-9.905-22.469-10.412c-10.305-7.888-1.657-9.789-3.554-22.627C171.114,85.784,155.986,82.077,149.233,70.996z"/> <path fill="#0073DC" d="M84.716,18.154c-0.364,3.639-1.135,15.63,3.134,20.904c4.659,5.755,11.626,10.532,24.232,7.792  c0.753-0.164,8.587-10.601,9.252-21.238c0.235-3.761,3.258-7.314,3.761-14.104c0.47-6.347-2.238-8.615-3.761-9.403  c-2.811-1.454-4.012-1.368-7.522-1.881c-4.631-0.676-9.734,0.227-13.686,2.073C94.79,4.79,93.123,5.479,89.365,9.861  C87.256,12.32,85.051,14.802,84.716,18.154z"/> <circle fill="#008EFF" cx="75.887" cy="19.187" r="8.933"/> <rect x="80.04" y="16.288" fill="#F92424" width="7.992" height="7.992"/> <g>  <path fill="#008EFF" d="M50.806,33.003c-0.368,0-0.743-0.084-1.122-0.252c-1.492-0.661-2.887-1.556-4.235-2.421   c-2.93-1.88-5.7-3.653-8.884-2.626c-0.26,0.086-0.544-0.06-0.629-0.322s0.06-0.544,0.322-0.629c3.635-1.175,6.735,0.813,9.73,2.735   c1.317,0.845,2.679,1.719,4.1,2.349c0.479,0.211,0.919,0.22,1.343,0.024c1.782-0.815,3.016-4.856,3.752-7.271l0.096-0.315   c1.514-4.939,3.785-7.536,6.75-7.716c3.489-0.239,5.938,3.156,7.487,5.709c0.143,0.236,0.067,0.544-0.168,0.688   c-0.234,0.142-0.543,0.067-0.688-0.168c-1.414-2.33-3.594-5.396-6.571-5.23c-2.506,0.152-4.476,2.511-5.854,7.011l-0.097,0.314   c-0.836,2.742-2.101,6.886-4.292,7.888C51.508,32.926,51.16,33.003,50.806,33.003z"/> </g> <path fill="#FFBFB7" d="M119.71,31.884c1.57,1.45,3.139,2.9,4.709,4.35c3.43-4.692,2.147-12.127-2.658-15.397  c-0.919-0.626-1.99-1.121-3.1-1.059c-2.601,0.144-4.107,3.358-3.488,5.889C115.791,28.197,117.797,30.116,119.71,31.884z"/> <g>  <path fill="#F92424" d="M89.943,91.518c-0.355,0-0.706-0.127-0.983-0.367l-14.807-12.86c-0.396-0.344-0.584-0.869-0.495-1.386   c0.089-0.518,0.44-0.95,0.928-1.143l17.379-6.855c0.496-0.194,1.054-0.113,1.474,0.213c0.418,0.326,0.633,0.85,0.564,1.377   l-2.572,19.716c-0.071,0.548-0.438,1.012-0.955,1.208C90.302,91.486,90.122,91.518,89.943,91.518z M77.985,77.646l10.831,9.407   l1.882-14.422L77.985,77.646z"/> </g> <g>  <path fill="#008EFF" d="M88.694,74.135l-5.335,1.917c0.139-3.294,0.39-6.866,2.417-10.003c2.028-3.137,8.564-7.7,12.399-8.117   c-3.501,1.75-6.58,6.751-8.005,9.975C89.121,70.28,88.811,71.36,88.694,74.135z"/> </g> <g>  <path fill="#008EFF" d="M55.513,161.057c-2.198,0-4.363-0.571-6.802-2.603l3.95-4.741c1.715,1.428,2.43,1.371,5.936,0.825   c0.969-0.15,1.824-0.246,2.693-0.343c2.811-0.313,5.717-0.636,12.02-3.027c13.12-4.976,19.247-8.059,22.346-12.138   c0,0-10.266,13.889-20.158,17.908c-6.969,2.832-10.482,3.052-13.526,3.391c-0.782,0.087-1.552,0.172-2.377,0.3   C58.179,160.849,56.839,161.057,55.513,161.057z"/> </g> <path fill="#008EFF" d="M80.859,79.219c0,0,4.859,4.545,6.418,5.251c-2.029,1.815-4.698,5.243-6.085,7.585  c-2.521-1.347-7.38-5.912-7.419-6.168C73.736,85.646,80.859,79.219,80.859,79.219z"/> <linearGradient id="SVGID_4_4IdwjwW-wjF7ESAeBhXzT" gradientUnits="userSpaceOnUse" x1="30.5053" y1="189.5317" x2="88.0338" y2="189.5317" gradientTransform="matrix(1 0 0 -1 0 310)">  <stop offset="0" stop-color="#008EFF"/>  <stop offset="1" stop-color="#0073DC"/> </linearGradient> <path fill="url(#SVGID_4_4IdwjwW-wjF7ESAeBhXzT)" d="M71.356,80.016c0,0,11.86,9.391,16.678,13.092c-9.337,32.458-18.617,49.48-32.694,67.813  c-20.718-3.233-24.928-17.768-24.833-19.396C31.389,126.538,55.34,82.457,71.356,80.016z"/> <g>  <path fill="#0073DC" d="M87.487,94.175c-0.88-1.364-2.811-1.117-4.384-0.716s-2.889,1.459-4.084,2.557   c-5.296,4.867-9.372,11.128-15.436,14.997c-2.642,1.685-5.992,2.871-8.877,1.647c-3.43-1.455-4.77-5.869-3.95-9.503   c0.82-3.635,3.25-6.661,5.609-9.545c2.264-2.768,4.529-5.536,6.793-8.304c1.787-2.185,3.913-4.551,6.732-4.704"/>  <path fill="#F92424" d="M57.263,113.661c-0.916,0-1.846-0.157-2.752-0.542c-3.861-1.638-5.068-6.413-4.242-10.074   c0.861-3.824,3.438-6.973,5.71-9.751l6.793-8.304c1.864-2.279,4.104-4.725,7.092-4.887c0.296-0.032,0.511,0.196,0.526,0.472   c0.016,0.276-0.196,0.512-0.472,0.526c-2.582,0.141-4.564,2.311-6.373,4.521l-6.793,8.304c-2.202,2.692-4.698,5.745-5.509,9.339   c-0.746,3.312,0.418,7.559,3.658,8.934c3.077,1.303,6.593-0.446,8.413-1.608c3.739-2.386,6.788-5.78,9.736-9.063   c1.785-1.988,3.632-4.045,5.63-5.881c1.235-1.135,2.61-2.243,4.298-2.674c1.595-0.407,3.842-0.753,4.928,0.93   c0.15,0.232,0.083,0.542-0.148,0.691c-0.229,0.15-0.54,0.084-0.691-0.148c-0.561-0.87-1.782-1.027-3.841-0.504   c-1.473,0.376-2.729,1.396-3.869,2.441c-1.962,1.804-3.792,3.842-5.562,5.813c-2.993,3.333-6.089,6.779-9.943,9.238   C62.38,112.373,59.882,113.661,57.263,113.661z"/> </g> <path fill="#F92424" d="M55.129,109.29l6.811-1.697c0.713-0.178,0.908-1.098,0.33-1.55l-5.405-4.225  c-0.506-0.396-1.252-0.134-1.401,0.491l-1.405,5.922C53.905,108.874,54.488,109.45,55.129,109.29z"/> <g>  <path fill="#1B236D" d="M128.218,15.769c-0.117,0-0.232-0.005-0.349-0.016c-0.274-0.026-0.477-0.27-0.451-0.545   c0.026-0.274,0.266-0.473,0.545-0.451c0.999,0.094,2.099-0.37,3.006-1.275c0.853-0.85,1.452-1.961,2.032-3.036   c0.132-0.244,0.438-0.331,0.678-0.203c0.243,0.132,0.334,0.435,0.203,0.678c-0.615,1.139-1.25,2.316-2.207,3.27   C130.657,15.205,129.414,15.769,128.218,15.769z"/> </g> <g>  <path fill="#008EFF" d="M43.902,49.842c-0.244,0-0.458-0.18-0.494-0.429c-0.482-3.362,1.895-6.898,5.191-7.722   c0.846-0.21,1.718-0.259,2.562-0.306c1.183-0.065,2.301-0.128,3.278-0.611c2.347-1.161,2.858-4.242,2.97-5.514   c0.078-0.895,0.079-1.821,0.079-2.719c0.001-1.439,0.001-2.929,0.317-4.383c1.097-5.049,6.362-8.823,11.496-8.253   c0.274,0.031,0.472,0.278,0.441,0.553c-0.032,0.275-0.292,0.461-0.553,0.441c-4.646-0.527-9.415,2.901-10.408,7.472   c-0.293,1.349-0.293,2.719-0.294,4.17c0,0.919-0.001,1.868-0.083,2.807c-0.266,3.041-1.55,5.346-3.522,6.322   c-1.161,0.574-2.435,0.646-3.667,0.714c-0.833,0.046-1.621,0.09-2.374,0.277c-2.822,0.704-4.856,3.73-4.443,6.608   c0.039,0.273-0.15,0.527-0.424,0.566C43.95,49.84,43.927,49.842,43.902,49.842z"/> </g> <path id="texture-3_9_4IdwjwW-wjF7ESAeBhXzT" opacity="0.51" fill="#FFFFFF" enable-background="new    " d="M193.646,189.371  c-0.084-0.105-0.066-0.259,0.039-0.343s0.259-0.066,0.344,0.039c0.084,0.105,0.066,0.259-0.039,0.343l0,0  C193.884,189.495,193.73,189.479,193.646,189.371L193.646,189.371z M198.361,185.692c-0.083-0.111-0.066-0.268,0.038-0.36  c0.111-0.079,0.266-0.054,0.345,0.056c0.084,0.095,0.078,0.241-0.017,0.327c-0.006,0.006-0.014,0.011-0.022,0.016  C198.6,185.815,198.445,185.798,198.361,185.692L198.361,185.692L198.361,185.692z M187.082,165.179  c-0.138-0.015-0.237-0.138-0.221-0.276l0,0c0.01-0.125,0.12-0.22,0.246-0.21c0.01,0,0.021,0.002,0.031,0.005  c0.133,0.012,0.23,0.127,0.22,0.259C187.343,165.093,187.22,165.194,187.082,165.179L187.082,165.179L187.082,165.179z   M205.264,195.116c-0.115-0.065-0.157-0.21-0.094-0.327c0.065-0.115,0.21-0.157,0.327-0.094c0.117,0.063,0.157,0.21,0.094,0.327  c-0.055,0.114-0.191,0.161-0.305,0.106C205.279,195.124,205.27,195.119,205.264,195.116L205.264,195.116z M191.195,177.218  c-0.135,0.027-0.268-0.051-0.312-0.18c-0.037-0.135,0.043-0.275,0.18-0.312c0.137-0.037,0.275,0.043,0.312,0.18l0,0  C191.401,177.041,191.324,177.174,191.195,177.218L191.195,177.218z M196.96,175.617c-0.131,0.032-0.263-0.05-0.295-0.181l0,0  c-0.044-0.123,0.019-0.258,0.143-0.302c0.007-0.001,0.014-0.005,0.02-0.006c0.135-0.032,0.271,0.047,0.312,0.18  C197.167,175.44,197.09,175.574,196.96,175.617L196.96,175.617z M200.837,221.219c-0.232-0.108-0.333-0.385-0.225-0.617  c0.001-0.005,0.005-0.01,0.007-0.015c0.108-0.228,0.383-0.326,0.612-0.218l0.004,0.001c0.232,0.108,0.333,0.385,0.225,0.617  c-0.002,0.005-0.005,0.01-0.007,0.015c-0.108,0.228-0.383,0.326-0.612,0.218L200.837,221.219z M205.748,210.997  c-0.235-0.113-0.333-0.396-0.217-0.632c0.113-0.235,0.396-0.333,0.632-0.217l0,0c0.228,0.108,0.326,0.383,0.218,0.612  c0,0.001-0.001,0.001-0.001,0.004C206.263,210.995,205.987,211.1,205.748,210.997L205.748,210.997z M164.418,195.884  c-0.246,0.081-0.511-0.05-0.597-0.294c-0.091-0.233,0.022-0.495,0.254-0.586c0.009-0.004,0.015-0.006,0.024-0.008  c0.246-0.081,0.511,0.05,0.597,0.294C164.783,195.529,164.659,195.796,164.418,195.884L164.418,195.884L164.418,195.884z   M175.117,192.132c-0.244,0.086-0.515-0.041-0.601-0.287c-0.086-0.244,0.041-0.515,0.288-0.601c0.004-0.001,0.009-0.003,0.009-0.003  c0.244-0.088,0.509,0.036,0.597,0.277l0,0C175.487,191.768,175.36,192.035,175.117,192.132L175.117,192.132z M185.829,188.363  c-0.241,0.086-0.505-0.037-0.591-0.279c-0.001-0.005-0.003-0.01-0.005-0.015c-0.091-0.233,0.022-0.495,0.254-0.586  c0.009-0.004,0.015-0.006,0.024-0.008c0.249-0.077,0.516,0.05,0.614,0.293C186.205,188.012,186.073,188.277,185.829,188.363  L185.829,188.363z M196.527,184.611c-0.246,0.083-0.513-0.048-0.597-0.294s0.047-0.513,0.294-0.597  c0.241-0.088,0.506,0.036,0.595,0.277l0,0c0.093,0.243-0.031,0.515-0.274,0.608C196.545,184.605,196.534,184.609,196.527,184.611  L196.527,184.611z M221.06,221.048c-0.26-0.017-0.457-0.241-0.441-0.499c0.017-0.258,0.241-0.457,0.499-0.441h0.005  c0.258,0.019,0.454,0.243,0.438,0.502c-0.015,0.257-0.235,0.454-0.492,0.439c-0.004-0.001-0.007-0.002-0.007-0.002h-0.002V221.048z   M180.819,213.747c-0.166-0.196-0.141-0.49,0.058-0.656c0.196-0.166,0.49-0.141,0.656,0.058c0.162,0.193,0.141,0.48-0.046,0.647  C181.287,213.962,180.991,213.942,180.819,213.747L180.819,213.747z M189.276,206.176c-0.166-0.196-0.141-0.49,0.058-0.656  c0.196-0.166,0.49-0.141,0.656,0.058c0.162,0.193,0.141,0.48-0.048,0.647C189.743,206.392,189.448,206.37,189.276,206.176  L189.276,206.176z M197.713,198.607c-0.171-0.202-0.143-0.502,0.058-0.672c0.193-0.164,0.482-0.147,0.656,0.038  c0.181,0.192,0.171,0.493-0.021,0.674s-0.494,0.171-0.674-0.021C197.725,198.618,197.718,198.613,197.713,198.607z M166.411,173.059  c-0.258-0.019-0.454-0.243-0.438-0.502c0.012-0.253,0.227-0.447,0.48-0.436h0.005c0.248-0.002,0.451,0.198,0.453,0.447  c0,0.011,0,0.024,0,0.037C166.886,172.863,166.671,173.06,166.411,173.059L166.411,173.059z M177.749,173.677  c-0.258-0.023-0.456-0.241-0.454-0.499c0.02-0.258,0.244-0.453,0.502-0.438c0.257,0.014,0.454,0.235,0.439,0.492  c0,0.004,0,0.005,0,0.009c-0.012,0.253-0.227,0.447-0.479,0.436c-0.005,0.001-0.006,0.001-0.006,0.001L177.749,173.677z   M189.068,174.296c-0.248-0.006-0.444-0.213-0.436-0.461c0-0.006,0-0.015,0.002-0.022c0.004-0.257,0.218-0.461,0.475-0.456  c0.009,0,0.015,0,0.024,0c0.26,0.017,0.457,0.241,0.441,0.499c-0.017,0.26-0.241,0.457-0.499,0.441  C189.071,174.296,189.07,174.296,189.068,174.296z M188.462,221.838c-0.167-0.156-0.18-0.418-0.027-0.589  c0.155-0.17,0.418-0.182,0.589-0.027c0.17,0.155,0.182,0.418,0.027,0.589l0,0C188.893,221.979,188.633,221.991,188.462,221.838  L188.462,221.838z M195.326,214.391c-0.168-0.156-0.18-0.418-0.027-0.589c0.15-0.175,0.413-0.193,0.588-0.043  s0.193,0.413,0.043,0.588c-0.005,0.006-0.01,0.011-0.017,0.018c-0.148,0.17-0.407,0.187-0.576,0.039  C195.334,214.399,195.329,214.394,195.326,214.391L195.326,214.391z M202.472,207.041c-0.104,0.012-0.208-0.024-0.284-0.099  c-0.168-0.156-0.18-0.418-0.027-0.589c0.158-0.175,0.427-0.19,0.603-0.032c0.001,0.001,0.001,0.001,0.004,0.004  c0.103,0.094,0.154,0.234,0.133,0.373l0.001,0.017c-0.007,0.079-0.047,0.151-0.11,0.2  C202.716,207.008,202.594,207.056,202.472,207.041L202.472,207.041z M209.051,199.495c-0.171-0.16-0.18-0.428-0.018-0.598  c0.161-0.17,0.428-0.179,0.598-0.018c0.167,0.156,0.18,0.418,0.027,0.589c-0.158,0.175-0.427,0.19-0.603,0.032  C209.055,199.496,209.053,199.496,209.051,199.495L209.051,199.495z M170.875,183.259c-0.235,0.001-0.429-0.182-0.444-0.416  c-0.011-0.223,0.161-0.413,0.385-0.424c0,0,0.011,0,0.019,0c0.23-0.014,0.428,0.161,0.44,0.391c0,0.004,0,0.005,0,0.009  C171.279,183.045,171.104,183.238,170.875,183.259z M180.976,182.835c-0.228,0.006-0.418-0.174-0.425-0.401  c-0.011-0.223,0.161-0.413,0.385-0.423c0.006,0,0.011,0,0.019,0c0.23-0.014,0.428,0.161,0.442,0.391c0,0.004,0,0.005,0,0.009  C181.393,182.64,181.208,182.829,180.976,182.835L180.976,182.835z M191.113,182.425c-0.23,0.014-0.428-0.161-0.44-0.391  c0-0.004,0-0.005,0-0.009c-0.018-0.217,0.146-0.406,0.362-0.424c0.014-0.001,0.027-0.001,0.04-0.001  c0.23-0.014,0.428,0.161,0.442,0.391c0,0.004,0,0.005,0,0.009C191.516,182.225,191.339,182.413,191.113,182.425L191.113,182.425z   M212.956,219.518c-0.214-0.076-0.324-0.312-0.247-0.527c0.001-0.006,0.005-0.011,0.007-0.019c0.071-0.207,0.296-0.317,0.503-0.248  c0.009,0.004,0.016,0.005,0.024,0.009c0.217,0.073,0.336,0.31,0.262,0.528c-0.001,0.005-0.004,0.01-0.005,0.014  C213.411,219.489,213.172,219.596,212.956,219.518L212.956,219.518z M181.07,202.983c-0.213,0.09-0.458-0.005-0.553-0.216  c-0.097-0.208-0.008-0.454,0.199-0.55c0.211-0.093,0.46-0.008,0.567,0.196C181.38,202.629,181.285,202.882,181.07,202.983z   M190.263,198.717c-0.198,0.1-0.44,0.021-0.54-0.176c-0.004-0.007-0.006-0.015-0.011-0.022c-0.097-0.208-0.008-0.454,0.199-0.55  c0.211-0.093,0.46-0.008,0.567,0.196C190.569,198.376,190.474,198.622,190.263,198.717z M199.458,194.469  c-0.208,0.097-0.454,0.008-0.55-0.199c-0.097-0.208-0.008-0.454,0.199-0.55c0.208-0.097,0.454-0.008,0.55,0.199  C199.754,194.127,199.664,194.371,199.458,194.469L199.458,194.469z M178.856,164.273c-0.207-0.071-0.317-0.296-0.247-0.503  c0.004-0.009,0.005-0.016,0.009-0.024c0.073-0.217,0.31-0.336,0.528-0.262c0.005,0.002,0.01,0.004,0.014,0.005  c0.212,0.088,0.318,0.327,0.241,0.545c-0.076,0.214-0.312,0.323-0.527,0.247C178.868,164.278,178.861,164.275,178.856,164.273  L178.856,164.273z M188.368,167.768c-0.217-0.081-0.332-0.321-0.257-0.542c0.086-0.217,0.332-0.326,0.552-0.239  c0.207,0.083,0.315,0.311,0.247,0.523c-0.07,0.216-0.302,0.336-0.518,0.266C188.383,167.776,188.376,167.772,188.368,167.768  L188.368,167.768z M212.494,214.568c-0.117-0.074-0.152-0.228-0.079-0.345c0.074-0.117,0.229-0.152,0.345-0.078  c0.116,0.073,0.152,0.229,0.078,0.345l0,0C212.765,214.601,212.613,214.636,212.494,214.568L212.494,214.568z M197.951,194.209  c-0.131,0.032-0.263-0.05-0.295-0.181c-0.032-0.131,0.05-0.263,0.181-0.295s0.263,0.05,0.295,0.181l0,0  C198.164,194.046,198.084,194.178,197.951,194.209L197.951,194.209L197.951,194.209z M203.764,192.841  c-0.136,0.024-0.266-0.063-0.296-0.198c-0.032-0.131,0.05-0.263,0.181-0.295l0,0c0.125-0.035,0.255,0.038,0.29,0.163  c0.001,0.007,0.003,0.012,0.005,0.019c0.037,0.133-0.04,0.271-0.173,0.31C203.769,192.839,203.766,192.839,203.764,192.841z   M205.793,204.085c-0.071-0.114-0.046-0.261,0.056-0.345c0.105-0.081,0.258-0.061,0.339,0.046c0.004,0.004,0.005,0.006,0.009,0.012  c0.081,0.101,0.064,0.251-0.038,0.332c-0.006,0.005-0.012,0.01-0.012,0.01C206.027,204.22,205.873,204.195,205.793,204.085z   M200.499,181.976c-0.134-0.02-0.225-0.144-0.205-0.278c0.02-0.134,0.144-0.225,0.278-0.205l0,0c0.125,0.01,0.22,0.12,0.21,0.246  c0,0.01-0.002,0.021-0.005,0.031c-0.017,0.13-0.138,0.223-0.269,0.206c-0.001-0.001-0.005-0.001-0.005-0.001L200.499,181.976  L200.499,181.976z M207.905,220.245c-0.111-0.099-0.121-0.27-0.022-0.381c0.001-0.001,0.004-0.005,0.004-0.005  c0.1-0.118,0.273-0.133,0.389-0.036c0.005,0.005,0.011,0.01,0.016,0.015c0.112,0.099,0.121,0.27,0.022,0.381  c-0.001,0.001-0.004,0.005-0.004,0.005C208.201,220.34,208.022,220.348,207.905,220.245L207.905,220.245z M212.476,215.195  c-0.116-0.105-0.126-0.287-0.019-0.403c0.107-0.116,0.287-0.126,0.403-0.019l0,0c0.112,0.099,0.121,0.27,0.022,0.381  c0,0-0.004,0.005-0.005,0.006c-0.092,0.12-0.265,0.143-0.385,0.049C212.486,215.205,212.481,215.2,212.476,215.195L212.476,215.195z   M195.775,194.392c-0.144,0.015-0.272-0.091-0.288-0.233c-0.001-0.011-0.001-0.021-0.001-0.034  c-0.005-0.153,0.114-0.282,0.267-0.289c0.154,0,0.284,0.112,0.305,0.266c0.003,0.158-0.124,0.289-0.282,0.29H195.775  L195.775,194.392z M202.586,194.061c-0.158,0.003-0.289-0.124-0.29-0.282v-0.001c-0.005-0.153,0.114-0.282,0.267-0.289  c0.154,0,0.284,0.112,0.306,0.265C202.867,193.911,202.745,194.044,202.586,194.061L202.586,194.061z M222.076,224.419  c-0.149-0.046-0.233-0.202-0.188-0.352c0.002-0.005,0.004-0.009,0.005-0.014c0.062-0.142,0.221-0.214,0.368-0.167  c0.146,0.052,0.222,0.212,0.17,0.359c-0.001,0.004-0.001,0.006-0.004,0.009C222.375,224.395,222.218,224.469,222.076,224.419  L222.076,224.419z M202.472,207.041c-0.031-0.025-0.058-0.056-0.079-0.091c-0.067-0.136-0.008-0.302,0.128-0.37  c0.004-0.001,0.005-0.004,0.009-0.005c0.136-0.062,0.297-0.01,0.371,0.12l0.001,0.016c0.067,0.136,0.008,0.302-0.128,0.37  c-0.004,0.001-0.006,0.004-0.006,0.004C202.669,207.136,202.55,207.117,202.472,207.041L202.472,207.041z M208.932,204.148  c-0.135,0.069-0.299,0.017-0.37-0.117c0-0.001-0.001-0.001-0.001-0.004c-0.067-0.14-0.015-0.309,0.119-0.388  c0.145-0.061,0.314-0.003,0.39,0.135C209.135,203.915,209.072,204.083,208.932,204.148L208.932,204.148z M178.144,224.88  c-0.248,0.1-0.53-0.011-0.644-0.254c-0.11-0.243-0.004-0.529,0.237-0.64c0.248-0.103,0.534,0.01,0.644,0.254  C178.493,224.483,178.385,224.768,178.144,224.88z M188.804,220.066c-0.243,0.111-0.529,0.004-0.64-0.237  c-0.111-0.243-0.004-0.529,0.237-0.64c0.243-0.111,0.529-0.004,0.64,0.237C189.153,219.669,189.047,219.955,188.804,220.066  L188.804,220.066z M199.468,215.271c-0.248,0.103-0.534-0.01-0.644-0.254c-0.101-0.247,0.016-0.526,0.26-0.628  c0.246-0.101,0.526,0.016,0.628,0.26C199.813,214.889,199.704,215.163,199.468,215.271z M210.13,210.458  c-0.243,0.11-0.529,0-0.639-0.243c-0.108-0.242-0.004-0.524,0.235-0.637c0.243-0.11,0.529,0,0.639,0.243  C210.473,210.062,210.37,210.347,210.13,210.458z M176.267,175.682c-0.251-0.103-0.377-0.384-0.286-0.64  c0.103-0.249,0.39-0.366,0.639-0.261c0.241,0.1,0.36,0.372,0.27,0.617C176.793,175.643,176.518,175.769,176.267,175.682  L176.267,175.682z M187.201,179.822c-0.246-0.098-0.372-0.372-0.285-0.623c0.093-0.251,0.372-0.378,0.623-0.285  c0.251,0.093,0.378,0.372,0.285,0.623C187.727,179.784,187.452,179.91,187.201,179.822z M198.134,183.962  c-0.247-0.097-0.375-0.372-0.285-0.623c0.103-0.251,0.384-0.377,0.64-0.286c0.249,0.105,0.365,0.392,0.26,0.641  C198.649,183.93,198.379,184.049,198.134,183.962L198.134,183.962z M212.233,224.606c-0.197-0.185-0.207-0.494-0.022-0.692  c0.185-0.197,0.494-0.207,0.692-0.022c0.197,0.185,0.207,0.494,0.022,0.692C212.736,224.774,212.432,224.784,212.233,224.606  L212.233,224.606z M177.831,201.122c-0.265-0.005-0.483-0.212-0.503-0.476c0.002-0.266,0.214-0.481,0.479-0.486  c0.262-0.013,0.487,0.187,0.5,0.451c0,0.004,0,0.006,0,0.01C178.316,200.888,178.103,201.113,177.831,201.122L177.831,201.122  L177.831,201.122z M189.531,200.76c-0.271,0.007-0.494-0.205-0.503-0.474c0,0,0,0,0-0.001c-0.007-0.261,0.2-0.478,0.461-0.483l0,0  c0.266-0.013,0.489,0.19,0.503,0.456c0.014,0.266-0.19,0.489-0.456,0.503h-0.005V200.76z M201.214,200.401  c-0.262,0.013-0.486-0.187-0.5-0.449c0-0.004,0-0.006,0-0.01c-0.016-0.268,0.189-0.501,0.459-0.516  c0.269-0.016,0.502,0.189,0.517,0.459c0.016,0.269-0.189,0.502-0.459,0.517C201.226,200.4,201.221,200.401,201.214,200.401z   M220.584,226.221c-0.191-0.18-0.216-0.478-0.056-0.687c0.182-0.196,0.486-0.213,0.689-0.039c0.2,0.16,0.232,0.451,0.071,0.65  c-0.005,0.006-0.012,0.013-0.017,0.02c-0.17,0.205-0.474,0.233-0.679,0.063C220.592,226.226,220.588,226.224,220.584,226.221  L220.584,226.221z M176.079,208.95c-0.264,0.012-0.488-0.194-0.5-0.459s0.194-0.488,0.459-0.5c0.257-0.011,0.478,0.183,0.499,0.441  C176.552,208.702,176.348,208.932,176.079,208.95L176.079,208.95z M187.699,208.109c-0.269,0.016-0.499-0.189-0.517-0.457  c-0.012-0.261,0.182-0.487,0.441-0.515c0.271-0.012,0.503,0.187,0.534,0.455C188.167,207.859,187.964,208.085,187.699,208.109  L187.699,208.109z M199.319,207.266c-0.269,0.016-0.499-0.189-0.517-0.457c-0.021-0.264,0.177-0.495,0.441-0.515  s0.495,0.177,0.515,0.441l0,0C199.777,207.001,199.584,207.236,199.319,207.266L199.319,207.266z M210.938,206.409  c-0.256,0.029-0.483-0.155-0.512-0.411c-0.001-0.01-0.001-0.02-0.003-0.03c-0.018-0.264,0.179-0.492,0.441-0.515  c0.264-0.019,0.493,0.179,0.512,0.442C211.395,206.159,211.2,206.387,210.938,206.409L210.938,206.409z M199.165,225.382  c-0.237,0.116-0.52,0.018-0.637-0.217c0,0-0.001-0.001-0.001-0.004c-0.123-0.237-0.033-0.527,0.202-0.652  c0.242-0.116,0.532-0.019,0.656,0.219C199.497,224.969,199.402,225.256,199.165,225.382L199.165,225.382z M209.583,220.143  c-0.237,0.121-0.526,0.029-0.647-0.207c-0.121-0.236-0.029-0.526,0.207-0.647c0.001-0.001,0.005-0.001,0.006-0.004  c0.242-0.113,0.531-0.018,0.656,0.219c0.116,0.237,0.018,0.521-0.217,0.637l-0.004,0.001L209.583,220.143z M184.785,186.198  c-0.252-0.09-0.387-0.367-0.301-0.621c0.085-0.249,0.355-0.383,0.604-0.299c0.25,0.072,0.394,0.332,0.323,0.583  c-0.001,0.006-0.004,0.014-0.007,0.02c-0.077,0.256-0.349,0.401-0.603,0.322C184.795,186.201,184.79,186.199,184.785,186.198  L184.785,186.198z M195.843,189.864c-0.252-0.09-0.387-0.367-0.301-0.621c0.085-0.249,0.355-0.383,0.604-0.299  c0.25,0.072,0.394,0.332,0.322,0.583c-0.001,0.006-0.004,0.014-0.007,0.02c-0.078,0.256-0.348,0.401-0.604,0.322  C195.853,189.867,195.848,189.865,195.843,189.864L195.843,189.864z M195.411,203.394c-0.199-0.027-0.338-0.212-0.309-0.411  c0.027-0.194,0.205-0.333,0.401-0.311c0.191,0.019,0.332,0.188,0.314,0.38c-0.002,0.011-0.004,0.025-0.005,0.036  C195.781,203.281,195.605,203.417,195.411,203.394L195.411,203.394z M204.098,204.594c-0.199-0.029-0.338-0.217-0.309-0.416  c0.029-0.201,0.217-0.338,0.416-0.309l0,0c0.198,0.026,0.337,0.207,0.311,0.403c0,0.005-0.002,0.009-0.002,0.014  C204.482,204.484,204.298,204.62,204.098,204.594L204.098,204.594z M212.804,205.793c-0.199-0.029-0.338-0.217-0.309-0.416  s0.217-0.338,0.416-0.309s0.338,0.217,0.309,0.416l0,0C213.186,205.683,213.002,205.818,212.804,205.793L212.804,205.793z   M201.182,221.124c-0.194,0.047-0.39-0.072-0.44-0.263c-0.038-0.193,0.075-0.384,0.263-0.44c0.194-0.05,0.39,0.067,0.44,0.261  c0,0.001,0,0.001,0.001,0.004c0.053,0.185-0.053,0.38-0.238,0.434C201.198,221.119,201.189,221.123,201.182,221.124z   M209.693,218.911c-0.197,0.047-0.397-0.068-0.457-0.262c-0.05-0.194,0.067-0.39,0.26-0.44h0.001  c0.187-0.057,0.383,0.048,0.438,0.233c0.001,0.005,0.001,0.009,0.003,0.014c0.058,0.192-0.048,0.394-0.241,0.454L209.693,218.911  L209.693,218.911z M218.188,216.683c-0.185,0.053-0.38-0.053-0.434-0.238c-0.001-0.009-0.005-0.016-0.006-0.025  c-0.057-0.184,0.046-0.377,0.229-0.434c0.007-0.001,0.012-0.004,0.019-0.005c0.197-0.047,0.397,0.068,0.457,0.262  c0.05,0.194-0.067,0.39-0.26,0.44c-0.002-0.001-0.004-0.001-0.004-0.001h-0.001V216.683z M220.443,218.132  c-0.109,0.012-0.211-0.065-0.226-0.174c-0.014-0.111,0.063-0.212,0.174-0.226c0.111-0.014,0.212,0.063,0.226,0.174  c0,0.005,0.001,0.012,0.001,0.017C220.622,218.028,220.546,218.118,220.443,218.132L220.443,218.132z M211.488,214.766  c-0.171-0.057-0.264-0.241-0.207-0.414l0,0c0.042-0.161,0.206-0.256,0.365-0.214c0.01,0.004,0.02,0.005,0.03,0.01  c0.164,0.038,0.266,0.205,0.228,0.369c-0.002,0.009-0.005,0.016-0.007,0.025c-0.044,0.171-0.218,0.275-0.389,0.229  C211.502,214.771,211.495,214.769,211.488,214.766L211.488,214.766z M219.1,217.056c-0.164-0.038-0.266-0.205-0.228-0.369  c0.002-0.009,0.005-0.016,0.007-0.025c0.044-0.171,0.218-0.274,0.389-0.229c0.006,0.002,0.015,0.004,0.021,0.007  c0.174,0.052,0.273,0.236,0.224,0.41c-0.051,0.167-0.228,0.263-0.395,0.212C219.111,217.059,219.106,217.057,219.1,217.056  L219.1,217.056z"/> <path fill="#FFBEB6" d="M170.436,122.771c0.145,9.942-0.167,17.922-0.365,27.863c-0.014,0.704-0.005,4.308-0.276,4.958  c-0.334,0.804-0.668,0.931-1.413,1.059c-0.327,0.056-1.077-0.194-1.617-0.578c-1.967-1.397,0.514-21.1,0.575-31.984  C168.3,123.502,169.347,123.056,170.436,122.771z"/> <linearGradient id="SVGID_5_4IdwjwW-wjF7ESAeBhXzT" gradientUnits="userSpaceOnUse" x1="100.0652" y1="212.1402" x2="200.0906" y2="212.1402" gradientTransform="matrix(1 0 0 -1 0 310)">  <stop offset="0" stop-color="#92C4FE"/>  <stop offset="1" stop-color="#74B4F7"/> </linearGradient> <path fill="url(#SVGID_5_4IdwjwW-wjF7ESAeBhXzT)" d="M100.78,69.347c0.702-3.164,6.627-7.094,9.764-7.965c4.308-1.197,8.99,0.509,12.692,3.431  c26.666,21.043,49.382,38.427,76.048,59.47c3.292,8.691-4.036,12.368-12.125,9.462c-18.911-8.383-18.553-10.176-37.044-19.549  c-12.71-6.443-34.483-11.158-43.168-22.494C101.019,83.964,98.781,78.354,100.78,69.347z"/> <g>  <path fill="#008EFF" d="M88.861,82.303l0.834-6.418l0.917-0.667c8.365-4.001,14.145-6.223,24.924-9.169   c1.879-0.514,5.087-0.953,7.835-0.667c2.245,0.234,3.935,0.769,5.335,2.001c2.084,1.834,5.745,6.069,5.83,6.122   c-2.004-1.195-7.393-3.127-9.665-3.037c-8.419,0.333-22.256,5.085-34.98,11.538L88.861,82.303z"/> </g> </g></g><g transform="translate(95.725 555.039) scale(2.256 2.255) rotate(0 29.995567375886527 48.99334811529934)"><g clip-path="url(#clipPath_e-YRzvc01lsWt1rbMoEVV)"><defs>
          <clipPath id="clipPath_e-YRzvc01lsWt1rbMoEVV">
            <rect x="0" y="0" width="60" height="98"/>
          </clipPath>
       </defs> <g>  <g>   <path fill="#C4D9F8" d="M0.506,98c-0.058,0-0.115-0.01-0.172-0.03c-0.263-0.094-0.399-0.382-0.304-0.643    c1.953-5.335,3.783-10.824,5.553-16.132c3.657-10.971,7.439-22.314,12.52-32.937C26.965,29.73,38.487,16.636,52.347,9.336    c0.244-0.13,0.553-0.037,0.684,0.208c0.132,0.245,0.037,0.549-0.21,0.678C39.159,17.419,27.785,30.36,19.018,48.688    c-5.054,10.565-8.826,21.88-12.474,32.822C4.772,86.825,2.94,92.32,0.982,97.669C0.907,97.874,0.713,98,0.506,98z"/>  </g>  <g>   <path fill="#C4D9F8" d="M45.805,34.323c-0.046,0-0.092-0.006-0.139-0.019l-15.824-4.441c-0.269-0.075-0.425-0.353-0.349-0.619    c0.076-0.266,0.353-0.423,0.626-0.346l15.824,4.441c0.269,0.075,0.425,0.353,0.349,0.619    C46.229,34.179,46.027,34.323,45.805,34.323z"/>  </g>  <g>   <path fill="#C4D9F8" d="M48.086,30.826c-0.046,0-0.092-0.006-0.139-0.019l-15.567-4.369c-0.269-0.075-0.425-0.353-0.349-0.619    c0.076-0.266,0.354-0.425,0.626-0.346l15.567,4.369c0.269,0.075,0.425,0.353,0.349,0.619    C48.51,30.681,48.308,30.826,48.086,30.826z"/>  </g>  <g>   <path fill="#C4D9F8" d="M50.368,27.328c-0.046,0-0.092-0.006-0.139-0.019l-14.48-4.064c-0.27-0.075-0.426-0.353-0.35-0.619    c0.076-0.266,0.358-0.423,0.625-0.346l14.482,4.064c0.269,0.075,0.425,0.353,0.349,0.619    C50.792,27.183,50.59,27.328,50.368,27.328z"/>  </g>  <g>   <path fill="#C4D9F8" d="M52.649,23.831c-0.046,0-0.092-0.006-0.139-0.019l-13.517-3.793c-0.269-0.075-0.425-0.353-0.349-0.619    s0.353-0.425,0.626-0.346l13.517,3.793c0.269,0.075,0.425,0.353,0.349,0.619C53.073,23.686,52.871,23.831,52.649,23.831z"/>  </g>  <g>   <path fill="#C4D9F8" d="M54.931,20.333c-0.046,0-0.092-0.006-0.139-0.019l-12.369-3.471c-0.269-0.075-0.425-0.353-0.349-0.619    c0.076-0.266,0.353-0.424,0.626-0.346l12.369,3.471c0.269,0.075,0.425,0.353,0.349,0.619    C55.355,20.189,55.153,20.333,54.931,20.333z"/>  </g>  <g>   <path fill="#C4D9F8" d="M57.212,16.836c-0.046,0-0.092-0.006-0.139-0.019l-10.551-2.961c-0.27-0.075-0.426-0.353-0.35-0.619    c0.076-0.266,0.358-0.423,0.625-0.346l10.553,2.961c0.269,0.075,0.425,0.353,0.349,0.619    C57.636,16.691,57.434,16.836,57.212,16.836z"/>  </g>  <g>   <path fill="#C4D9F8" d="M59.494,13.338c-0.046,0-0.092-0.006-0.139-0.019l-8.335-2.339c-0.269-0.075-0.425-0.353-0.349-0.619    c0.076-0.266,0.352-0.422,0.626-0.346l8.335,2.339c0.269,0.075,0.425,0.353,0.349,0.619    C59.918,13.194,59.716,13.338,59.494,13.338z"/>  </g>  <g>   <path fill="#C4D9F8" d="M29.836,29.833c-0.226,0-0.431-0.15-0.49-0.376l-4.093-15.783c-0.069-0.269,0.094-0.542,0.364-0.611    c0.268-0.07,0.546,0.093,0.616,0.361l4.093,15.783c0.069,0.269-0.094,0.542-0.364,0.611C29.92,29.828,29.877,29.833,29.836,29.833    z"/>  </g>  <g>   <path fill="#C4D9F8" d="M33.009,26.071c-0.226,0-0.431-0.15-0.49-0.376l-3.682-14.196c-0.069-0.269,0.094-0.542,0.364-0.611    c0.267-0.068,0.547,0.093,0.616,0.361l3.682,14.196c0.069,0.269-0.094,0.542-0.364,0.611    C33.093,26.066,33.051,26.071,33.009,26.071z"/>  </g>  <g>   <path fill="#C4D9F8" d="M36.254,22.588c-0.226,0-0.431-0.15-0.49-0.376L32.421,9.324c-0.069-0.269,0.094-0.542,0.364-0.611    c0.268-0.069,0.546,0.093,0.616,0.361l3.343,12.888c0.069,0.269-0.094,0.542-0.364,0.611    C36.338,22.584,36.296,22.588,36.254,22.588z"/>  </g>  <g>   <path fill="#C4D9F8" d="M39.534,19.24c-0.226,0-0.431-0.15-0.49-0.376L36.006,7.15c-0.069-0.269,0.094-0.542,0.364-0.611    c0.268-0.067,0.547,0.093,0.616,0.361l3.038,11.714c0.069,0.269-0.094,0.542-0.363,0.611C39.618,19.235,39.576,19.24,39.534,19.24    z"/>  </g>  <g>   <path fill="#C4D9F8" d="M42.937,16.366c-0.226,0-0.431-0.15-0.49-0.376L39.59,4.976c-0.069-0.269,0.094-0.542,0.364-0.611    c0.268-0.069,0.546,0.092,0.616,0.361l2.857,11.014c0.069,0.269-0.094,0.542-0.363,0.611    C43.021,16.361,42.979,16.366,42.937,16.366z"/>  </g>  <g>   <path fill="#C4D9F8" d="M46.394,13.703c-0.226,0-0.431-0.15-0.49-0.376L43.175,2.801c-0.069-0.269,0.094-0.542,0.364-0.611    c0.268-0.071,0.547,0.093,0.616,0.361l2.729,10.525c0.069,0.269-0.094,0.542-0.363,0.611    C46.478,13.698,46.437,13.703,46.394,13.703z"/>  </g>  <g>   <path fill="#C4D9F8" d="M50.009,11.639c-0.226,0-0.431-0.15-0.49-0.376l-2.76-10.637c-0.069-0.269,0.094-0.542,0.364-0.611    c0.266-0.068,0.547,0.093,0.616,0.361l2.76,10.637c0.069,0.269-0.094,0.542-0.363,0.611C50.093,11.634,50.05,11.639,50.009,11.639    z"/>  </g> </g> </g></g><g transform="translate(24.375 607.56) scale(0.414 0.414) rotate(-7.554780646927602 87.41545893719807 199.80676328502415)"><g clip-path="url(#clipPath_HCHQpV3VyX-s_4XRxt1S1)"><defs>
          <clipPath id="clipPath_HCHQpV3VyX-s_4XRxt1S1">
            <rect x="0" y="0" width="175" height="400"/>
          </clipPath>
       </defs> <g>  <path fill="#23286B" d="M25.731,400c-0.018,0-0.038,0-0.056,0c-1.539-1.905-2.761-1.752-2.732-3.286   C24.888,296.363,63.21,172.773,128.086,58.031c0.756-1.336,2.46-1.922,3.795-1.17c1.34,0.753,1.816,2.39,1.059,3.726   C68.504,174.555,30.443,297.389,28.516,396.849C28.487,398.365,27.244,400,25.731,400z"/> </g> <path fill="#A1C3FC" d="M89.908,32.579c5.797-10.908,29.252-9.847,52.389,2.369s37.194,30.961,31.398,41.868  s-29.252,9.847-52.389-2.369S84.111,43.487,89.908,32.579z"/> <g>  <path fill="#23286B" d="M136.411,52.373c-0.347,0-0.7-0.065-1.041-0.203c-1.428-0.575-2.117-2.194-1.54-3.616   c7.996-19.738,18.576-32.366,29.775-45.735l1.524-1.82c0.987-1.179,2.74-1.336,3.927-0.355c1.181,0.983,1.34,2.734,0.355,3.913   l-1.528,1.824c-10.912,13.024-21.217,25.326-28.886,44.254C138.559,51.717,137.515,52.373,136.411,52.373z"/> </g> <g>  <path fill="#23286B" d="M23.215,397.957C2.276,369.552-4.262,331.885,2.646,279.44c-1.52-22.006-1.812-44.294-0.871-66.249   c1.311-30.506,4.692-62.521,20.41-89.984c1.522-2.661,3.453-5.381,6.225-5.381c1.259,0,2.417,0.593,3.262,1.669   c5.405,6.886,0.08,48.614-2.839,60.358c-5.554,22.334-10.651,45.115-15.149,67.71c-2.375,11.918-4.153,22.407-5.44,32.049   c2.749,39.206,9.444,78.221,19.904,115.96L23.215,397.957z M5.651,310.801c-0.696,27.034,3.341,49.222,12.312,67.726   C12.566,356.253,8.449,333.606,5.651,310.801z M27.885,124.572c-0.247,0.361-0.532,0.816-0.86,1.387   c-15.13,26.434-18.399,57.661-19.68,87.469c-0.563,13.057-0.68,26.232-0.361,39.395c0.391-2.07,0.802-4.182,1.232-6.341   c4.516-22.681,9.632-45.548,15.207-67.966C27.273,163.021,29.624,132.631,27.885,124.572z"/> </g> </g></g><g transform="translate(460 20.621) scale(1.41 1.411) rotate(0 100.01418439716313 28.99362154500354)"><g clip-path="url(#clipPath_axlNf0Uk5Y1fTIxaRWuTk)"><defs>
          <clipPath id="clipPath_axlNf0Uk5Y1fTIxaRWuTk">
            <rect x="0" y="0" width="200" height="58"/>
          </clipPath>
       </defs> <g>  <path fill="#DAE8FE" d="M0,0c0.667,32.55,26.914,58,59.238,58s58.59-25.45,59.257-58C118.495,0,0,0,0,0z"/>  <path fill="#C3D9FD" d="M65.048,0c0.438,21.7,17.752,38.261,39.067,38.261S142.763,21.701,143.182,0C143.182,0,65.048,0,65.048,0z"/>  <path fill="#AFCCFC" d="M107.029,0c0.514,25.316,21.124,45.513,46.476,45.513S199.486,25.316,200,0H107.029z"/> </g> </g></g><g transform="translate(208.23929802554056 103.907) scale(-0.862 0.865) rotate(21.854827208528047 34.535962877030165 24.47398843930636)"><g clip-path="url(#clipPath_MsWUWDMdqMarCqzO2K8Tl)"><defs>
          <clipPath id="clipPath_MsWUWDMdqMarCqzO2K8Tl">
            <rect x="0" y="0" width="69.064" height="48.963"/>
          </clipPath>
       </defs> <polygon fill="#A1C3FC" points="14.371,22.846 0,30.389 13.592,35.611 "/> <g>  <polygon fill="#A1C3FC" points="15.191,20.55 0.82,28.092 14.412,33.315  "/>  <g>   <g>         <linearGradient id="SVGID_1_MsWUWDMdqMarCqzO2K8Tl" gradientUnits="userSpaceOnUse" x1="-210.6985" y1="-906.3441" x2="-150.9044" y2="-906.3441" gradientTransform="matrix(0.9981 0.0609 -0.0609 0.9981 163.868 944.5246)">     <stop offset="0.4892" stop-color="#A1C3FC"/>     <stop offset="1" stop-color="#78A9EF"/>    </linearGradient>    <path fill="url(#SVGID_1_MsWUWDMdqMarCqzO2K8Tl)" d="M68.034,12.576c-0.227-0.766-0.781-2.242-0.781-2.242s-9.951,9.35-28.804,6.434     c-0.165-0.025-0.329-0.048-0.494-0.073c-2.713-3.756-7.024-6.312-12.009-6.616c-8.015-0.489-14.992,5.013-16.615,12.636     c-0.494,1.444-0.602,3.152-0.256,5.152c0.29,2.573,1.193,4.969,2.57,7.04c6.244,11.271,20.759,16.861,34.942,12.659     C62.74,42.783,72.342,27.117,68.034,12.576z"/>   </g>  </g>  <path fill="#A1C3FC" d="M45.382,0.477c7.783,3.395,11.232,12.702,7.705,20.789c-3.527,8.086-12.696,11.89-20.479,8.495   s-2.459-10.448,4.335-16.075C44.738,7.229,44.142,0,44.142,0S44.972,0.298,45.382,0.477z"/>  <circle fill="#23286B" cx="17.126" cy="24.327" r="2.645"/> </g> </g></g><g transform="translate(623.286 458.775) scale(2.116 2.112) rotate(-45.674036897984344 51.006616257088844 57.4905303030303)"><g clip-path="url(#clipPath_COeBo4xISiGxj4R0FGj9k)"><defs>
          <clipPath id="clipPath_COeBo4xISiGxj4R0FGj9k">
            <rect x="0" y="0" width="102" height="115"/>
          </clipPath>
       </defs> <g>  <g>   <path fill="#C4D9F8" d="M0.499,115c-0.1,0-0.199-0.029-0.286-0.09c-0.227-0.158-0.282-0.471-0.124-0.696    c3.843-5.505,7.912-10.991,11.848-16.297c8.109-10.93,16.495-22.232,23.296-34.257C47.035,42.795,51.882,23.093,49.638,5.102    c-0.034-0.273,0.16-0.523,0.434-0.558c0.256-0.038,0.522,0.158,0.557,0.435c2.271,18.208-2.616,38.118-14.527,59.174    C29.271,76.232,20.867,87.56,12.741,98.514c-3.932,5.299-7.997,10.779-11.831,16.272C0.811,114.926,0.656,115,0.499,115z"/>  </g>  <g>   <path fill="#C4D9F8" d="M46.413,40.498c-0.111,0-0.223-0.036-0.315-0.112L31.177,28.252c-0.214-0.174-0.247-0.488-0.072-0.703    c0.175-0.214,0.488-0.249,0.702-0.072l14.921,12.134c0.214,0.174,0.247,0.488,0.072,0.703    C46.702,40.435,46.558,40.498,46.413,40.498z"/>  </g>  <g>   <path fill="#C4D9F8" d="M48.012,35.742c-0.111,0-0.223-0.036-0.314-0.112l-14.68-11.937c-0.214-0.174-0.247-0.488-0.072-0.703    c0.174-0.214,0.487-0.248,0.702-0.072l14.68,11.937c0.214,0.174,0.247,0.488,0.072,0.703    C48.301,35.678,48.157,35.742,48.012,35.742z"/>  </g>  <g>   <path fill="#C4D9F8" d="M48.829,30.348c-0.111,0-0.223-0.036-0.314-0.112L34.859,19.133c-0.214-0.175-0.247-0.489-0.073-0.704    c0.176-0.214,0.489-0.246,0.703-0.073l13.656,11.104c0.214,0.174,0.247,0.488,0.072,0.703    C49.118,30.285,48.974,30.348,48.829,30.348z"/>  </g>  <g>   <path fill="#C4D9F8" d="M49.761,25.047c-0.111,0-0.223-0.036-0.315-0.111L36.7,14.572c-0.214-0.175-0.247-0.489-0.072-0.704    c0.174-0.214,0.488-0.248,0.702-0.072L50.076,24.16c0.214,0.175,0.247,0.489,0.072,0.704    C50.049,24.984,49.906,25.047,49.761,25.047z"/>  </g>  <g>   <path fill="#C4D9F8" d="M50.519,19.606c-0.111,0-0.223-0.036-0.315-0.112l-11.663-9.484c-0.214-0.174-0.247-0.488-0.072-0.703    c0.175-0.214,0.488-0.248,0.702-0.072l11.663,9.484c0.214,0.174,0.247,0.488,0.072,0.703    C50.807,19.542,50.664,19.606,50.519,19.606z"/>  </g>  <g>   <path fill="#C4D9F8" d="M50.648,13.654c-0.111,0-0.223-0.036-0.315-0.112l-9.951-8.093c-0.214-0.174-0.247-0.488-0.072-0.703    c0.174-0.214,0.488-0.248,0.702-0.072l9.951,8.093c0.214,0.174,0.247,0.488,0.072,0.703C50.937,13.59,50.794,13.654,50.648,13.654    z"/>  </g>  <g>   <path fill="#C4D9F8" d="M50.399,7.393c-0.111,0-0.223-0.036-0.314-0.112l-7.86-6.393C42.01,0.714,41.977,0.4,42.152,0.185    c0.174-0.214,0.488-0.248,0.702-0.072l7.86,6.393c0.214,0.174,0.247,0.488,0.072,0.703C50.687,7.33,50.544,7.393,50.399,7.393z"/>  </g>  <g>   <path fill="#C4D9F8" d="M46.559,40.604c-0.202,0-0.392-0.123-0.467-0.323c-0.098-0.259,0.033-0.547,0.291-0.645l17.981-6.803    c0.26-0.096,0.547,0.033,0.644,0.291c0.098,0.259-0.033,0.547-0.291,0.645l-17.981,6.803    C46.678,40.593,46.618,40.604,46.559,40.604z"/>  </g>  <g>   <path fill="#C4D9F8" d="M48.055,35.011c-0.202,0-0.392-0.123-0.467-0.323c-0.098-0.259,0.033-0.547,0.291-0.645l16.172-6.119    c0.262-0.096,0.547,0.033,0.644,0.291c0.098,0.259-0.033,0.547-0.291,0.645l-16.172,6.119C48.174,35,48.114,35.011,48.055,35.011z    "/>  </g>  <g>   <path fill="#C4D9F8" d="M49.235,29.538c-0.202,0-0.392-0.123-0.467-0.323c-0.098-0.259,0.033-0.547,0.291-0.645l14.683-5.555    c0.26-0.097,0.547,0.033,0.644,0.291c0.098,0.259-0.033,0.547-0.291,0.645l-14.683,5.555    C49.352,29.527,49.293,29.538,49.235,29.538z"/>  </g>  <g>   <path fill="#C4D9F8" d="M50.26,24.123c-0.202,0-0.392-0.123-0.467-0.323c-0.098-0.259,0.033-0.547,0.291-0.645l13.346-5.049    c0.261-0.095,0.547,0.033,0.644,0.291c0.098,0.259-0.033,0.547-0.291,0.645l-13.346,5.049    C50.379,24.112,50.319,24.123,50.26,24.123z"/>  </g>  <g>   <path fill="#C4D9F8" d="M50.746,18.911c-0.202,0-0.392-0.123-0.467-0.323c-0.098-0.259,0.033-0.547,0.291-0.645l12.548-4.747    c0.261-0.096,0.546,0.032,0.644,0.291c0.098,0.259-0.033,0.547-0.291,0.645l-12.548,4.747    C50.864,18.9,50.804,18.911,50.746,18.911z"/>  </g>  <g>   <path fill="#C4D9F8" d="M50.992,13.792c-0.202,0-0.392-0.123-0.467-0.323c-0.098-0.259,0.033-0.547,0.291-0.645l11.992-4.537    c0.262-0.096,0.547,0.033,0.644,0.291c0.098,0.259-0.033,0.547-0.291,0.645L51.168,13.76C51.11,13.781,51.05,13.792,50.992,13.792    z"/>  </g>  <g>   <path fill="#C4D9F8" d="M50.553,8.93c-0.202,0-0.391-0.123-0.467-0.323c-0.098-0.258,0.032-0.547,0.291-0.645l12.119-4.585    c0.26-0.097,0.547,0.033,0.644,0.291c0.098,0.259-0.033,0.547-0.291,0.645L50.73,8.898C50.672,8.919,50.612,8.93,50.553,8.93z"/>  </g> </g> <g>  <g>   <path fill="#C4D9F8" d="M10.527,114.308c-0.122,0-0.245-0.045-0.341-0.135c-0.201-0.188-0.212-0.505-0.023-0.707    c4.052-4.339,8.048-8.878,11.913-13.267c7.991-9.073,16.254-18.455,25.458-26.611c16.048-14.224,32.399-22.136,48.597-23.516    c0.253-0.023,0.515,0.181,0.539,0.456c0.023,0.274-0.181,0.517-0.455,0.54c-15.979,1.361-32.136,9.19-48.02,23.268    c-9.157,8.116-17.4,17.476-25.371,26.525c-3.87,4.394-7.871,8.937-11.932,13.288C10.793,114.254,10.66,114.308,10.527,114.308z"/>  </g>  <g>   <path fill="#C4D9F8" d="M79.839,71.457c-0.11,0-0.222-0.036-0.314-0.111L66.274,60.621c-0.215-0.174-0.248-0.488-0.074-0.703    s0.486-0.249,0.702-0.074l13.251,10.726c0.215,0.174,0.248,0.488,0.074,0.703C80.128,71.394,79.985,71.457,79.839,71.457z"/>  </g>  <g>   <path fill="#C4D9F8" d="M83.45,69.02c-0.11,0-0.222-0.036-0.314-0.111L70.099,58.358c-0.215-0.174-0.248-0.488-0.074-0.703    c0.174-0.215,0.487-0.248,0.702-0.074l13.037,10.552c0.215,0.174,0.248,0.488,0.074,0.703C83.74,68.956,83.595,69.02,83.45,69.02z    "/>  </g>  <g>   <path fill="#C4D9F8" d="M87.059,66.582c-0.11,0-0.222-0.036-0.314-0.111l-12.127-9.815c-0.215-0.174-0.248-0.488-0.074-0.703    c0.174-0.215,0.487-0.249,0.702-0.074l12.127,9.815c0.215,0.174,0.248,0.488,0.074,0.703    C87.349,66.519,87.204,66.582,87.059,66.582z"/>  </g>  <g>   <path fill="#C4D9F8" d="M90.669,64.144c-0.11,0-0.222-0.036-0.314-0.111l-11.32-9.162c-0.215-0.174-0.248-0.488-0.074-0.703    c0.173-0.215,0.487-0.249,0.702-0.074l11.32,9.162c0.215,0.173,0.248,0.488,0.074,0.703C90.959,64.08,90.815,64.144,90.669,64.144    z"/>  </g>  <g>   <path fill="#C4D9F8" d="M94.28,61.706c-0.11,0-0.222-0.036-0.314-0.111l-10.357-8.384c-0.215-0.174-0.248-0.488-0.074-0.703    c0.174-0.215,0.486-0.248,0.702-0.074l10.358,8.384c0.215,0.174,0.248,0.488,0.074,0.703    C94.569,61.643,94.425,61.706,94.28,61.706z"/>  </g>  <g>   <path fill="#C4D9F8" d="M97.889,59.269c-0.11,0-0.222-0.036-0.314-0.111l-8.837-7.153c-0.215-0.174-0.248-0.488-0.074-0.703    c0.174-0.214,0.486-0.248,0.702-0.074l8.837,7.153c0.215,0.174,0.248,0.488,0.074,0.703    C98.179,59.205,98.035,59.269,97.889,59.269z"/>  </g>  <g>   <path fill="#C4D9F8" d="M101.5,56.83c-0.11,0-0.222-0.036-0.314-0.111l-6.98-5.649c-0.215-0.174-0.248-0.488-0.074-0.703    c0.173-0.215,0.487-0.249,0.702-0.074l6.98,5.649c0.215,0.174,0.248,0.488,0.074,0.703C101.79,56.767,101.645,56.83,101.5,56.83z"/>  </g>  <g>   <path fill="#C4D9F8" d="M66.471,60.625c-0.025,0-0.051-0.002-0.077-0.006c-0.272-0.042-0.459-0.297-0.417-0.57l2.583-16.866    c0.042-0.272,0.293-0.459,0.569-0.418c0.272,0.042,0.459,0.297,0.417,0.57l-2.583,16.866    C66.925,60.449,66.713,60.625,66.471,60.625z"/>  </g>  <g>   <path fill="#C4D9F8" d="M71.039,58.296c-0.025,0-0.051-0.002-0.077-0.006c-0.272-0.042-0.459-0.297-0.417-0.57l2.322-15.17    c0.042-0.272,0.296-0.459,0.569-0.418c0.272,0.042,0.459,0.297,0.417,0.57l-2.322,15.17C71.493,58.119,71.28,58.296,71.039,58.296    z"/>  </g>  <g>   <path fill="#C4D9F8" d="M75.561,56.265c-0.025,0-0.051-0.002-0.077-0.006c-0.272-0.042-0.459-0.297-0.417-0.57l2.109-13.771    c0.042-0.272,0.293-0.46,0.569-0.418c0.272,0.042,0.459,0.297,0.417,0.57l-2.109,13.771    C76.015,56.088,75.802,56.265,75.561,56.265z"/>  </g>  <g>   <path fill="#C4D9F8" d="M80.06,54.378c-0.025,0-0.051-0.002-0.077-0.006c-0.272-0.042-0.459-0.297-0.417-0.57l1.917-12.518    c0.042-0.272,0.296-0.46,0.569-0.418c0.272,0.042,0.459,0.297,0.417,0.57l-1.917,12.518C80.515,54.202,80.302,54.378,80.06,54.378    z"/>  </g>  <g>   <path fill="#C4D9F8" d="M84.483,52.998c-0.025,0-0.051-0.002-0.077-0.006c-0.272-0.042-0.459-0.297-0.417-0.57l1.803-11.769    c0.042-0.272,0.292-0.46,0.569-0.418c0.272,0.042,0.459,0.297,0.417,0.57l-1.803,11.769    C84.938,52.822,84.725,52.998,84.483,52.998z"/>  </g>  <g>   <path fill="#C4D9F8" d="M88.871,51.843c-0.025,0-0.051-0.002-0.077-0.006c-0.272-0.042-0.459-0.297-0.417-0.57l1.722-11.246    c0.042-0.274,0.295-0.461,0.569-0.419c0.272,0.042,0.459,0.297,0.417,0.569l-1.722,11.248    C89.326,51.666,89.113,51.843,88.871,51.843z"/>  </g>  <g>   <path fill="#C4D9F8" d="M93.161,51.329c-0.025,0-0.051-0.002-0.077-0.006c-0.272-0.042-0.459-0.297-0.417-0.57l1.74-11.366    c0.042-0.272,0.292-0.46,0.569-0.418c0.272,0.042,0.459,0.297,0.417,0.57l-1.74,11.366C93.616,51.153,93.403,51.329,93.161,51.329    z"/>  </g> </g> </g></g><g transform="translate(719.424 548.846) scale(0.405 0.405) rotate(0 43.03703703703703 200.19753086419752)"><g clip-path="url(#clipPath_JPMCFb12PQ81JDYRAAzsP)"><defs>
          <clipPath id="clipPath_JPMCFb12PQ81JDYRAAzsP">
            <rect x="0" y="0" width="86" height="400"/>
          </clipPath>
       </defs> <linearGradient id="SVGID_1_JPMCFb12PQ81JDYRAAzsP" gradientUnits="userSpaceOnUse" x1="4163.1406" y1="4935.8003" x2="4220.7935" y2="4935.8003" gradientTransform="matrix(0.0762 0 0 0.0762 -276.2162 -131.081)">  <stop offset="0.0898" stop-color="#EEEEEE"/>  <stop offset="0.8178" stop-color="#D6D7D8"/> </linearGradient> <rect x="41.003" y="90.054" fill="url(#SVGID_1_JPMCFb12PQ81JDYRAAzsP)" stroke="#EEEEEE" stroke-miterlimit="10" width="4.393" height="309.946"/> <polygon fill="#428DFC" points="0,98.79 62.434,71.411 0.176,13.117 "/> <polygon fill="#428DFC" points="85.778,98.79 23.344,71.411 85.6,13.117 "/> <polygon fill="#A1C3FC" points="86,98.837 0,98.837 42.274,0 "/> <g>     <linearGradient id="SVGID_2_JPMCFb12PQ81JDYRAAzsP" gradientUnits="userSpaceOnUse" x1="3947.241" y1="5010.5908" x2="4422.2231" y2="5010.5908" gradientTransform="matrix(0.0762 0 0 0.0762 -276.2162 -131.081)">   <stop offset="0.0898" stop-color="#EEEEEE"/>   <stop offset="0.8178" stop-color="#D6D7D8"/>  </linearGradient>  <path fill="url(#SVGID_2_JPMCFb12PQ81JDYRAAzsP)" d="M40.802,383.933c-1.52-5.254-3.448-10.526-5.311-15.625c-1.841-5.039-3.745-10.25-5.292-15.518   c-7.494-25.544-7.515-55.547-0.064-91.722c3.078-14.943,7.115-29.889,11.018-44.342c3.916-14.502,7.967-29.497,11.025-44.419   c3.382-16.501,6.075-35.736,0.418-53.296l4.647-1.492c6.003,18.631,3.226,38.644-0.282,55.764   c-3.088,15.07-7.158,30.139-11.094,44.712c-3.884,14.384-7.902,29.256-10.95,44.055c-7.287,35.377-7.297,64.61-0.033,89.371   c1.501,5.117,3.379,10.251,5.192,15.218c1.891,5.176,3.847,10.528,5.415,15.942L40.802,383.933z"/> </g> </g></g>
              </svg>